M48
; DRILL file {KiCad 7.0.8-7.0.8~ubuntu22.04.1} date Вс 22 окт 2023 15:10:00
; FORMAT={-:-/ absolute / inch / decimal}
; #@! TF.CreationDate,2023-10-22T15:10:00+03:00
; #@! TF.GenerationSoftware,Kicad,Pcbnew,7.0.8-7.0.8~ubuntu22.04.1
; #@! TF.FileFunction,MixedPlating,1,4
FMAT,2
INCH
; #@! TA.AperFunction,Plated,PTH,ViaDrill
T1C0.0059
; #@! TA.AperFunction,Plated,PTH,ComponentDrill
T2C0.0079
; #@! TA.AperFunction,Plated,PTH,ComponentDrill
T3C0.0197
; #@! TA.AperFunction,Plated,PTH,ComponentDrill
T4C0.0236
; #@! TA.AperFunction,NonPlated,NPTH,ComponentDrill
T5C0.0236
%
G90
G05
T1
X5.076Y-2.5484
X5.076Y-2.6665
X5.076Y-2.7846
X5.076Y-2.9028
X5.076Y-3.0209
X5.076Y-3.139
X5.076Y-5.3437
X5.1083Y-4.1886
X5.124Y-4.2988
X5.1283Y-3.6437
X5.1315Y-3.4453
X5.1327Y-3.478
X5.1374Y-3.689
X5.1388Y-3.5098
X5.1413Y-3.5748
X5.1429Y-3.5417
X5.1445Y-3.7189
X5.1449Y-3.4161
X5.1451Y-3.7409
X5.1451Y-3.7878
X5.1457Y-3.2906
X5.1457Y-3.3209
X5.1462Y-3.3516
X5.1476Y-3.3854
X5.1547Y-2.5878
X5.1547Y-2.7059
X5.1547Y-2.824
X5.1547Y-2.9421
X5.1547Y-3.0602
X5.1657Y-5.0272
X5.1665Y-5.0055
X5.1717Y-4.9146
X5.1717Y-4.9343
X5.1717Y-4.9539
X5.1764Y-3.3232
X5.1778Y-3.5482
X5.178Y-3.637
X5.178Y-3.5122
X5.1791Y-3.6055
X5.1799Y-3.3866
X5.1799Y-3.574
X5.185Y-4.122
X5.1913Y-4.9146
X5.1913Y-4.9343
X5.1913Y-4.9539
X5.1941Y-3.139
X5.1941Y-4.0445
X5.2004Y-5.1362
X5.2079Y-3.4496
X5.2087Y-3.7323
X5.209Y-3.48
X5.2185Y-5.1358
X5.2335Y-2.5484
X5.2335Y-2.6665
X5.2335Y-2.7846
X5.2335Y-2.9028
X5.2335Y-3.0209
X5.2335Y-5.2256
X5.2356Y-3.6063
X5.2362Y-5.1358
X5.2402Y-3.5469
X5.2425Y-3.6415
X5.2425Y-3.5768
X5.2444Y-3.3212
X5.2453Y-3.7429
X5.2465Y-3.4165
X5.2469Y-3.3882
X5.2469Y-3.6224
X5.248Y-3.5122
X5.252Y-4.7555
X5.252Y-4.7752
X5.252Y-4.7949
X5.252Y-4.8933
X5.252Y-4.913
X5.252Y-4.9327
X5.2535Y-3.4695
X5.2535Y-3.4911
X5.2669Y-3.5287
X5.2717Y-5.1689
X5.2717Y-5.1886
X5.2717Y-5.2083
X5.2728Y-3.0996
X5.2854Y-3.4189
X5.2913Y-5.1689
X5.2913Y-5.1886
X5.2913Y-5.2083
X5.3089Y-3.5604
X5.311Y-5.1689
X5.311Y-5.1886
X5.311Y-5.2083
X5.3122Y-2.7059
X5.3122Y-2.824
X5.3122Y-2.9421
X5.3131Y-3.6279
X5.3228Y-3.3435
X5.3228Y-3.3652
X5.3232Y-3.675
X5.3242Y-3.5451
X5.3287Y-4.7969
X5.3291Y-3.5913
X5.335Y-3.4177
X5.335Y-3.4811
X5.3402Y-5.2217
X5.3409Y-5.2024
X5.3417Y-5.1815
X5.3441Y-5.0579
X5.3453Y-4.1988
X5.3461Y-4.2406
X5.3504Y-5.0114
X5.3516Y-2.5484
X5.3516Y-3.0209
X5.3516Y-4.0445
X5.3516Y-4.3594
X5.3516Y-4.4776
X5.3567Y-4.2185
X5.3587Y-4.1787
X5.3642Y-4.7433
X5.3661Y-3.1996
X5.3661Y-3.4169
X5.3673Y-3.675
X5.3673Y-3.4803
X5.3673Y-3.5114
X5.3673Y-3.6433
X5.3677Y-3.2954
X5.3681Y-3.4472
X5.3685Y-3.5406
X5.3701Y-5.0114
X5.3898Y-5.0114
X5.3898Y-5.228
X5.3898Y-5.2476
X5.3909Y-2.6665
X5.3909Y-2.7846
X5.3909Y-2.9028
X5.3909Y-5.3437
X5.3976Y-3.5126
X5.3996Y-3.4469
X5.3996Y-3.4791
X5.4094Y-5.0114
X5.4094Y-5.228
X5.4094Y-5.2476
X5.4146Y-3.3839
X5.4291Y-4.6374
X5.4291Y-4.6571
X5.4291Y-5.228
X5.4291Y-5.2476
X5.4303Y-2.9815
X5.4303Y-3.0996
X5.4303Y-4.0839
X5.4303Y-4.2807
X5.4303Y-4.3988
X5.4343Y-3.7933
X5.4362Y-3.7669
X5.4366Y-3.737
X5.439Y-3.5539
X5.4406Y-3.5102
X5.4421Y-3.3043
X5.4488Y-4.6768
X5.4506Y-3.6907
X5.4524Y-3.6623
X5.4559Y-4.5425
X5.4559Y-4.5622
X5.4685Y-4.6768
X5.4697Y-2.5484
X5.4697Y-2.7059
X5.4697Y-2.824
X5.4756Y-4.5425
X5.4756Y-4.5622
X5.4843Y-5.3524
X5.4866Y-3.3504
X5.4898Y-3.3097
X5.4953Y-4.5425
X5.4953Y-4.5622
X5.4991Y-3.5193
X5.5052Y-3.2944
X5.5077Y-3.605
X5.5077Y-3.6266
X5.5091Y-2.9028
X5.5091Y-3.0209
X5.5091Y-3.139
X5.5091Y-4.0445
X5.5091Y-5.265
X5.5138Y-3.8083
X5.5173Y-3.6469
X5.5228Y-3.2803
X5.524Y-3.4394
X5.5276Y-4.6768
X5.5323Y-4.2701
X5.5323Y-4.2937
X5.5335Y-3.8323
X5.5451Y-3.6461
X5.5453Y-3.7731
X5.5454Y-3.3137
X5.5472Y-4.6768
X5.5472Y-5.1689
X5.5472Y-5.1886
X5.5484Y-2.6665
X5.5484Y-2.7846
X5.5484Y-4.3594
X5.5484Y-5.3437
X5.5592Y-3.8335
X5.5669Y-4.6768
X5.5669Y-5.1689
X5.5669Y-5.1886
X5.5709Y-3.5965
X5.5717Y-3.7232
X5.572Y-3.6469
X5.5827Y-3.7615
X5.5843Y-3.2787
X5.5878Y-2.5484
X5.5878Y-2.8634
X5.5878Y-2.9815
X5.5878Y-3.0996
X5.5878Y-4.0839
X5.5878Y-5.2256
X5.5963Y-3.3405
X5.5968Y-3.4157
X5.597Y-3.3642
X5.6024Y-4.8299
X5.6028Y-4.8075
X5.604Y-3.6847
X5.6059Y-3.5594
X5.6098Y-3.8378
X5.6213Y-3.4417
X5.6217Y-3.3638
X5.6228Y-3.3398
X5.6236Y-3.7502
X5.626Y-3.7008
X5.6272Y-2.6272
X5.6272Y-2.7453
X5.6272Y-5.1469
X5.6273Y-3.2451
X5.6273Y-3.2667
X5.6379Y-3.7605
X5.644Y-3.7104
X5.6457Y-4.8205
X5.6457Y-4.913
X5.6457Y-4.9327
X5.6457Y-5.0311
X5.6457Y-5.0508
X5.6465Y-3.5563
X5.6479Y-3.4151
X5.6482Y-3.3642
X5.6482Y-3.4418
X5.6484Y-3.8005
X5.6484Y-3.7748
X5.6485Y-3.3906
X5.6487Y-3.6718
X5.6488Y-3.5949
X5.6492Y-3.8264
X5.6549Y-4.4189
X5.6654Y-4.2634
X5.6654Y-4.2831
X5.6654Y-4.913
X5.6654Y-4.9327
X5.6654Y-5.0311
X5.6654Y-5.0508
X5.6665Y-2.824
X5.6665Y-2.9421
X5.6665Y-3.0602
X5.6665Y-4.5957
X5.6675Y-4.6541
X5.6677Y-4.6327
X5.6719Y-4.4189
X5.6732Y-3.9276
X5.6732Y-3.9461
X5.6732Y-3.9642
X5.6736Y-3.9091
X5.6756Y-3.3898
X5.6803Y-3.5488
X5.6811Y-3.6874
X5.685Y-4.2634
X5.685Y-4.2831
X5.6858Y-3.4874
X5.6858Y-3.5685
X5.6866Y-3.5071
X5.6874Y-3.3717
X5.6898Y-3.2736
X5.6898Y-3.8386
X5.6988Y-3.7476
X5.705Y-3.7163
X5.7051Y-4.7862
X5.7059Y-2.5484
X5.7059Y-2.6665
X5.7059Y-3.139
X5.7059Y-4.8713
X5.7059Y-5.0287
X5.7106Y-3.6862
X5.7185Y-3.2689
X5.7245Y-3.6206
X5.725Y-3.2862
X5.7295Y-3.6862
X5.7307Y-4.9673
X5.7339Y-4.8339
X5.7453Y-2.7453
X5.7453Y-3.6811
X5.7453Y-5.3043
X5.7465Y-3.1878
X5.7505Y-3.3397
X5.7506Y-3.7992
X5.752Y-3.7193
X5.7646Y-3.6803
X5.7756Y-3.4661
X5.7756Y-3.5181
X5.7756Y-3.5437
X5.7759Y-3.7233
X5.776Y-3.4925
X5.7763Y-3.7479
X5.7839Y-3.6815
X5.7843Y-4.365
X5.7846Y-4.1626
X5.7846Y-4.9894
X5.7991Y-4.7005
X5.8031Y-2.6488
X5.8031Y-2.6685
X5.8111Y-4.6885
X5.8193Y-3.8776
X5.8228Y-2.6488
X5.8228Y-2.6685
X5.824Y-2.5484
X5.824Y-2.8634
X5.824Y-2.9815
X5.824Y-3.0996
X5.824Y-3.9657
X5.824Y-5.265
X5.8264Y-3.5945
X5.8272Y-3.4661
X5.8272Y-3.5189
X5.8272Y-3.5437
X5.8272Y-3.5689
X5.8274Y-3.3899
X5.8276Y-3.4933
X5.8279Y-3.7486
X5.8358Y-3.8776
X5.8441Y-3.9008
X5.8528Y-3.878
X5.8583Y-5.0764
X5.8622Y-2.7476
X5.8622Y-2.7673
X5.8634Y-5.3437
X5.8699Y-5.0919
X5.874Y-3.5348
X5.8752Y-3.4888
X5.8783Y-3.2102
X5.8819Y-2.7476
X5.8819Y-2.7673
X5.8882Y-5.0764
X5.8984Y-5.0929
X5.9016Y-2.7476
X5.9016Y-2.7673
X5.9028Y-2.5878
X5.9028Y-4.5169
X5.9028Y-4.635
X5.9028Y-4.8319
X5.904Y-3.6202
X5.904Y-3.6714
X5.9094Y-2.9319
X5.9102Y-2.888
X5.9114Y-2.9744
X5.9134Y-2.8012
X5.922Y-3.1472
X5.9307Y-3.1236
X5.939Y-3.1
X5.9421Y-4.7138
X5.9421Y-5.265
X5.9425Y-3.8413
X5.9425Y-3.863
X5.9655Y-3.5998
X5.9655Y-3.8878
X5.9669Y-3.2102
X5.9675Y-3.5646
X5.9681Y-3.4508
X5.9681Y-3.6626
X5.9744Y-3.8425
X5.9776Y-4.0098
X5.9776Y-4.0307
X5.9787Y-4.094
X5.9795Y-3.5055
X5.9815Y-2.5484
X5.9815Y-5.3437
X5.9853Y-3.613
X5.9853Y-3.7424
X5.9874Y-3.3492
X5.9874Y-3.2965
X6.0067Y-3.3933
X6.0209Y-4.9894
X6.0209Y-5.2256
X6.0541Y-2.7014
X6.0541Y-2.722
X6.0541Y-2.7427
X6.0602Y-2.5878
X6.0602Y-2.824
X6.0602Y-3.3752
X6.0602Y-3.4933
X6.0602Y-3.6114
X6.0602Y-3.7295
X6.0602Y-3.8476
X6.0602Y-3.9657
X6.0602Y-4.0839
X6.0602Y-4.202
X6.0602Y-4.3201
X6.0602Y-4.4382
X6.0602Y-4.5563
X6.0602Y-4.6744
X6.0602Y-4.7925
X6.0602Y-4.9106
X6.0602Y-5.0681
T2
X5.3575Y-4.7717
X5.3575Y-4.8406
X5.3575Y-4.9094
X5.4264Y-4.7717
X5.4264Y-4.8406
X5.4264Y-4.9094
X5.4953Y-4.7717
X5.4953Y-4.8406
X5.4953Y-4.9094
T3
X5.1024Y-3.9618
X5.2028Y-5.1886
X5.5035Y-4.3685
X5.5051Y-4.1776
X5.7461Y-4.6909
X5.7937Y-4.6197
X5.8Y-4.1134
X5.9197Y-4.7815
X5.9606Y-4.5591
X5.9626Y-4.4689
X6.0343Y-2.9972
X6.035Y-3.0815
X6.0433Y-2.9134
T5
X5.2638Y-4.0953
X5.2638Y-4.3228
X5.7559Y-5.1681
X5.9835Y-5.1681
T4
G00X5.1028Y-4.039
M15
G01X5.1343Y-4.039
M16
G05
G00X5.1028Y-4.3791
M15
G01X5.1343Y-4.3791
M16
G05
G00X5.261Y-4.039
M15
G01X5.3043Y-4.039
M16
G05
G00X5.261Y-4.3791
M15
G01X5.3043Y-4.3791
M16
G05
G00X5.6996Y-5.1709
M15
G01X5.6996Y-5.1276
M16
G05
G00X5.6996Y-5.3291
M15
G01X5.6996Y-5.2976
M16
G05
G00X6.0398Y-5.1709
M15
G01X6.0398Y-5.1276
M16
G05
G00X6.0398Y-5.3291
M15
G01X6.0398Y-5.2976
M16
G05
T0
M30
