G04 #@! TF.GenerationSoftware,KiCad,Pcbnew,7.0.8-7.0.8~ubuntu22.04.1*
G04 #@! TF.CreationDate,2023-10-22T15:09:54+03:00*
G04 #@! TF.ProjectId,H616_devboard,48363136-5f64-4657-9662-6f6172642e6b,rev?*
G04 #@! TF.SameCoordinates,Original*
G04 #@! TF.FileFunction,Legend,Top*
G04 #@! TF.FilePolarity,Positive*
%FSLAX46Y46*%
G04 Gerber Fmt 4.6, Leading zero omitted, Abs format (unit mm)*
G04 Created by KiCad (PCBNEW 7.0.8-7.0.8~ubuntu22.04.1) date 2023-10-22 15:09:54*
%MOMM*%
%LPD*%
G01*
G04 APERTURE LIST*
%ADD10C,0.150000*%
%ADD11C,0.100000*%
%ADD12C,0.120000*%
G04 APERTURE END LIST*
D10*
X152320000Y-83370000D02*
X152320000Y-84050000D01*
X130809819Y-76773333D02*
X129809819Y-76773333D01*
X129809819Y-76773333D02*
X129809819Y-76535238D01*
X129809819Y-76535238D02*
X129857438Y-76392381D01*
X129857438Y-76392381D02*
X129952676Y-76297143D01*
X129952676Y-76297143D02*
X130047914Y-76249524D01*
X130047914Y-76249524D02*
X130238390Y-76201905D01*
X130238390Y-76201905D02*
X130381247Y-76201905D01*
X130381247Y-76201905D02*
X130571723Y-76249524D01*
X130571723Y-76249524D02*
X130666961Y-76297143D01*
X130666961Y-76297143D02*
X130762200Y-76392381D01*
X130762200Y-76392381D02*
X130809819Y-76535238D01*
X130809819Y-76535238D02*
X130809819Y-76773333D01*
X130762200Y-75392381D02*
X130809819Y-75487619D01*
X130809819Y-75487619D02*
X130809819Y-75678095D01*
X130809819Y-75678095D02*
X130762200Y-75773333D01*
X130762200Y-75773333D02*
X130666961Y-75820952D01*
X130666961Y-75820952D02*
X130286009Y-75820952D01*
X130286009Y-75820952D02*
X130190771Y-75773333D01*
X130190771Y-75773333D02*
X130143152Y-75678095D01*
X130143152Y-75678095D02*
X130143152Y-75487619D01*
X130143152Y-75487619D02*
X130190771Y-75392381D01*
X130190771Y-75392381D02*
X130286009Y-75344762D01*
X130286009Y-75344762D02*
X130381247Y-75344762D01*
X130381247Y-75344762D02*
X130476485Y-75820952D01*
X130762200Y-74963809D02*
X130809819Y-74868571D01*
X130809819Y-74868571D02*
X130809819Y-74678095D01*
X130809819Y-74678095D02*
X130762200Y-74582857D01*
X130762200Y-74582857D02*
X130666961Y-74535238D01*
X130666961Y-74535238D02*
X130619342Y-74535238D01*
X130619342Y-74535238D02*
X130524104Y-74582857D01*
X130524104Y-74582857D02*
X130476485Y-74678095D01*
X130476485Y-74678095D02*
X130476485Y-74820952D01*
X130476485Y-74820952D02*
X130428866Y-74916190D01*
X130428866Y-74916190D02*
X130333628Y-74963809D01*
X130333628Y-74963809D02*
X130286009Y-74963809D01*
X130286009Y-74963809D02*
X130190771Y-74916190D01*
X130190771Y-74916190D02*
X130143152Y-74820952D01*
X130143152Y-74820952D02*
X130143152Y-74678095D01*
X130143152Y-74678095D02*
X130190771Y-74582857D01*
X130809819Y-74106666D02*
X130143152Y-74106666D01*
X129809819Y-74106666D02*
X129857438Y-74154285D01*
X129857438Y-74154285D02*
X129905057Y-74106666D01*
X129905057Y-74106666D02*
X129857438Y-74059047D01*
X129857438Y-74059047D02*
X129809819Y-74106666D01*
X129809819Y-74106666D02*
X129905057Y-74106666D01*
X130143152Y-73201905D02*
X130952676Y-73201905D01*
X130952676Y-73201905D02*
X131047914Y-73249524D01*
X131047914Y-73249524D02*
X131095533Y-73297143D01*
X131095533Y-73297143D02*
X131143152Y-73392381D01*
X131143152Y-73392381D02*
X131143152Y-73535238D01*
X131143152Y-73535238D02*
X131095533Y-73630476D01*
X130762200Y-73201905D02*
X130809819Y-73297143D01*
X130809819Y-73297143D02*
X130809819Y-73487619D01*
X130809819Y-73487619D02*
X130762200Y-73582857D01*
X130762200Y-73582857D02*
X130714580Y-73630476D01*
X130714580Y-73630476D02*
X130619342Y-73678095D01*
X130619342Y-73678095D02*
X130333628Y-73678095D01*
X130333628Y-73678095D02*
X130238390Y-73630476D01*
X130238390Y-73630476D02*
X130190771Y-73582857D01*
X130190771Y-73582857D02*
X130143152Y-73487619D01*
X130143152Y-73487619D02*
X130143152Y-73297143D01*
X130143152Y-73297143D02*
X130190771Y-73201905D01*
X130143152Y-72725714D02*
X130809819Y-72725714D01*
X130238390Y-72725714D02*
X130190771Y-72678095D01*
X130190771Y-72678095D02*
X130143152Y-72582857D01*
X130143152Y-72582857D02*
X130143152Y-72440000D01*
X130143152Y-72440000D02*
X130190771Y-72344762D01*
X130190771Y-72344762D02*
X130286009Y-72297143D01*
X130286009Y-72297143D02*
X130809819Y-72297143D01*
X130762200Y-71440000D02*
X130809819Y-71535238D01*
X130809819Y-71535238D02*
X130809819Y-71725714D01*
X130809819Y-71725714D02*
X130762200Y-71820952D01*
X130762200Y-71820952D02*
X130666961Y-71868571D01*
X130666961Y-71868571D02*
X130286009Y-71868571D01*
X130286009Y-71868571D02*
X130190771Y-71820952D01*
X130190771Y-71820952D02*
X130143152Y-71725714D01*
X130143152Y-71725714D02*
X130143152Y-71535238D01*
X130143152Y-71535238D02*
X130190771Y-71440000D01*
X130190771Y-71440000D02*
X130286009Y-71392381D01*
X130286009Y-71392381D02*
X130381247Y-71392381D01*
X130381247Y-71392381D02*
X130476485Y-71868571D01*
X130809819Y-70535238D02*
X129809819Y-70535238D01*
X130762200Y-70535238D02*
X130809819Y-70630476D01*
X130809819Y-70630476D02*
X130809819Y-70820952D01*
X130809819Y-70820952D02*
X130762200Y-70916190D01*
X130762200Y-70916190D02*
X130714580Y-70963809D01*
X130714580Y-70963809D02*
X130619342Y-71011428D01*
X130619342Y-71011428D02*
X130333628Y-71011428D01*
X130333628Y-71011428D02*
X130238390Y-70963809D01*
X130238390Y-70963809D02*
X130190771Y-70916190D01*
X130190771Y-70916190D02*
X130143152Y-70820952D01*
X130143152Y-70820952D02*
X130143152Y-70630476D01*
X130143152Y-70630476D02*
X130190771Y-70535238D01*
X130809819Y-69297142D02*
X129809819Y-69297142D01*
X130190771Y-69297142D02*
X130143152Y-69201904D01*
X130143152Y-69201904D02*
X130143152Y-69011428D01*
X130143152Y-69011428D02*
X130190771Y-68916190D01*
X130190771Y-68916190D02*
X130238390Y-68868571D01*
X130238390Y-68868571D02*
X130333628Y-68820952D01*
X130333628Y-68820952D02*
X130619342Y-68820952D01*
X130619342Y-68820952D02*
X130714580Y-68868571D01*
X130714580Y-68868571D02*
X130762200Y-68916190D01*
X130762200Y-68916190D02*
X130809819Y-69011428D01*
X130809819Y-69011428D02*
X130809819Y-69201904D01*
X130809819Y-69201904D02*
X130762200Y-69297142D01*
X130143152Y-68487618D02*
X130809819Y-68249523D01*
X130143152Y-68011428D02*
X130809819Y-68249523D01*
X130809819Y-68249523D02*
X131047914Y-68344761D01*
X131047914Y-68344761D02*
X131095533Y-68392380D01*
X131095533Y-68392380D02*
X131143152Y-68487618D01*
X132419819Y-77368571D02*
X131419819Y-77368571D01*
X132419819Y-76797143D02*
X131848390Y-77225714D01*
X131419819Y-76797143D02*
X131991247Y-77368571D01*
X132419819Y-76225714D02*
X132372200Y-76320952D01*
X132372200Y-76320952D02*
X132324580Y-76368571D01*
X132324580Y-76368571D02*
X132229342Y-76416190D01*
X132229342Y-76416190D02*
X131943628Y-76416190D01*
X131943628Y-76416190D02*
X131848390Y-76368571D01*
X131848390Y-76368571D02*
X131800771Y-76320952D01*
X131800771Y-76320952D02*
X131753152Y-76225714D01*
X131753152Y-76225714D02*
X131753152Y-76082857D01*
X131753152Y-76082857D02*
X131800771Y-75987619D01*
X131800771Y-75987619D02*
X131848390Y-75940000D01*
X131848390Y-75940000D02*
X131943628Y-75892381D01*
X131943628Y-75892381D02*
X132229342Y-75892381D01*
X132229342Y-75892381D02*
X132324580Y-75940000D01*
X132324580Y-75940000D02*
X132372200Y-75987619D01*
X132372200Y-75987619D02*
X132419819Y-76082857D01*
X132419819Y-76082857D02*
X132419819Y-76225714D01*
X131753152Y-75463809D02*
X132419819Y-75463809D01*
X131848390Y-75463809D02*
X131800771Y-75416190D01*
X131800771Y-75416190D02*
X131753152Y-75320952D01*
X131753152Y-75320952D02*
X131753152Y-75178095D01*
X131753152Y-75178095D02*
X131800771Y-75082857D01*
X131800771Y-75082857D02*
X131896009Y-75035238D01*
X131896009Y-75035238D02*
X132419819Y-75035238D01*
X132419819Y-74416190D02*
X132372200Y-74511428D01*
X132372200Y-74511428D02*
X132324580Y-74559047D01*
X132324580Y-74559047D02*
X132229342Y-74606666D01*
X132229342Y-74606666D02*
X131943628Y-74606666D01*
X131943628Y-74606666D02*
X131848390Y-74559047D01*
X131848390Y-74559047D02*
X131800771Y-74511428D01*
X131800771Y-74511428D02*
X131753152Y-74416190D01*
X131753152Y-74416190D02*
X131753152Y-74273333D01*
X131753152Y-74273333D02*
X131800771Y-74178095D01*
X131800771Y-74178095D02*
X131848390Y-74130476D01*
X131848390Y-74130476D02*
X131943628Y-74082857D01*
X131943628Y-74082857D02*
X132229342Y-74082857D01*
X132229342Y-74082857D02*
X132324580Y-74130476D01*
X132324580Y-74130476D02*
X132372200Y-74178095D01*
X132372200Y-74178095D02*
X132419819Y-74273333D01*
X132419819Y-74273333D02*
X132419819Y-74416190D01*
X131753152Y-73654285D02*
X132419819Y-73654285D01*
X131848390Y-73654285D02*
X131800771Y-73606666D01*
X131800771Y-73606666D02*
X131753152Y-73511428D01*
X131753152Y-73511428D02*
X131753152Y-73368571D01*
X131753152Y-73368571D02*
X131800771Y-73273333D01*
X131800771Y-73273333D02*
X131896009Y-73225714D01*
X131896009Y-73225714D02*
X132419819Y-73225714D01*
X132372200Y-72368571D02*
X132419819Y-72463809D01*
X132419819Y-72463809D02*
X132419819Y-72654285D01*
X132419819Y-72654285D02*
X132372200Y-72749523D01*
X132372200Y-72749523D02*
X132276961Y-72797142D01*
X132276961Y-72797142D02*
X131896009Y-72797142D01*
X131896009Y-72797142D02*
X131800771Y-72749523D01*
X131800771Y-72749523D02*
X131753152Y-72654285D01*
X131753152Y-72654285D02*
X131753152Y-72463809D01*
X131753152Y-72463809D02*
X131800771Y-72368571D01*
X131800771Y-72368571D02*
X131896009Y-72320952D01*
X131896009Y-72320952D02*
X131991247Y-72320952D01*
X131991247Y-72320952D02*
X132086485Y-72797142D01*
X131753152Y-71892380D02*
X132419819Y-71892380D01*
X131848390Y-71892380D02*
X131800771Y-71844761D01*
X131800771Y-71844761D02*
X131753152Y-71749523D01*
X131753152Y-71749523D02*
X131753152Y-71606666D01*
X131753152Y-71606666D02*
X131800771Y-71511428D01*
X131800771Y-71511428D02*
X131896009Y-71463809D01*
X131896009Y-71463809D02*
X132419819Y-71463809D01*
X132419819Y-70987618D02*
X131419819Y-70987618D01*
X132038866Y-70892380D02*
X132419819Y-70606666D01*
X131753152Y-70606666D02*
X132134104Y-70987618D01*
X132419819Y-70035237D02*
X132372200Y-70130475D01*
X132372200Y-70130475D02*
X132324580Y-70178094D01*
X132324580Y-70178094D02*
X132229342Y-70225713D01*
X132229342Y-70225713D02*
X131943628Y-70225713D01*
X131943628Y-70225713D02*
X131848390Y-70178094D01*
X131848390Y-70178094D02*
X131800771Y-70130475D01*
X131800771Y-70130475D02*
X131753152Y-70035237D01*
X131753152Y-70035237D02*
X131753152Y-69892380D01*
X131753152Y-69892380D02*
X131800771Y-69797142D01*
X131800771Y-69797142D02*
X131848390Y-69749523D01*
X131848390Y-69749523D02*
X131943628Y-69701904D01*
X131943628Y-69701904D02*
X132229342Y-69701904D01*
X132229342Y-69701904D02*
X132324580Y-69749523D01*
X132324580Y-69749523D02*
X132372200Y-69797142D01*
X132372200Y-69797142D02*
X132419819Y-69892380D01*
X132419819Y-69892380D02*
X132419819Y-70035237D01*
X132419819Y-68511427D02*
X131419819Y-68511427D01*
X132419819Y-67939999D02*
X131848390Y-68368570D01*
X131419819Y-67939999D02*
X131991247Y-68511427D01*
X132324580Y-67511427D02*
X132372200Y-67463808D01*
X132372200Y-67463808D02*
X132419819Y-67511427D01*
X132419819Y-67511427D02*
X132372200Y-67559046D01*
X132372200Y-67559046D02*
X132324580Y-67511427D01*
X132324580Y-67511427D02*
X132419819Y-67511427D01*
X151129580Y-102212857D02*
X151177200Y-102260476D01*
X151177200Y-102260476D02*
X151224819Y-102403333D01*
X151224819Y-102403333D02*
X151224819Y-102498571D01*
X151224819Y-102498571D02*
X151177200Y-102641428D01*
X151177200Y-102641428D02*
X151081961Y-102736666D01*
X151081961Y-102736666D02*
X150986723Y-102784285D01*
X150986723Y-102784285D02*
X150796247Y-102831904D01*
X150796247Y-102831904D02*
X150653390Y-102831904D01*
X150653390Y-102831904D02*
X150462914Y-102784285D01*
X150462914Y-102784285D02*
X150367676Y-102736666D01*
X150367676Y-102736666D02*
X150272438Y-102641428D01*
X150272438Y-102641428D02*
X150224819Y-102498571D01*
X150224819Y-102498571D02*
X150224819Y-102403333D01*
X150224819Y-102403333D02*
X150272438Y-102260476D01*
X150272438Y-102260476D02*
X150320057Y-102212857D01*
X150224819Y-101355714D02*
X150224819Y-101546190D01*
X150224819Y-101546190D02*
X150272438Y-101641428D01*
X150272438Y-101641428D02*
X150320057Y-101689047D01*
X150320057Y-101689047D02*
X150462914Y-101784285D01*
X150462914Y-101784285D02*
X150653390Y-101831904D01*
X150653390Y-101831904D02*
X151034342Y-101831904D01*
X151034342Y-101831904D02*
X151129580Y-101784285D01*
X151129580Y-101784285D02*
X151177200Y-101736666D01*
X151177200Y-101736666D02*
X151224819Y-101641428D01*
X151224819Y-101641428D02*
X151224819Y-101450952D01*
X151224819Y-101450952D02*
X151177200Y-101355714D01*
X151177200Y-101355714D02*
X151129580Y-101308095D01*
X151129580Y-101308095D02*
X151034342Y-101260476D01*
X151034342Y-101260476D02*
X150796247Y-101260476D01*
X150796247Y-101260476D02*
X150701009Y-101308095D01*
X150701009Y-101308095D02*
X150653390Y-101355714D01*
X150653390Y-101355714D02*
X150605771Y-101450952D01*
X150605771Y-101450952D02*
X150605771Y-101641428D01*
X150605771Y-101641428D02*
X150653390Y-101736666D01*
X150653390Y-101736666D02*
X150701009Y-101784285D01*
X150701009Y-101784285D02*
X150796247Y-101831904D01*
X150558152Y-100403333D02*
X151224819Y-100403333D01*
X150177200Y-100641428D02*
X150891485Y-100879523D01*
X150891485Y-100879523D02*
X150891485Y-100260476D01*
X144299580Y-125982857D02*
X144347200Y-126030476D01*
X144347200Y-126030476D02*
X144394819Y-126173333D01*
X144394819Y-126173333D02*
X144394819Y-126268571D01*
X144394819Y-126268571D02*
X144347200Y-126411428D01*
X144347200Y-126411428D02*
X144251961Y-126506666D01*
X144251961Y-126506666D02*
X144156723Y-126554285D01*
X144156723Y-126554285D02*
X143966247Y-126601904D01*
X143966247Y-126601904D02*
X143823390Y-126601904D01*
X143823390Y-126601904D02*
X143632914Y-126554285D01*
X143632914Y-126554285D02*
X143537676Y-126506666D01*
X143537676Y-126506666D02*
X143442438Y-126411428D01*
X143442438Y-126411428D02*
X143394819Y-126268571D01*
X143394819Y-126268571D02*
X143394819Y-126173333D01*
X143394819Y-126173333D02*
X143442438Y-126030476D01*
X143442438Y-126030476D02*
X143490057Y-125982857D01*
X144394819Y-125030476D02*
X144394819Y-125601904D01*
X144394819Y-125316190D02*
X143394819Y-125316190D01*
X143394819Y-125316190D02*
X143537676Y-125411428D01*
X143537676Y-125411428D02*
X143632914Y-125506666D01*
X143632914Y-125506666D02*
X143680533Y-125601904D01*
X143394819Y-124125714D02*
X143394819Y-124601904D01*
X143394819Y-124601904D02*
X143871009Y-124649523D01*
X143871009Y-124649523D02*
X143823390Y-124601904D01*
X143823390Y-124601904D02*
X143775771Y-124506666D01*
X143775771Y-124506666D02*
X143775771Y-124268571D01*
X143775771Y-124268571D02*
X143823390Y-124173333D01*
X143823390Y-124173333D02*
X143871009Y-124125714D01*
X143871009Y-124125714D02*
X143966247Y-124078095D01*
X143966247Y-124078095D02*
X144204342Y-124078095D01*
X144204342Y-124078095D02*
X144299580Y-124125714D01*
X144299580Y-124125714D02*
X144347200Y-124173333D01*
X144347200Y-124173333D02*
X144394819Y-124268571D01*
X144394819Y-124268571D02*
X144394819Y-124506666D01*
X144394819Y-124506666D02*
X144347200Y-124601904D01*
X144347200Y-124601904D02*
X144299580Y-124649523D01*
X131954819Y-117926666D02*
X131954819Y-118402856D01*
X131954819Y-118402856D02*
X130954819Y-118402856D01*
X131050057Y-117640951D02*
X131002438Y-117593332D01*
X131002438Y-117593332D02*
X130954819Y-117498094D01*
X130954819Y-117498094D02*
X130954819Y-117259999D01*
X130954819Y-117259999D02*
X131002438Y-117164761D01*
X131002438Y-117164761D02*
X131050057Y-117117142D01*
X131050057Y-117117142D02*
X131145295Y-117069523D01*
X131145295Y-117069523D02*
X131240533Y-117069523D01*
X131240533Y-117069523D02*
X131383390Y-117117142D01*
X131383390Y-117117142D02*
X131954819Y-117688570D01*
X131954819Y-117688570D02*
X131954819Y-117069523D01*
D11*
X138349999Y-127611966D02*
X138316666Y-127645300D01*
X138316666Y-127645300D02*
X138216666Y-127678633D01*
X138216666Y-127678633D02*
X138149999Y-127678633D01*
X138149999Y-127678633D02*
X138049999Y-127645300D01*
X138049999Y-127645300D02*
X137983333Y-127578633D01*
X137983333Y-127578633D02*
X137949999Y-127511966D01*
X137949999Y-127511966D02*
X137916666Y-127378633D01*
X137916666Y-127378633D02*
X137916666Y-127278633D01*
X137916666Y-127278633D02*
X137949999Y-127145300D01*
X137949999Y-127145300D02*
X137983333Y-127078633D01*
X137983333Y-127078633D02*
X138049999Y-127011966D01*
X138049999Y-127011966D02*
X138149999Y-126978633D01*
X138149999Y-126978633D02*
X138216666Y-126978633D01*
X138216666Y-126978633D02*
X138316666Y-127011966D01*
X138316666Y-127011966D02*
X138349999Y-127045300D01*
X138583333Y-126978633D02*
X139016666Y-126978633D01*
X139016666Y-126978633D02*
X138783333Y-127245300D01*
X138783333Y-127245300D02*
X138883333Y-127245300D01*
X138883333Y-127245300D02*
X138949999Y-127278633D01*
X138949999Y-127278633D02*
X138983333Y-127311966D01*
X138983333Y-127311966D02*
X139016666Y-127378633D01*
X139016666Y-127378633D02*
X139016666Y-127545300D01*
X139016666Y-127545300D02*
X138983333Y-127611966D01*
X138983333Y-127611966D02*
X138949999Y-127645300D01*
X138949999Y-127645300D02*
X138883333Y-127678633D01*
X138883333Y-127678633D02*
X138683333Y-127678633D01*
X138683333Y-127678633D02*
X138616666Y-127645300D01*
X138616666Y-127645300D02*
X138583333Y-127611966D01*
X139250000Y-126978633D02*
X139683333Y-126978633D01*
X139683333Y-126978633D02*
X139450000Y-127245300D01*
X139450000Y-127245300D02*
X139550000Y-127245300D01*
X139550000Y-127245300D02*
X139616666Y-127278633D01*
X139616666Y-127278633D02*
X139650000Y-127311966D01*
X139650000Y-127311966D02*
X139683333Y-127378633D01*
X139683333Y-127378633D02*
X139683333Y-127545300D01*
X139683333Y-127545300D02*
X139650000Y-127611966D01*
X139650000Y-127611966D02*
X139616666Y-127645300D01*
X139616666Y-127645300D02*
X139550000Y-127678633D01*
X139550000Y-127678633D02*
X139350000Y-127678633D01*
X139350000Y-127678633D02*
X139283333Y-127645300D01*
X139283333Y-127645300D02*
X139250000Y-127611966D01*
D10*
X150558095Y-116944819D02*
X151129523Y-116944819D01*
X150843809Y-117944819D02*
X150843809Y-116944819D01*
X151462857Y-117944819D02*
X151462857Y-116944819D01*
X151462857Y-116944819D02*
X151843809Y-116944819D01*
X151843809Y-116944819D02*
X151939047Y-116992438D01*
X151939047Y-116992438D02*
X151986666Y-117040057D01*
X151986666Y-117040057D02*
X152034285Y-117135295D01*
X152034285Y-117135295D02*
X152034285Y-117278152D01*
X152034285Y-117278152D02*
X151986666Y-117373390D01*
X151986666Y-117373390D02*
X151939047Y-117421009D01*
X151939047Y-117421009D02*
X151843809Y-117468628D01*
X151843809Y-117468628D02*
X151462857Y-117468628D01*
X152891428Y-116944819D02*
X152700952Y-116944819D01*
X152700952Y-116944819D02*
X152605714Y-116992438D01*
X152605714Y-116992438D02*
X152558095Y-117040057D01*
X152558095Y-117040057D02*
X152462857Y-117182914D01*
X152462857Y-117182914D02*
X152415238Y-117373390D01*
X152415238Y-117373390D02*
X152415238Y-117754342D01*
X152415238Y-117754342D02*
X152462857Y-117849580D01*
X152462857Y-117849580D02*
X152510476Y-117897200D01*
X152510476Y-117897200D02*
X152605714Y-117944819D01*
X152605714Y-117944819D02*
X152796190Y-117944819D01*
X152796190Y-117944819D02*
X152891428Y-117897200D01*
X152891428Y-117897200D02*
X152939047Y-117849580D01*
X152939047Y-117849580D02*
X152986666Y-117754342D01*
X152986666Y-117754342D02*
X152986666Y-117516247D01*
X152986666Y-117516247D02*
X152939047Y-117421009D01*
X152939047Y-117421009D02*
X152891428Y-117373390D01*
X152891428Y-117373390D02*
X152796190Y-117325771D01*
X152796190Y-117325771D02*
X152605714Y-117325771D01*
X152605714Y-117325771D02*
X152510476Y-117373390D01*
X152510476Y-117373390D02*
X152462857Y-117421009D01*
X152462857Y-117421009D02*
X152415238Y-117516247D01*
D11*
X154111966Y-69300000D02*
X154145300Y-69333333D01*
X154145300Y-69333333D02*
X154178633Y-69433333D01*
X154178633Y-69433333D02*
X154178633Y-69500000D01*
X154178633Y-69500000D02*
X154145300Y-69600000D01*
X154145300Y-69600000D02*
X154078633Y-69666667D01*
X154078633Y-69666667D02*
X154011966Y-69700000D01*
X154011966Y-69700000D02*
X153878633Y-69733333D01*
X153878633Y-69733333D02*
X153778633Y-69733333D01*
X153778633Y-69733333D02*
X153645300Y-69700000D01*
X153645300Y-69700000D02*
X153578633Y-69666667D01*
X153578633Y-69666667D02*
X153511966Y-69600000D01*
X153511966Y-69600000D02*
X153478633Y-69500000D01*
X153478633Y-69500000D02*
X153478633Y-69433333D01*
X153478633Y-69433333D02*
X153511966Y-69333333D01*
X153511966Y-69333333D02*
X153545300Y-69300000D01*
X153478633Y-68666667D02*
X153478633Y-69000000D01*
X153478633Y-69000000D02*
X153811966Y-69033333D01*
X153811966Y-69033333D02*
X153778633Y-69000000D01*
X153778633Y-69000000D02*
X153745300Y-68933333D01*
X153745300Y-68933333D02*
X153745300Y-68766667D01*
X153745300Y-68766667D02*
X153778633Y-68700000D01*
X153778633Y-68700000D02*
X153811966Y-68666667D01*
X153811966Y-68666667D02*
X153878633Y-68633333D01*
X153878633Y-68633333D02*
X154045300Y-68633333D01*
X154045300Y-68633333D02*
X154111966Y-68666667D01*
X154111966Y-68666667D02*
X154145300Y-68700000D01*
X154145300Y-68700000D02*
X154178633Y-68766667D01*
X154178633Y-68766667D02*
X154178633Y-68933333D01*
X154178633Y-68933333D02*
X154145300Y-69000000D01*
X154145300Y-69000000D02*
X154111966Y-69033333D01*
X154178633Y-67966666D02*
X154178633Y-68366666D01*
X154178633Y-68166666D02*
X153478633Y-68166666D01*
X153478633Y-68166666D02*
X153578633Y-68233333D01*
X153578633Y-68233333D02*
X153645300Y-68300000D01*
X153645300Y-68300000D02*
X153678633Y-68366666D01*
D10*
X144434819Y-82142857D02*
X143958628Y-82476190D01*
X144434819Y-82714285D02*
X143434819Y-82714285D01*
X143434819Y-82714285D02*
X143434819Y-82333333D01*
X143434819Y-82333333D02*
X143482438Y-82238095D01*
X143482438Y-82238095D02*
X143530057Y-82190476D01*
X143530057Y-82190476D02*
X143625295Y-82142857D01*
X143625295Y-82142857D02*
X143768152Y-82142857D01*
X143768152Y-82142857D02*
X143863390Y-82190476D01*
X143863390Y-82190476D02*
X143911009Y-82238095D01*
X143911009Y-82238095D02*
X143958628Y-82333333D01*
X143958628Y-82333333D02*
X143958628Y-82714285D01*
X144434819Y-81190476D02*
X144434819Y-81761904D01*
X144434819Y-81476190D02*
X143434819Y-81476190D01*
X143434819Y-81476190D02*
X143577676Y-81571428D01*
X143577676Y-81571428D02*
X143672914Y-81666666D01*
X143672914Y-81666666D02*
X143720533Y-81761904D01*
X143434819Y-80285714D02*
X143434819Y-80761904D01*
X143434819Y-80761904D02*
X143911009Y-80809523D01*
X143911009Y-80809523D02*
X143863390Y-80761904D01*
X143863390Y-80761904D02*
X143815771Y-80666666D01*
X143815771Y-80666666D02*
X143815771Y-80428571D01*
X143815771Y-80428571D02*
X143863390Y-80333333D01*
X143863390Y-80333333D02*
X143911009Y-80285714D01*
X143911009Y-80285714D02*
X144006247Y-80238095D01*
X144006247Y-80238095D02*
X144244342Y-80238095D01*
X144244342Y-80238095D02*
X144339580Y-80285714D01*
X144339580Y-80285714D02*
X144387200Y-80333333D01*
X144387200Y-80333333D02*
X144434819Y-80428571D01*
X144434819Y-80428571D02*
X144434819Y-80666666D01*
X144434819Y-80666666D02*
X144387200Y-80761904D01*
X144387200Y-80761904D02*
X144339580Y-80809523D01*
X140888095Y-103884819D02*
X141459523Y-103884819D01*
X141173809Y-104884819D02*
X141173809Y-103884819D01*
X141792857Y-104884819D02*
X141792857Y-103884819D01*
X141792857Y-103884819D02*
X142173809Y-103884819D01*
X142173809Y-103884819D02*
X142269047Y-103932438D01*
X142269047Y-103932438D02*
X142316666Y-103980057D01*
X142316666Y-103980057D02*
X142364285Y-104075295D01*
X142364285Y-104075295D02*
X142364285Y-104218152D01*
X142364285Y-104218152D02*
X142316666Y-104313390D01*
X142316666Y-104313390D02*
X142269047Y-104361009D01*
X142269047Y-104361009D02*
X142173809Y-104408628D01*
X142173809Y-104408628D02*
X141792857Y-104408628D01*
X142697619Y-103884819D02*
X143316666Y-103884819D01*
X143316666Y-103884819D02*
X142983333Y-104265771D01*
X142983333Y-104265771D02*
X143126190Y-104265771D01*
X143126190Y-104265771D02*
X143221428Y-104313390D01*
X143221428Y-104313390D02*
X143269047Y-104361009D01*
X143269047Y-104361009D02*
X143316666Y-104456247D01*
X143316666Y-104456247D02*
X143316666Y-104694342D01*
X143316666Y-104694342D02*
X143269047Y-104789580D01*
X143269047Y-104789580D02*
X143221428Y-104837200D01*
X143221428Y-104837200D02*
X143126190Y-104884819D01*
X143126190Y-104884819D02*
X142840476Y-104884819D01*
X142840476Y-104884819D02*
X142745238Y-104837200D01*
X142745238Y-104837200D02*
X142697619Y-104789580D01*
X146058095Y-102486819D02*
X146629523Y-102486819D01*
X146343809Y-103486819D02*
X146343809Y-102486819D01*
X146962857Y-103486819D02*
X146962857Y-102486819D01*
X146962857Y-102486819D02*
X147343809Y-102486819D01*
X147343809Y-102486819D02*
X147439047Y-102534438D01*
X147439047Y-102534438D02*
X147486666Y-102582057D01*
X147486666Y-102582057D02*
X147534285Y-102677295D01*
X147534285Y-102677295D02*
X147534285Y-102820152D01*
X147534285Y-102820152D02*
X147486666Y-102915390D01*
X147486666Y-102915390D02*
X147439047Y-102963009D01*
X147439047Y-102963009D02*
X147343809Y-103010628D01*
X147343809Y-103010628D02*
X146962857Y-103010628D01*
X147867619Y-102486819D02*
X148534285Y-102486819D01*
X148534285Y-102486819D02*
X148105714Y-103486819D01*
X138804819Y-109882857D02*
X138328628Y-110216190D01*
X138804819Y-110454285D02*
X137804819Y-110454285D01*
X137804819Y-110454285D02*
X137804819Y-110073333D01*
X137804819Y-110073333D02*
X137852438Y-109978095D01*
X137852438Y-109978095D02*
X137900057Y-109930476D01*
X137900057Y-109930476D02*
X137995295Y-109882857D01*
X137995295Y-109882857D02*
X138138152Y-109882857D01*
X138138152Y-109882857D02*
X138233390Y-109930476D01*
X138233390Y-109930476D02*
X138281009Y-109978095D01*
X138281009Y-109978095D02*
X138328628Y-110073333D01*
X138328628Y-110073333D02*
X138328628Y-110454285D01*
X137900057Y-109501904D02*
X137852438Y-109454285D01*
X137852438Y-109454285D02*
X137804819Y-109359047D01*
X137804819Y-109359047D02*
X137804819Y-109120952D01*
X137804819Y-109120952D02*
X137852438Y-109025714D01*
X137852438Y-109025714D02*
X137900057Y-108978095D01*
X137900057Y-108978095D02*
X137995295Y-108930476D01*
X137995295Y-108930476D02*
X138090533Y-108930476D01*
X138090533Y-108930476D02*
X138233390Y-108978095D01*
X138233390Y-108978095D02*
X138804819Y-109549523D01*
X138804819Y-109549523D02*
X138804819Y-108930476D01*
X138138152Y-108073333D02*
X138804819Y-108073333D01*
X137757200Y-108311428D02*
X138471485Y-108549523D01*
X138471485Y-108549523D02*
X138471485Y-107930476D01*
X130058095Y-80964819D02*
X130058095Y-81774342D01*
X130058095Y-81774342D02*
X130105714Y-81869580D01*
X130105714Y-81869580D02*
X130153333Y-81917200D01*
X130153333Y-81917200D02*
X130248571Y-81964819D01*
X130248571Y-81964819D02*
X130439047Y-81964819D01*
X130439047Y-81964819D02*
X130534285Y-81917200D01*
X130534285Y-81917200D02*
X130581904Y-81869580D01*
X130581904Y-81869580D02*
X130629523Y-81774342D01*
X130629523Y-81774342D02*
X130629523Y-80964819D01*
X131629523Y-81964819D02*
X131058095Y-81964819D01*
X131343809Y-81964819D02*
X131343809Y-80964819D01*
X131343809Y-80964819D02*
X131248571Y-81107676D01*
X131248571Y-81107676D02*
X131153333Y-81202914D01*
X131153333Y-81202914D02*
X131058095Y-81250533D01*
X138729819Y-105607857D02*
X138253628Y-105941190D01*
X138729819Y-106179285D02*
X137729819Y-106179285D01*
X137729819Y-106179285D02*
X137729819Y-105798333D01*
X137729819Y-105798333D02*
X137777438Y-105703095D01*
X137777438Y-105703095D02*
X137825057Y-105655476D01*
X137825057Y-105655476D02*
X137920295Y-105607857D01*
X137920295Y-105607857D02*
X138063152Y-105607857D01*
X138063152Y-105607857D02*
X138158390Y-105655476D01*
X138158390Y-105655476D02*
X138206009Y-105703095D01*
X138206009Y-105703095D02*
X138253628Y-105798333D01*
X138253628Y-105798333D02*
X138253628Y-106179285D01*
X137825057Y-105226904D02*
X137777438Y-105179285D01*
X137777438Y-105179285D02*
X137729819Y-105084047D01*
X137729819Y-105084047D02*
X137729819Y-104845952D01*
X137729819Y-104845952D02*
X137777438Y-104750714D01*
X137777438Y-104750714D02*
X137825057Y-104703095D01*
X137825057Y-104703095D02*
X137920295Y-104655476D01*
X137920295Y-104655476D02*
X138015533Y-104655476D01*
X138015533Y-104655476D02*
X138158390Y-104703095D01*
X138158390Y-104703095D02*
X138729819Y-105274523D01*
X138729819Y-105274523D02*
X138729819Y-104655476D01*
X137729819Y-104322142D02*
X137729819Y-103703095D01*
X137729819Y-103703095D02*
X138110771Y-104036428D01*
X138110771Y-104036428D02*
X138110771Y-103893571D01*
X138110771Y-103893571D02*
X138158390Y-103798333D01*
X138158390Y-103798333D02*
X138206009Y-103750714D01*
X138206009Y-103750714D02*
X138301247Y-103703095D01*
X138301247Y-103703095D02*
X138539342Y-103703095D01*
X138539342Y-103703095D02*
X138634580Y-103750714D01*
X138634580Y-103750714D02*
X138682200Y-103798333D01*
X138682200Y-103798333D02*
X138729819Y-103893571D01*
X138729819Y-103893571D02*
X138729819Y-104179285D01*
X138729819Y-104179285D02*
X138682200Y-104274523D01*
X138682200Y-104274523D02*
X138634580Y-104322142D01*
X130334819Y-117966666D02*
X130334819Y-118442856D01*
X130334819Y-118442856D02*
X129334819Y-118442856D01*
X130334819Y-117109523D02*
X130334819Y-117680951D01*
X130334819Y-117395237D02*
X129334819Y-117395237D01*
X129334819Y-117395237D02*
X129477676Y-117490475D01*
X129477676Y-117490475D02*
X129572914Y-117585713D01*
X129572914Y-117585713D02*
X129620533Y-117680951D01*
X145694819Y-82298094D02*
X144694819Y-82298094D01*
X144694819Y-82298094D02*
X144694819Y-82059999D01*
X144694819Y-82059999D02*
X144742438Y-81917142D01*
X144742438Y-81917142D02*
X144837676Y-81821904D01*
X144837676Y-81821904D02*
X144932914Y-81774285D01*
X144932914Y-81774285D02*
X145123390Y-81726666D01*
X145123390Y-81726666D02*
X145266247Y-81726666D01*
X145266247Y-81726666D02*
X145456723Y-81774285D01*
X145456723Y-81774285D02*
X145551961Y-81821904D01*
X145551961Y-81821904D02*
X145647200Y-81917142D01*
X145647200Y-81917142D02*
X145694819Y-82059999D01*
X145694819Y-82059999D02*
X145694819Y-82298094D01*
X144790057Y-81345713D02*
X144742438Y-81298094D01*
X144742438Y-81298094D02*
X144694819Y-81202856D01*
X144694819Y-81202856D02*
X144694819Y-80964761D01*
X144694819Y-80964761D02*
X144742438Y-80869523D01*
X144742438Y-80869523D02*
X144790057Y-80821904D01*
X144790057Y-80821904D02*
X144885295Y-80774285D01*
X144885295Y-80774285D02*
X144980533Y-80774285D01*
X144980533Y-80774285D02*
X145123390Y-80821904D01*
X145123390Y-80821904D02*
X145694819Y-81393332D01*
X145694819Y-81393332D02*
X145694819Y-80774285D01*
X130064819Y-132821904D02*
X130064819Y-132250476D01*
X131064819Y-132536190D02*
X130064819Y-132536190D01*
X131064819Y-131917142D02*
X130064819Y-131917142D01*
X130064819Y-131917142D02*
X130064819Y-131536190D01*
X130064819Y-131536190D02*
X130112438Y-131440952D01*
X130112438Y-131440952D02*
X130160057Y-131393333D01*
X130160057Y-131393333D02*
X130255295Y-131345714D01*
X130255295Y-131345714D02*
X130398152Y-131345714D01*
X130398152Y-131345714D02*
X130493390Y-131393333D01*
X130493390Y-131393333D02*
X130541009Y-131440952D01*
X130541009Y-131440952D02*
X130588628Y-131536190D01*
X130588628Y-131536190D02*
X130588628Y-131917142D01*
X130493390Y-130774285D02*
X130445771Y-130869523D01*
X130445771Y-130869523D02*
X130398152Y-130917142D01*
X130398152Y-130917142D02*
X130302914Y-130964761D01*
X130302914Y-130964761D02*
X130255295Y-130964761D01*
X130255295Y-130964761D02*
X130160057Y-130917142D01*
X130160057Y-130917142D02*
X130112438Y-130869523D01*
X130112438Y-130869523D02*
X130064819Y-130774285D01*
X130064819Y-130774285D02*
X130064819Y-130583809D01*
X130064819Y-130583809D02*
X130112438Y-130488571D01*
X130112438Y-130488571D02*
X130160057Y-130440952D01*
X130160057Y-130440952D02*
X130255295Y-130393333D01*
X130255295Y-130393333D02*
X130302914Y-130393333D01*
X130302914Y-130393333D02*
X130398152Y-130440952D01*
X130398152Y-130440952D02*
X130445771Y-130488571D01*
X130445771Y-130488571D02*
X130493390Y-130583809D01*
X130493390Y-130583809D02*
X130493390Y-130774285D01*
X130493390Y-130774285D02*
X130541009Y-130869523D01*
X130541009Y-130869523D02*
X130588628Y-130917142D01*
X130588628Y-130917142D02*
X130683866Y-130964761D01*
X130683866Y-130964761D02*
X130874342Y-130964761D01*
X130874342Y-130964761D02*
X130969580Y-130917142D01*
X130969580Y-130917142D02*
X131017200Y-130869523D01*
X131017200Y-130869523D02*
X131064819Y-130774285D01*
X131064819Y-130774285D02*
X131064819Y-130583809D01*
X131064819Y-130583809D02*
X131017200Y-130488571D01*
X131017200Y-130488571D02*
X130969580Y-130440952D01*
X130969580Y-130440952D02*
X130874342Y-130393333D01*
X130874342Y-130393333D02*
X130683866Y-130393333D01*
X130683866Y-130393333D02*
X130588628Y-130440952D01*
X130588628Y-130440952D02*
X130541009Y-130488571D01*
X130541009Y-130488571D02*
X130493390Y-130583809D01*
X148756666Y-127594819D02*
X148756666Y-128309104D01*
X148756666Y-128309104D02*
X148709047Y-128451961D01*
X148709047Y-128451961D02*
X148613809Y-128547200D01*
X148613809Y-128547200D02*
X148470952Y-128594819D01*
X148470952Y-128594819D02*
X148375714Y-128594819D01*
X149185238Y-127690057D02*
X149232857Y-127642438D01*
X149232857Y-127642438D02*
X149328095Y-127594819D01*
X149328095Y-127594819D02*
X149566190Y-127594819D01*
X149566190Y-127594819D02*
X149661428Y-127642438D01*
X149661428Y-127642438D02*
X149709047Y-127690057D01*
X149709047Y-127690057D02*
X149756666Y-127785295D01*
X149756666Y-127785295D02*
X149756666Y-127880533D01*
X149756666Y-127880533D02*
X149709047Y-128023390D01*
X149709047Y-128023390D02*
X149137619Y-128594819D01*
X149137619Y-128594819D02*
X149756666Y-128594819D01*
D11*
X154208633Y-71640000D02*
X153875300Y-71873333D01*
X154208633Y-72040000D02*
X153508633Y-72040000D01*
X153508633Y-72040000D02*
X153508633Y-71773333D01*
X153508633Y-71773333D02*
X153541966Y-71706667D01*
X153541966Y-71706667D02*
X153575300Y-71673333D01*
X153575300Y-71673333D02*
X153641966Y-71640000D01*
X153641966Y-71640000D02*
X153741966Y-71640000D01*
X153741966Y-71640000D02*
X153808633Y-71673333D01*
X153808633Y-71673333D02*
X153841966Y-71706667D01*
X153841966Y-71706667D02*
X153875300Y-71773333D01*
X153875300Y-71773333D02*
X153875300Y-72040000D01*
X154208633Y-70973333D02*
X154208633Y-71373333D01*
X154208633Y-71173333D02*
X153508633Y-71173333D01*
X153508633Y-71173333D02*
X153608633Y-71240000D01*
X153608633Y-71240000D02*
X153675300Y-71306667D01*
X153675300Y-71306667D02*
X153708633Y-71373333D01*
X153508633Y-70540000D02*
X153508633Y-70473333D01*
X153508633Y-70473333D02*
X153541966Y-70406666D01*
X153541966Y-70406666D02*
X153575300Y-70373333D01*
X153575300Y-70373333D02*
X153641966Y-70340000D01*
X153641966Y-70340000D02*
X153775300Y-70306666D01*
X153775300Y-70306666D02*
X153941966Y-70306666D01*
X153941966Y-70306666D02*
X154075300Y-70340000D01*
X154075300Y-70340000D02*
X154141966Y-70373333D01*
X154141966Y-70373333D02*
X154175300Y-70406666D01*
X154175300Y-70406666D02*
X154208633Y-70473333D01*
X154208633Y-70473333D02*
X154208633Y-70540000D01*
X154208633Y-70540000D02*
X154175300Y-70606666D01*
X154175300Y-70606666D02*
X154141966Y-70640000D01*
X154141966Y-70640000D02*
X154075300Y-70673333D01*
X154075300Y-70673333D02*
X153941966Y-70706666D01*
X153941966Y-70706666D02*
X153775300Y-70706666D01*
X153775300Y-70706666D02*
X153641966Y-70673333D01*
X153641966Y-70673333D02*
X153575300Y-70640000D01*
X153575300Y-70640000D02*
X153541966Y-70606666D01*
X153541966Y-70606666D02*
X153508633Y-70540000D01*
D10*
X146438095Y-114984819D02*
X147009523Y-114984819D01*
X146723809Y-115984819D02*
X146723809Y-114984819D01*
X147342857Y-115984819D02*
X147342857Y-114984819D01*
X147342857Y-114984819D02*
X147723809Y-114984819D01*
X147723809Y-114984819D02*
X147819047Y-115032438D01*
X147819047Y-115032438D02*
X147866666Y-115080057D01*
X147866666Y-115080057D02*
X147914285Y-115175295D01*
X147914285Y-115175295D02*
X147914285Y-115318152D01*
X147914285Y-115318152D02*
X147866666Y-115413390D01*
X147866666Y-115413390D02*
X147819047Y-115461009D01*
X147819047Y-115461009D02*
X147723809Y-115508628D01*
X147723809Y-115508628D02*
X147342857Y-115508628D01*
X148295238Y-115080057D02*
X148342857Y-115032438D01*
X148342857Y-115032438D02*
X148438095Y-114984819D01*
X148438095Y-114984819D02*
X148676190Y-114984819D01*
X148676190Y-114984819D02*
X148771428Y-115032438D01*
X148771428Y-115032438D02*
X148819047Y-115080057D01*
X148819047Y-115080057D02*
X148866666Y-115175295D01*
X148866666Y-115175295D02*
X148866666Y-115270533D01*
X148866666Y-115270533D02*
X148819047Y-115413390D01*
X148819047Y-115413390D02*
X148247619Y-115984819D01*
X148247619Y-115984819D02*
X148866666Y-115984819D01*
D11*
X133549999Y-114391966D02*
X133516666Y-114425300D01*
X133516666Y-114425300D02*
X133416666Y-114458633D01*
X133416666Y-114458633D02*
X133349999Y-114458633D01*
X133349999Y-114458633D02*
X133249999Y-114425300D01*
X133249999Y-114425300D02*
X133183333Y-114358633D01*
X133183333Y-114358633D02*
X133149999Y-114291966D01*
X133149999Y-114291966D02*
X133116666Y-114158633D01*
X133116666Y-114158633D02*
X133116666Y-114058633D01*
X133116666Y-114058633D02*
X133149999Y-113925300D01*
X133149999Y-113925300D02*
X133183333Y-113858633D01*
X133183333Y-113858633D02*
X133249999Y-113791966D01*
X133249999Y-113791966D02*
X133349999Y-113758633D01*
X133349999Y-113758633D02*
X133416666Y-113758633D01*
X133416666Y-113758633D02*
X133516666Y-113791966D01*
X133516666Y-113791966D02*
X133549999Y-113825300D01*
X133783333Y-113758633D02*
X134216666Y-113758633D01*
X134216666Y-113758633D02*
X133983333Y-114025300D01*
X133983333Y-114025300D02*
X134083333Y-114025300D01*
X134083333Y-114025300D02*
X134149999Y-114058633D01*
X134149999Y-114058633D02*
X134183333Y-114091966D01*
X134183333Y-114091966D02*
X134216666Y-114158633D01*
X134216666Y-114158633D02*
X134216666Y-114325300D01*
X134216666Y-114325300D02*
X134183333Y-114391966D01*
X134183333Y-114391966D02*
X134149999Y-114425300D01*
X134149999Y-114425300D02*
X134083333Y-114458633D01*
X134083333Y-114458633D02*
X133883333Y-114458633D01*
X133883333Y-114458633D02*
X133816666Y-114425300D01*
X133816666Y-114425300D02*
X133783333Y-114391966D01*
X134850000Y-113758633D02*
X134516666Y-113758633D01*
X134516666Y-113758633D02*
X134483333Y-114091966D01*
X134483333Y-114091966D02*
X134516666Y-114058633D01*
X134516666Y-114058633D02*
X134583333Y-114025300D01*
X134583333Y-114025300D02*
X134750000Y-114025300D01*
X134750000Y-114025300D02*
X134816666Y-114058633D01*
X134816666Y-114058633D02*
X134850000Y-114091966D01*
X134850000Y-114091966D02*
X134883333Y-114158633D01*
X134883333Y-114158633D02*
X134883333Y-114325300D01*
X134883333Y-114325300D02*
X134850000Y-114391966D01*
X134850000Y-114391966D02*
X134816666Y-114425300D01*
X134816666Y-114425300D02*
X134750000Y-114458633D01*
X134750000Y-114458633D02*
X134583333Y-114458633D01*
X134583333Y-114458633D02*
X134516666Y-114425300D01*
X134516666Y-114425300D02*
X134483333Y-114391966D01*
D10*
X147744819Y-123736666D02*
X147268628Y-124069999D01*
X147744819Y-124308094D02*
X146744819Y-124308094D01*
X146744819Y-124308094D02*
X146744819Y-123927142D01*
X146744819Y-123927142D02*
X146792438Y-123831904D01*
X146792438Y-123831904D02*
X146840057Y-123784285D01*
X146840057Y-123784285D02*
X146935295Y-123736666D01*
X146935295Y-123736666D02*
X147078152Y-123736666D01*
X147078152Y-123736666D02*
X147173390Y-123784285D01*
X147173390Y-123784285D02*
X147221009Y-123831904D01*
X147221009Y-123831904D02*
X147268628Y-123927142D01*
X147268628Y-123927142D02*
X147268628Y-124308094D01*
X146744819Y-123403332D02*
X146744819Y-122736666D01*
X146744819Y-122736666D02*
X147744819Y-123165237D01*
X146234819Y-123756666D02*
X145758628Y-124089999D01*
X146234819Y-124328094D02*
X145234819Y-124328094D01*
X145234819Y-124328094D02*
X145234819Y-123947142D01*
X145234819Y-123947142D02*
X145282438Y-123851904D01*
X145282438Y-123851904D02*
X145330057Y-123804285D01*
X145330057Y-123804285D02*
X145425295Y-123756666D01*
X145425295Y-123756666D02*
X145568152Y-123756666D01*
X145568152Y-123756666D02*
X145663390Y-123804285D01*
X145663390Y-123804285D02*
X145711009Y-123851904D01*
X145711009Y-123851904D02*
X145758628Y-123947142D01*
X145758628Y-123947142D02*
X145758628Y-124328094D01*
X145663390Y-123185237D02*
X145615771Y-123280475D01*
X145615771Y-123280475D02*
X145568152Y-123328094D01*
X145568152Y-123328094D02*
X145472914Y-123375713D01*
X145472914Y-123375713D02*
X145425295Y-123375713D01*
X145425295Y-123375713D02*
X145330057Y-123328094D01*
X145330057Y-123328094D02*
X145282438Y-123280475D01*
X145282438Y-123280475D02*
X145234819Y-123185237D01*
X145234819Y-123185237D02*
X145234819Y-122994761D01*
X145234819Y-122994761D02*
X145282438Y-122899523D01*
X145282438Y-122899523D02*
X145330057Y-122851904D01*
X145330057Y-122851904D02*
X145425295Y-122804285D01*
X145425295Y-122804285D02*
X145472914Y-122804285D01*
X145472914Y-122804285D02*
X145568152Y-122851904D01*
X145568152Y-122851904D02*
X145615771Y-122899523D01*
X145615771Y-122899523D02*
X145663390Y-122994761D01*
X145663390Y-122994761D02*
X145663390Y-123185237D01*
X145663390Y-123185237D02*
X145711009Y-123280475D01*
X145711009Y-123280475D02*
X145758628Y-123328094D01*
X145758628Y-123328094D02*
X145853866Y-123375713D01*
X145853866Y-123375713D02*
X146044342Y-123375713D01*
X146044342Y-123375713D02*
X146139580Y-123328094D01*
X146139580Y-123328094D02*
X146187200Y-123280475D01*
X146187200Y-123280475D02*
X146234819Y-123185237D01*
X146234819Y-123185237D02*
X146234819Y-122994761D01*
X146234819Y-122994761D02*
X146187200Y-122899523D01*
X146187200Y-122899523D02*
X146139580Y-122851904D01*
X146139580Y-122851904D02*
X146044342Y-122804285D01*
X146044342Y-122804285D02*
X145853866Y-122804285D01*
X145853866Y-122804285D02*
X145758628Y-122851904D01*
X145758628Y-122851904D02*
X145711009Y-122899523D01*
X145711009Y-122899523D02*
X145663390Y-122994761D01*
X135434819Y-130436666D02*
X135434819Y-130912856D01*
X135434819Y-130912856D02*
X134434819Y-130912856D01*
X134768152Y-129674761D02*
X135434819Y-129674761D01*
X134387200Y-129912856D02*
X135101485Y-130150951D01*
X135101485Y-130150951D02*
X135101485Y-129531904D01*
X144029580Y-129502857D02*
X144077200Y-129550476D01*
X144077200Y-129550476D02*
X144124819Y-129693333D01*
X144124819Y-129693333D02*
X144124819Y-129788571D01*
X144124819Y-129788571D02*
X144077200Y-129931428D01*
X144077200Y-129931428D02*
X143981961Y-130026666D01*
X143981961Y-130026666D02*
X143886723Y-130074285D01*
X143886723Y-130074285D02*
X143696247Y-130121904D01*
X143696247Y-130121904D02*
X143553390Y-130121904D01*
X143553390Y-130121904D02*
X143362914Y-130074285D01*
X143362914Y-130074285D02*
X143267676Y-130026666D01*
X143267676Y-130026666D02*
X143172438Y-129931428D01*
X143172438Y-129931428D02*
X143124819Y-129788571D01*
X143124819Y-129788571D02*
X143124819Y-129693333D01*
X143124819Y-129693333D02*
X143172438Y-129550476D01*
X143172438Y-129550476D02*
X143220057Y-129502857D01*
X143220057Y-129121904D02*
X143172438Y-129074285D01*
X143172438Y-129074285D02*
X143124819Y-128979047D01*
X143124819Y-128979047D02*
X143124819Y-128740952D01*
X143124819Y-128740952D02*
X143172438Y-128645714D01*
X143172438Y-128645714D02*
X143220057Y-128598095D01*
X143220057Y-128598095D02*
X143315295Y-128550476D01*
X143315295Y-128550476D02*
X143410533Y-128550476D01*
X143410533Y-128550476D02*
X143553390Y-128598095D01*
X143553390Y-128598095D02*
X144124819Y-129169523D01*
X144124819Y-129169523D02*
X144124819Y-128550476D01*
X143124819Y-127931428D02*
X143124819Y-127836190D01*
X143124819Y-127836190D02*
X143172438Y-127740952D01*
X143172438Y-127740952D02*
X143220057Y-127693333D01*
X143220057Y-127693333D02*
X143315295Y-127645714D01*
X143315295Y-127645714D02*
X143505771Y-127598095D01*
X143505771Y-127598095D02*
X143743866Y-127598095D01*
X143743866Y-127598095D02*
X143934342Y-127645714D01*
X143934342Y-127645714D02*
X144029580Y-127693333D01*
X144029580Y-127693333D02*
X144077200Y-127740952D01*
X144077200Y-127740952D02*
X144124819Y-127836190D01*
X144124819Y-127836190D02*
X144124819Y-127931428D01*
X144124819Y-127931428D02*
X144077200Y-128026666D01*
X144077200Y-128026666D02*
X144029580Y-128074285D01*
X144029580Y-128074285D02*
X143934342Y-128121904D01*
X143934342Y-128121904D02*
X143743866Y-128169523D01*
X143743866Y-128169523D02*
X143505771Y-128169523D01*
X143505771Y-128169523D02*
X143315295Y-128121904D01*
X143315295Y-128121904D02*
X143220057Y-128074285D01*
X143220057Y-128074285D02*
X143172438Y-128026666D01*
X143172438Y-128026666D02*
X143124819Y-127931428D01*
X151347142Y-127654819D02*
X151013809Y-127178628D01*
X150775714Y-127654819D02*
X150775714Y-126654819D01*
X150775714Y-126654819D02*
X151156666Y-126654819D01*
X151156666Y-126654819D02*
X151251904Y-126702438D01*
X151251904Y-126702438D02*
X151299523Y-126750057D01*
X151299523Y-126750057D02*
X151347142Y-126845295D01*
X151347142Y-126845295D02*
X151347142Y-126988152D01*
X151347142Y-126988152D02*
X151299523Y-127083390D01*
X151299523Y-127083390D02*
X151251904Y-127131009D01*
X151251904Y-127131009D02*
X151156666Y-127178628D01*
X151156666Y-127178628D02*
X150775714Y-127178628D01*
X151728095Y-126750057D02*
X151775714Y-126702438D01*
X151775714Y-126702438D02*
X151870952Y-126654819D01*
X151870952Y-126654819D02*
X152109047Y-126654819D01*
X152109047Y-126654819D02*
X152204285Y-126702438D01*
X152204285Y-126702438D02*
X152251904Y-126750057D01*
X152251904Y-126750057D02*
X152299523Y-126845295D01*
X152299523Y-126845295D02*
X152299523Y-126940533D01*
X152299523Y-126940533D02*
X152251904Y-127083390D01*
X152251904Y-127083390D02*
X151680476Y-127654819D01*
X151680476Y-127654819D02*
X152299523Y-127654819D01*
X152680476Y-126750057D02*
X152728095Y-126702438D01*
X152728095Y-126702438D02*
X152823333Y-126654819D01*
X152823333Y-126654819D02*
X153061428Y-126654819D01*
X153061428Y-126654819D02*
X153156666Y-126702438D01*
X153156666Y-126702438D02*
X153204285Y-126750057D01*
X153204285Y-126750057D02*
X153251904Y-126845295D01*
X153251904Y-126845295D02*
X153251904Y-126940533D01*
X153251904Y-126940533D02*
X153204285Y-127083390D01*
X153204285Y-127083390D02*
X152632857Y-127654819D01*
X152632857Y-127654819D02*
X153251904Y-127654819D01*
X140899580Y-132602857D02*
X140947200Y-132650476D01*
X140947200Y-132650476D02*
X140994819Y-132793333D01*
X140994819Y-132793333D02*
X140994819Y-132888571D01*
X140994819Y-132888571D02*
X140947200Y-133031428D01*
X140947200Y-133031428D02*
X140851961Y-133126666D01*
X140851961Y-133126666D02*
X140756723Y-133174285D01*
X140756723Y-133174285D02*
X140566247Y-133221904D01*
X140566247Y-133221904D02*
X140423390Y-133221904D01*
X140423390Y-133221904D02*
X140232914Y-133174285D01*
X140232914Y-133174285D02*
X140137676Y-133126666D01*
X140137676Y-133126666D02*
X140042438Y-133031428D01*
X140042438Y-133031428D02*
X139994819Y-132888571D01*
X139994819Y-132888571D02*
X139994819Y-132793333D01*
X139994819Y-132793333D02*
X140042438Y-132650476D01*
X140042438Y-132650476D02*
X140090057Y-132602857D01*
X139994819Y-132269523D02*
X139994819Y-131650476D01*
X139994819Y-131650476D02*
X140375771Y-131983809D01*
X140375771Y-131983809D02*
X140375771Y-131840952D01*
X140375771Y-131840952D02*
X140423390Y-131745714D01*
X140423390Y-131745714D02*
X140471009Y-131698095D01*
X140471009Y-131698095D02*
X140566247Y-131650476D01*
X140566247Y-131650476D02*
X140804342Y-131650476D01*
X140804342Y-131650476D02*
X140899580Y-131698095D01*
X140899580Y-131698095D02*
X140947200Y-131745714D01*
X140947200Y-131745714D02*
X140994819Y-131840952D01*
X140994819Y-131840952D02*
X140994819Y-132126666D01*
X140994819Y-132126666D02*
X140947200Y-132221904D01*
X140947200Y-132221904D02*
X140899580Y-132269523D01*
X140423390Y-131079047D02*
X140375771Y-131174285D01*
X140375771Y-131174285D02*
X140328152Y-131221904D01*
X140328152Y-131221904D02*
X140232914Y-131269523D01*
X140232914Y-131269523D02*
X140185295Y-131269523D01*
X140185295Y-131269523D02*
X140090057Y-131221904D01*
X140090057Y-131221904D02*
X140042438Y-131174285D01*
X140042438Y-131174285D02*
X139994819Y-131079047D01*
X139994819Y-131079047D02*
X139994819Y-130888571D01*
X139994819Y-130888571D02*
X140042438Y-130793333D01*
X140042438Y-130793333D02*
X140090057Y-130745714D01*
X140090057Y-130745714D02*
X140185295Y-130698095D01*
X140185295Y-130698095D02*
X140232914Y-130698095D01*
X140232914Y-130698095D02*
X140328152Y-130745714D01*
X140328152Y-130745714D02*
X140375771Y-130793333D01*
X140375771Y-130793333D02*
X140423390Y-130888571D01*
X140423390Y-130888571D02*
X140423390Y-131079047D01*
X140423390Y-131079047D02*
X140471009Y-131174285D01*
X140471009Y-131174285D02*
X140518628Y-131221904D01*
X140518628Y-131221904D02*
X140613866Y-131269523D01*
X140613866Y-131269523D02*
X140804342Y-131269523D01*
X140804342Y-131269523D02*
X140899580Y-131221904D01*
X140899580Y-131221904D02*
X140947200Y-131174285D01*
X140947200Y-131174285D02*
X140994819Y-131079047D01*
X140994819Y-131079047D02*
X140994819Y-130888571D01*
X140994819Y-130888571D02*
X140947200Y-130793333D01*
X140947200Y-130793333D02*
X140899580Y-130745714D01*
X140899580Y-130745714D02*
X140804342Y-130698095D01*
X140804342Y-130698095D02*
X140613866Y-130698095D01*
X140613866Y-130698095D02*
X140518628Y-130745714D01*
X140518628Y-130745714D02*
X140471009Y-130793333D01*
X140471009Y-130793333D02*
X140423390Y-130888571D01*
X143084819Y-82288094D02*
X142084819Y-82288094D01*
X142084819Y-82288094D02*
X142084819Y-82049999D01*
X142084819Y-82049999D02*
X142132438Y-81907142D01*
X142132438Y-81907142D02*
X142227676Y-81811904D01*
X142227676Y-81811904D02*
X142322914Y-81764285D01*
X142322914Y-81764285D02*
X142513390Y-81716666D01*
X142513390Y-81716666D02*
X142656247Y-81716666D01*
X142656247Y-81716666D02*
X142846723Y-81764285D01*
X142846723Y-81764285D02*
X142941961Y-81811904D01*
X142941961Y-81811904D02*
X143037200Y-81907142D01*
X143037200Y-81907142D02*
X143084819Y-82049999D01*
X143084819Y-82049999D02*
X143084819Y-82288094D01*
X143084819Y-80764285D02*
X143084819Y-81335713D01*
X143084819Y-81049999D02*
X142084819Y-81049999D01*
X142084819Y-81049999D02*
X142227676Y-81145237D01*
X142227676Y-81145237D02*
X142322914Y-81240475D01*
X142322914Y-81240475D02*
X142370533Y-81335713D01*
X153374819Y-88112857D02*
X152898628Y-88446190D01*
X153374819Y-88684285D02*
X152374819Y-88684285D01*
X152374819Y-88684285D02*
X152374819Y-88303333D01*
X152374819Y-88303333D02*
X152422438Y-88208095D01*
X152422438Y-88208095D02*
X152470057Y-88160476D01*
X152470057Y-88160476D02*
X152565295Y-88112857D01*
X152565295Y-88112857D02*
X152708152Y-88112857D01*
X152708152Y-88112857D02*
X152803390Y-88160476D01*
X152803390Y-88160476D02*
X152851009Y-88208095D01*
X152851009Y-88208095D02*
X152898628Y-88303333D01*
X152898628Y-88303333D02*
X152898628Y-88684285D01*
X152470057Y-87731904D02*
X152422438Y-87684285D01*
X152422438Y-87684285D02*
X152374819Y-87589047D01*
X152374819Y-87589047D02*
X152374819Y-87350952D01*
X152374819Y-87350952D02*
X152422438Y-87255714D01*
X152422438Y-87255714D02*
X152470057Y-87208095D01*
X152470057Y-87208095D02*
X152565295Y-87160476D01*
X152565295Y-87160476D02*
X152660533Y-87160476D01*
X152660533Y-87160476D02*
X152803390Y-87208095D01*
X152803390Y-87208095D02*
X153374819Y-87779523D01*
X153374819Y-87779523D02*
X153374819Y-87160476D01*
X152374819Y-86303333D02*
X152374819Y-86493809D01*
X152374819Y-86493809D02*
X152422438Y-86589047D01*
X152422438Y-86589047D02*
X152470057Y-86636666D01*
X152470057Y-86636666D02*
X152612914Y-86731904D01*
X152612914Y-86731904D02*
X152803390Y-86779523D01*
X152803390Y-86779523D02*
X153184342Y-86779523D01*
X153184342Y-86779523D02*
X153279580Y-86731904D01*
X153279580Y-86731904D02*
X153327200Y-86684285D01*
X153327200Y-86684285D02*
X153374819Y-86589047D01*
X153374819Y-86589047D02*
X153374819Y-86398571D01*
X153374819Y-86398571D02*
X153327200Y-86303333D01*
X153327200Y-86303333D02*
X153279580Y-86255714D01*
X153279580Y-86255714D02*
X153184342Y-86208095D01*
X153184342Y-86208095D02*
X152946247Y-86208095D01*
X152946247Y-86208095D02*
X152851009Y-86255714D01*
X152851009Y-86255714D02*
X152803390Y-86303333D01*
X152803390Y-86303333D02*
X152755771Y-86398571D01*
X152755771Y-86398571D02*
X152755771Y-86589047D01*
X152755771Y-86589047D02*
X152803390Y-86684285D01*
X152803390Y-86684285D02*
X152851009Y-86731904D01*
X152851009Y-86731904D02*
X152946247Y-86779523D01*
X142677142Y-122969580D02*
X142629523Y-123017200D01*
X142629523Y-123017200D02*
X142486666Y-123064819D01*
X142486666Y-123064819D02*
X142391428Y-123064819D01*
X142391428Y-123064819D02*
X142248571Y-123017200D01*
X142248571Y-123017200D02*
X142153333Y-122921961D01*
X142153333Y-122921961D02*
X142105714Y-122826723D01*
X142105714Y-122826723D02*
X142058095Y-122636247D01*
X142058095Y-122636247D02*
X142058095Y-122493390D01*
X142058095Y-122493390D02*
X142105714Y-122302914D01*
X142105714Y-122302914D02*
X142153333Y-122207676D01*
X142153333Y-122207676D02*
X142248571Y-122112438D01*
X142248571Y-122112438D02*
X142391428Y-122064819D01*
X142391428Y-122064819D02*
X142486666Y-122064819D01*
X142486666Y-122064819D02*
X142629523Y-122112438D01*
X142629523Y-122112438D02*
X142677142Y-122160057D01*
X143058095Y-122160057D02*
X143105714Y-122112438D01*
X143105714Y-122112438D02*
X143200952Y-122064819D01*
X143200952Y-122064819D02*
X143439047Y-122064819D01*
X143439047Y-122064819D02*
X143534285Y-122112438D01*
X143534285Y-122112438D02*
X143581904Y-122160057D01*
X143581904Y-122160057D02*
X143629523Y-122255295D01*
X143629523Y-122255295D02*
X143629523Y-122350533D01*
X143629523Y-122350533D02*
X143581904Y-122493390D01*
X143581904Y-122493390D02*
X143010476Y-123064819D01*
X143010476Y-123064819D02*
X143629523Y-123064819D01*
X144534285Y-122064819D02*
X144058095Y-122064819D01*
X144058095Y-122064819D02*
X144010476Y-122541009D01*
X144010476Y-122541009D02*
X144058095Y-122493390D01*
X144058095Y-122493390D02*
X144153333Y-122445771D01*
X144153333Y-122445771D02*
X144391428Y-122445771D01*
X144391428Y-122445771D02*
X144486666Y-122493390D01*
X144486666Y-122493390D02*
X144534285Y-122541009D01*
X144534285Y-122541009D02*
X144581904Y-122636247D01*
X144581904Y-122636247D02*
X144581904Y-122874342D01*
X144581904Y-122874342D02*
X144534285Y-122969580D01*
X144534285Y-122969580D02*
X144486666Y-123017200D01*
X144486666Y-123017200D02*
X144391428Y-123064819D01*
X144391428Y-123064819D02*
X144153333Y-123064819D01*
X144153333Y-123064819D02*
X144058095Y-123017200D01*
X144058095Y-123017200D02*
X144010476Y-122969580D01*
D11*
X129801966Y-129300000D02*
X129835300Y-129333333D01*
X129835300Y-129333333D02*
X129868633Y-129433333D01*
X129868633Y-129433333D02*
X129868633Y-129500000D01*
X129868633Y-129500000D02*
X129835300Y-129600000D01*
X129835300Y-129600000D02*
X129768633Y-129666667D01*
X129768633Y-129666667D02*
X129701966Y-129700000D01*
X129701966Y-129700000D02*
X129568633Y-129733333D01*
X129568633Y-129733333D02*
X129468633Y-129733333D01*
X129468633Y-129733333D02*
X129335300Y-129700000D01*
X129335300Y-129700000D02*
X129268633Y-129666667D01*
X129268633Y-129666667D02*
X129201966Y-129600000D01*
X129201966Y-129600000D02*
X129168633Y-129500000D01*
X129168633Y-129500000D02*
X129168633Y-129433333D01*
X129168633Y-129433333D02*
X129201966Y-129333333D01*
X129201966Y-129333333D02*
X129235300Y-129300000D01*
X129235300Y-129033333D02*
X129201966Y-129000000D01*
X129201966Y-129000000D02*
X129168633Y-128933333D01*
X129168633Y-128933333D02*
X129168633Y-128766667D01*
X129168633Y-128766667D02*
X129201966Y-128700000D01*
X129201966Y-128700000D02*
X129235300Y-128666667D01*
X129235300Y-128666667D02*
X129301966Y-128633333D01*
X129301966Y-128633333D02*
X129368633Y-128633333D01*
X129368633Y-128633333D02*
X129468633Y-128666667D01*
X129468633Y-128666667D02*
X129868633Y-129066667D01*
X129868633Y-129066667D02*
X129868633Y-128633333D01*
X129401966Y-128033333D02*
X129868633Y-128033333D01*
X129135300Y-128200000D02*
X129635300Y-128366666D01*
X129635300Y-128366666D02*
X129635300Y-127933333D01*
D10*
X130449580Y-126632857D02*
X130497200Y-126680476D01*
X130497200Y-126680476D02*
X130544819Y-126823333D01*
X130544819Y-126823333D02*
X130544819Y-126918571D01*
X130544819Y-126918571D02*
X130497200Y-127061428D01*
X130497200Y-127061428D02*
X130401961Y-127156666D01*
X130401961Y-127156666D02*
X130306723Y-127204285D01*
X130306723Y-127204285D02*
X130116247Y-127251904D01*
X130116247Y-127251904D02*
X129973390Y-127251904D01*
X129973390Y-127251904D02*
X129782914Y-127204285D01*
X129782914Y-127204285D02*
X129687676Y-127156666D01*
X129687676Y-127156666D02*
X129592438Y-127061428D01*
X129592438Y-127061428D02*
X129544819Y-126918571D01*
X129544819Y-126918571D02*
X129544819Y-126823333D01*
X129544819Y-126823333D02*
X129592438Y-126680476D01*
X129592438Y-126680476D02*
X129640057Y-126632857D01*
X129640057Y-126251904D02*
X129592438Y-126204285D01*
X129592438Y-126204285D02*
X129544819Y-126109047D01*
X129544819Y-126109047D02*
X129544819Y-125870952D01*
X129544819Y-125870952D02*
X129592438Y-125775714D01*
X129592438Y-125775714D02*
X129640057Y-125728095D01*
X129640057Y-125728095D02*
X129735295Y-125680476D01*
X129735295Y-125680476D02*
X129830533Y-125680476D01*
X129830533Y-125680476D02*
X129973390Y-125728095D01*
X129973390Y-125728095D02*
X130544819Y-126299523D01*
X130544819Y-126299523D02*
X130544819Y-125680476D01*
X130544819Y-125204285D02*
X130544819Y-125013809D01*
X130544819Y-125013809D02*
X130497200Y-124918571D01*
X130497200Y-124918571D02*
X130449580Y-124870952D01*
X130449580Y-124870952D02*
X130306723Y-124775714D01*
X130306723Y-124775714D02*
X130116247Y-124728095D01*
X130116247Y-124728095D02*
X129735295Y-124728095D01*
X129735295Y-124728095D02*
X129640057Y-124775714D01*
X129640057Y-124775714D02*
X129592438Y-124823333D01*
X129592438Y-124823333D02*
X129544819Y-124918571D01*
X129544819Y-124918571D02*
X129544819Y-125109047D01*
X129544819Y-125109047D02*
X129592438Y-125204285D01*
X129592438Y-125204285D02*
X129640057Y-125251904D01*
X129640057Y-125251904D02*
X129735295Y-125299523D01*
X129735295Y-125299523D02*
X129973390Y-125299523D01*
X129973390Y-125299523D02*
X130068628Y-125251904D01*
X130068628Y-125251904D02*
X130116247Y-125204285D01*
X130116247Y-125204285D02*
X130163866Y-125109047D01*
X130163866Y-125109047D02*
X130163866Y-124918571D01*
X130163866Y-124918571D02*
X130116247Y-124823333D01*
X130116247Y-124823333D02*
X130068628Y-124775714D01*
X130068628Y-124775714D02*
X129973390Y-124728095D01*
X129839580Y-134532857D02*
X129887200Y-134580476D01*
X129887200Y-134580476D02*
X129934819Y-134723333D01*
X129934819Y-134723333D02*
X129934819Y-134818571D01*
X129934819Y-134818571D02*
X129887200Y-134961428D01*
X129887200Y-134961428D02*
X129791961Y-135056666D01*
X129791961Y-135056666D02*
X129696723Y-135104285D01*
X129696723Y-135104285D02*
X129506247Y-135151904D01*
X129506247Y-135151904D02*
X129363390Y-135151904D01*
X129363390Y-135151904D02*
X129172914Y-135104285D01*
X129172914Y-135104285D02*
X129077676Y-135056666D01*
X129077676Y-135056666D02*
X128982438Y-134961428D01*
X128982438Y-134961428D02*
X128934819Y-134818571D01*
X128934819Y-134818571D02*
X128934819Y-134723333D01*
X128934819Y-134723333D02*
X128982438Y-134580476D01*
X128982438Y-134580476D02*
X129030057Y-134532857D01*
X128934819Y-133675714D02*
X128934819Y-133866190D01*
X128934819Y-133866190D02*
X128982438Y-133961428D01*
X128982438Y-133961428D02*
X129030057Y-134009047D01*
X129030057Y-134009047D02*
X129172914Y-134104285D01*
X129172914Y-134104285D02*
X129363390Y-134151904D01*
X129363390Y-134151904D02*
X129744342Y-134151904D01*
X129744342Y-134151904D02*
X129839580Y-134104285D01*
X129839580Y-134104285D02*
X129887200Y-134056666D01*
X129887200Y-134056666D02*
X129934819Y-133961428D01*
X129934819Y-133961428D02*
X129934819Y-133770952D01*
X129934819Y-133770952D02*
X129887200Y-133675714D01*
X129887200Y-133675714D02*
X129839580Y-133628095D01*
X129839580Y-133628095D02*
X129744342Y-133580476D01*
X129744342Y-133580476D02*
X129506247Y-133580476D01*
X129506247Y-133580476D02*
X129411009Y-133628095D01*
X129411009Y-133628095D02*
X129363390Y-133675714D01*
X129363390Y-133675714D02*
X129315771Y-133770952D01*
X129315771Y-133770952D02*
X129315771Y-133961428D01*
X129315771Y-133961428D02*
X129363390Y-134056666D01*
X129363390Y-134056666D02*
X129411009Y-134104285D01*
X129411009Y-134104285D02*
X129506247Y-134151904D01*
X129934819Y-133104285D02*
X129934819Y-132913809D01*
X129934819Y-132913809D02*
X129887200Y-132818571D01*
X129887200Y-132818571D02*
X129839580Y-132770952D01*
X129839580Y-132770952D02*
X129696723Y-132675714D01*
X129696723Y-132675714D02*
X129506247Y-132628095D01*
X129506247Y-132628095D02*
X129125295Y-132628095D01*
X129125295Y-132628095D02*
X129030057Y-132675714D01*
X129030057Y-132675714D02*
X128982438Y-132723333D01*
X128982438Y-132723333D02*
X128934819Y-132818571D01*
X128934819Y-132818571D02*
X128934819Y-133009047D01*
X128934819Y-133009047D02*
X128982438Y-133104285D01*
X128982438Y-133104285D02*
X129030057Y-133151904D01*
X129030057Y-133151904D02*
X129125295Y-133199523D01*
X129125295Y-133199523D02*
X129363390Y-133199523D01*
X129363390Y-133199523D02*
X129458628Y-133151904D01*
X129458628Y-133151904D02*
X129506247Y-133104285D01*
X129506247Y-133104285D02*
X129553866Y-133009047D01*
X129553866Y-133009047D02*
X129553866Y-132818571D01*
X129553866Y-132818571D02*
X129506247Y-132723333D01*
X129506247Y-132723333D02*
X129458628Y-132675714D01*
X129458628Y-132675714D02*
X129363390Y-132628095D01*
X138939580Y-115582857D02*
X138987200Y-115630476D01*
X138987200Y-115630476D02*
X139034819Y-115773333D01*
X139034819Y-115773333D02*
X139034819Y-115868571D01*
X139034819Y-115868571D02*
X138987200Y-116011428D01*
X138987200Y-116011428D02*
X138891961Y-116106666D01*
X138891961Y-116106666D02*
X138796723Y-116154285D01*
X138796723Y-116154285D02*
X138606247Y-116201904D01*
X138606247Y-116201904D02*
X138463390Y-116201904D01*
X138463390Y-116201904D02*
X138272914Y-116154285D01*
X138272914Y-116154285D02*
X138177676Y-116106666D01*
X138177676Y-116106666D02*
X138082438Y-116011428D01*
X138082438Y-116011428D02*
X138034819Y-115868571D01*
X138034819Y-115868571D02*
X138034819Y-115773333D01*
X138034819Y-115773333D02*
X138082438Y-115630476D01*
X138082438Y-115630476D02*
X138130057Y-115582857D01*
X138034819Y-115249523D02*
X138034819Y-114630476D01*
X138034819Y-114630476D02*
X138415771Y-114963809D01*
X138415771Y-114963809D02*
X138415771Y-114820952D01*
X138415771Y-114820952D02*
X138463390Y-114725714D01*
X138463390Y-114725714D02*
X138511009Y-114678095D01*
X138511009Y-114678095D02*
X138606247Y-114630476D01*
X138606247Y-114630476D02*
X138844342Y-114630476D01*
X138844342Y-114630476D02*
X138939580Y-114678095D01*
X138939580Y-114678095D02*
X138987200Y-114725714D01*
X138987200Y-114725714D02*
X139034819Y-114820952D01*
X139034819Y-114820952D02*
X139034819Y-115106666D01*
X139034819Y-115106666D02*
X138987200Y-115201904D01*
X138987200Y-115201904D02*
X138939580Y-115249523D01*
X139034819Y-113678095D02*
X139034819Y-114249523D01*
X139034819Y-113963809D02*
X138034819Y-113963809D01*
X138034819Y-113963809D02*
X138177676Y-114059047D01*
X138177676Y-114059047D02*
X138272914Y-114154285D01*
X138272914Y-114154285D02*
X138320533Y-114249523D01*
X148074580Y-107585357D02*
X148122200Y-107632976D01*
X148122200Y-107632976D02*
X148169819Y-107775833D01*
X148169819Y-107775833D02*
X148169819Y-107871071D01*
X148169819Y-107871071D02*
X148122200Y-108013928D01*
X148122200Y-108013928D02*
X148026961Y-108109166D01*
X148026961Y-108109166D02*
X147931723Y-108156785D01*
X147931723Y-108156785D02*
X147741247Y-108204404D01*
X147741247Y-108204404D02*
X147598390Y-108204404D01*
X147598390Y-108204404D02*
X147407914Y-108156785D01*
X147407914Y-108156785D02*
X147312676Y-108109166D01*
X147312676Y-108109166D02*
X147217438Y-108013928D01*
X147217438Y-108013928D02*
X147169819Y-107871071D01*
X147169819Y-107871071D02*
X147169819Y-107775833D01*
X147169819Y-107775833D02*
X147217438Y-107632976D01*
X147217438Y-107632976D02*
X147265057Y-107585357D01*
X147169819Y-106728214D02*
X147169819Y-106918690D01*
X147169819Y-106918690D02*
X147217438Y-107013928D01*
X147217438Y-107013928D02*
X147265057Y-107061547D01*
X147265057Y-107061547D02*
X147407914Y-107156785D01*
X147407914Y-107156785D02*
X147598390Y-107204404D01*
X147598390Y-107204404D02*
X147979342Y-107204404D01*
X147979342Y-107204404D02*
X148074580Y-107156785D01*
X148074580Y-107156785D02*
X148122200Y-107109166D01*
X148122200Y-107109166D02*
X148169819Y-107013928D01*
X148169819Y-107013928D02*
X148169819Y-106823452D01*
X148169819Y-106823452D02*
X148122200Y-106728214D01*
X148122200Y-106728214D02*
X148074580Y-106680595D01*
X148074580Y-106680595D02*
X147979342Y-106632976D01*
X147979342Y-106632976D02*
X147741247Y-106632976D01*
X147741247Y-106632976D02*
X147646009Y-106680595D01*
X147646009Y-106680595D02*
X147598390Y-106728214D01*
X147598390Y-106728214D02*
X147550771Y-106823452D01*
X147550771Y-106823452D02*
X147550771Y-107013928D01*
X147550771Y-107013928D02*
X147598390Y-107109166D01*
X147598390Y-107109166D02*
X147646009Y-107156785D01*
X147646009Y-107156785D02*
X147741247Y-107204404D01*
X147598390Y-106061547D02*
X147550771Y-106156785D01*
X147550771Y-106156785D02*
X147503152Y-106204404D01*
X147503152Y-106204404D02*
X147407914Y-106252023D01*
X147407914Y-106252023D02*
X147360295Y-106252023D01*
X147360295Y-106252023D02*
X147265057Y-106204404D01*
X147265057Y-106204404D02*
X147217438Y-106156785D01*
X147217438Y-106156785D02*
X147169819Y-106061547D01*
X147169819Y-106061547D02*
X147169819Y-105871071D01*
X147169819Y-105871071D02*
X147217438Y-105775833D01*
X147217438Y-105775833D02*
X147265057Y-105728214D01*
X147265057Y-105728214D02*
X147360295Y-105680595D01*
X147360295Y-105680595D02*
X147407914Y-105680595D01*
X147407914Y-105680595D02*
X147503152Y-105728214D01*
X147503152Y-105728214D02*
X147550771Y-105775833D01*
X147550771Y-105775833D02*
X147598390Y-105871071D01*
X147598390Y-105871071D02*
X147598390Y-106061547D01*
X147598390Y-106061547D02*
X147646009Y-106156785D01*
X147646009Y-106156785D02*
X147693628Y-106204404D01*
X147693628Y-106204404D02*
X147788866Y-106252023D01*
X147788866Y-106252023D02*
X147979342Y-106252023D01*
X147979342Y-106252023D02*
X148074580Y-106204404D01*
X148074580Y-106204404D02*
X148122200Y-106156785D01*
X148122200Y-106156785D02*
X148169819Y-106061547D01*
X148169819Y-106061547D02*
X148169819Y-105871071D01*
X148169819Y-105871071D02*
X148122200Y-105775833D01*
X148122200Y-105775833D02*
X148074580Y-105728214D01*
X148074580Y-105728214D02*
X147979342Y-105680595D01*
X147979342Y-105680595D02*
X147788866Y-105680595D01*
X147788866Y-105680595D02*
X147693628Y-105728214D01*
X147693628Y-105728214D02*
X147646009Y-105775833D01*
X147646009Y-105775833D02*
X147598390Y-105871071D01*
X141649580Y-115512857D02*
X141697200Y-115560476D01*
X141697200Y-115560476D02*
X141744819Y-115703333D01*
X141744819Y-115703333D02*
X141744819Y-115798571D01*
X141744819Y-115798571D02*
X141697200Y-115941428D01*
X141697200Y-115941428D02*
X141601961Y-116036666D01*
X141601961Y-116036666D02*
X141506723Y-116084285D01*
X141506723Y-116084285D02*
X141316247Y-116131904D01*
X141316247Y-116131904D02*
X141173390Y-116131904D01*
X141173390Y-116131904D02*
X140982914Y-116084285D01*
X140982914Y-116084285D02*
X140887676Y-116036666D01*
X140887676Y-116036666D02*
X140792438Y-115941428D01*
X140792438Y-115941428D02*
X140744819Y-115798571D01*
X140744819Y-115798571D02*
X140744819Y-115703333D01*
X140744819Y-115703333D02*
X140792438Y-115560476D01*
X140792438Y-115560476D02*
X140840057Y-115512857D01*
X141744819Y-114560476D02*
X141744819Y-115131904D01*
X141744819Y-114846190D02*
X140744819Y-114846190D01*
X140744819Y-114846190D02*
X140887676Y-114941428D01*
X140887676Y-114941428D02*
X140982914Y-115036666D01*
X140982914Y-115036666D02*
X141030533Y-115131904D01*
X141173390Y-113989047D02*
X141125771Y-114084285D01*
X141125771Y-114084285D02*
X141078152Y-114131904D01*
X141078152Y-114131904D02*
X140982914Y-114179523D01*
X140982914Y-114179523D02*
X140935295Y-114179523D01*
X140935295Y-114179523D02*
X140840057Y-114131904D01*
X140840057Y-114131904D02*
X140792438Y-114084285D01*
X140792438Y-114084285D02*
X140744819Y-113989047D01*
X140744819Y-113989047D02*
X140744819Y-113798571D01*
X140744819Y-113798571D02*
X140792438Y-113703333D01*
X140792438Y-113703333D02*
X140840057Y-113655714D01*
X140840057Y-113655714D02*
X140935295Y-113608095D01*
X140935295Y-113608095D02*
X140982914Y-113608095D01*
X140982914Y-113608095D02*
X141078152Y-113655714D01*
X141078152Y-113655714D02*
X141125771Y-113703333D01*
X141125771Y-113703333D02*
X141173390Y-113798571D01*
X141173390Y-113798571D02*
X141173390Y-113989047D01*
X141173390Y-113989047D02*
X141221009Y-114084285D01*
X141221009Y-114084285D02*
X141268628Y-114131904D01*
X141268628Y-114131904D02*
X141363866Y-114179523D01*
X141363866Y-114179523D02*
X141554342Y-114179523D01*
X141554342Y-114179523D02*
X141649580Y-114131904D01*
X141649580Y-114131904D02*
X141697200Y-114084285D01*
X141697200Y-114084285D02*
X141744819Y-113989047D01*
X141744819Y-113989047D02*
X141744819Y-113798571D01*
X141744819Y-113798571D02*
X141697200Y-113703333D01*
X141697200Y-113703333D02*
X141649580Y-113655714D01*
X141649580Y-113655714D02*
X141554342Y-113608095D01*
X141554342Y-113608095D02*
X141363866Y-113608095D01*
X141363866Y-113608095D02*
X141268628Y-113655714D01*
X141268628Y-113655714D02*
X141221009Y-113703333D01*
X141221009Y-113703333D02*
X141173390Y-113798571D01*
X142208095Y-118734819D02*
X142208095Y-119544342D01*
X142208095Y-119544342D02*
X142255714Y-119639580D01*
X142255714Y-119639580D02*
X142303333Y-119687200D01*
X142303333Y-119687200D02*
X142398571Y-119734819D01*
X142398571Y-119734819D02*
X142589047Y-119734819D01*
X142589047Y-119734819D02*
X142684285Y-119687200D01*
X142684285Y-119687200D02*
X142731904Y-119639580D01*
X142731904Y-119639580D02*
X142779523Y-119544342D01*
X142779523Y-119544342D02*
X142779523Y-118734819D01*
X143160476Y-118734819D02*
X143779523Y-118734819D01*
X143779523Y-118734819D02*
X143446190Y-119115771D01*
X143446190Y-119115771D02*
X143589047Y-119115771D01*
X143589047Y-119115771D02*
X143684285Y-119163390D01*
X143684285Y-119163390D02*
X143731904Y-119211009D01*
X143731904Y-119211009D02*
X143779523Y-119306247D01*
X143779523Y-119306247D02*
X143779523Y-119544342D01*
X143779523Y-119544342D02*
X143731904Y-119639580D01*
X143731904Y-119639580D02*
X143684285Y-119687200D01*
X143684285Y-119687200D02*
X143589047Y-119734819D01*
X143589047Y-119734819D02*
X143303333Y-119734819D01*
X143303333Y-119734819D02*
X143208095Y-119687200D01*
X143208095Y-119687200D02*
X143160476Y-119639580D01*
X144077142Y-117179580D02*
X144029523Y-117227200D01*
X144029523Y-117227200D02*
X143886666Y-117274819D01*
X143886666Y-117274819D02*
X143791428Y-117274819D01*
X143791428Y-117274819D02*
X143648571Y-117227200D01*
X143648571Y-117227200D02*
X143553333Y-117131961D01*
X143553333Y-117131961D02*
X143505714Y-117036723D01*
X143505714Y-117036723D02*
X143458095Y-116846247D01*
X143458095Y-116846247D02*
X143458095Y-116703390D01*
X143458095Y-116703390D02*
X143505714Y-116512914D01*
X143505714Y-116512914D02*
X143553333Y-116417676D01*
X143553333Y-116417676D02*
X143648571Y-116322438D01*
X143648571Y-116322438D02*
X143791428Y-116274819D01*
X143791428Y-116274819D02*
X143886666Y-116274819D01*
X143886666Y-116274819D02*
X144029523Y-116322438D01*
X144029523Y-116322438D02*
X144077142Y-116370057D01*
X145029523Y-117274819D02*
X144458095Y-117274819D01*
X144743809Y-117274819D02*
X144743809Y-116274819D01*
X144743809Y-116274819D02*
X144648571Y-116417676D01*
X144648571Y-116417676D02*
X144553333Y-116512914D01*
X144553333Y-116512914D02*
X144458095Y-116560533D01*
X145886666Y-116274819D02*
X145696190Y-116274819D01*
X145696190Y-116274819D02*
X145600952Y-116322438D01*
X145600952Y-116322438D02*
X145553333Y-116370057D01*
X145553333Y-116370057D02*
X145458095Y-116512914D01*
X145458095Y-116512914D02*
X145410476Y-116703390D01*
X145410476Y-116703390D02*
X145410476Y-117084342D01*
X145410476Y-117084342D02*
X145458095Y-117179580D01*
X145458095Y-117179580D02*
X145505714Y-117227200D01*
X145505714Y-117227200D02*
X145600952Y-117274819D01*
X145600952Y-117274819D02*
X145791428Y-117274819D01*
X145791428Y-117274819D02*
X145886666Y-117227200D01*
X145886666Y-117227200D02*
X145934285Y-117179580D01*
X145934285Y-117179580D02*
X145981904Y-117084342D01*
X145981904Y-117084342D02*
X145981904Y-116846247D01*
X145981904Y-116846247D02*
X145934285Y-116751009D01*
X145934285Y-116751009D02*
X145886666Y-116703390D01*
X145886666Y-116703390D02*
X145791428Y-116655771D01*
X145791428Y-116655771D02*
X145600952Y-116655771D01*
X145600952Y-116655771D02*
X145505714Y-116703390D01*
X145505714Y-116703390D02*
X145458095Y-116751009D01*
X145458095Y-116751009D02*
X145410476Y-116846247D01*
X130204819Y-123246666D02*
X130204819Y-123722856D01*
X130204819Y-123722856D02*
X129204819Y-123722856D01*
X129204819Y-123008570D02*
X129204819Y-122389523D01*
X129204819Y-122389523D02*
X129585771Y-122722856D01*
X129585771Y-122722856D02*
X129585771Y-122579999D01*
X129585771Y-122579999D02*
X129633390Y-122484761D01*
X129633390Y-122484761D02*
X129681009Y-122437142D01*
X129681009Y-122437142D02*
X129776247Y-122389523D01*
X129776247Y-122389523D02*
X130014342Y-122389523D01*
X130014342Y-122389523D02*
X130109580Y-122437142D01*
X130109580Y-122437142D02*
X130157200Y-122484761D01*
X130157200Y-122484761D02*
X130204819Y-122579999D01*
X130204819Y-122579999D02*
X130204819Y-122865713D01*
X130204819Y-122865713D02*
X130157200Y-122960951D01*
X130157200Y-122960951D02*
X130109580Y-123008570D01*
D11*
X133549999Y-112601966D02*
X133516666Y-112635300D01*
X133516666Y-112635300D02*
X133416666Y-112668633D01*
X133416666Y-112668633D02*
X133349999Y-112668633D01*
X133349999Y-112668633D02*
X133249999Y-112635300D01*
X133249999Y-112635300D02*
X133183333Y-112568633D01*
X133183333Y-112568633D02*
X133149999Y-112501966D01*
X133149999Y-112501966D02*
X133116666Y-112368633D01*
X133116666Y-112368633D02*
X133116666Y-112268633D01*
X133116666Y-112268633D02*
X133149999Y-112135300D01*
X133149999Y-112135300D02*
X133183333Y-112068633D01*
X133183333Y-112068633D02*
X133249999Y-112001966D01*
X133249999Y-112001966D02*
X133349999Y-111968633D01*
X133349999Y-111968633D02*
X133416666Y-111968633D01*
X133416666Y-111968633D02*
X133516666Y-112001966D01*
X133516666Y-112001966D02*
X133549999Y-112035300D01*
X134149999Y-111968633D02*
X134016666Y-111968633D01*
X134016666Y-111968633D02*
X133949999Y-112001966D01*
X133949999Y-112001966D02*
X133916666Y-112035300D01*
X133916666Y-112035300D02*
X133849999Y-112135300D01*
X133849999Y-112135300D02*
X133816666Y-112268633D01*
X133816666Y-112268633D02*
X133816666Y-112535300D01*
X133816666Y-112535300D02*
X133849999Y-112601966D01*
X133849999Y-112601966D02*
X133883333Y-112635300D01*
X133883333Y-112635300D02*
X133949999Y-112668633D01*
X133949999Y-112668633D02*
X134083333Y-112668633D01*
X134083333Y-112668633D02*
X134149999Y-112635300D01*
X134149999Y-112635300D02*
X134183333Y-112601966D01*
X134183333Y-112601966D02*
X134216666Y-112535300D01*
X134216666Y-112535300D02*
X134216666Y-112368633D01*
X134216666Y-112368633D02*
X134183333Y-112301966D01*
X134183333Y-112301966D02*
X134149999Y-112268633D01*
X134149999Y-112268633D02*
X134083333Y-112235300D01*
X134083333Y-112235300D02*
X133949999Y-112235300D01*
X133949999Y-112235300D02*
X133883333Y-112268633D01*
X133883333Y-112268633D02*
X133849999Y-112301966D01*
X133849999Y-112301966D02*
X133816666Y-112368633D01*
X134850000Y-111968633D02*
X134516666Y-111968633D01*
X134516666Y-111968633D02*
X134483333Y-112301966D01*
X134483333Y-112301966D02*
X134516666Y-112268633D01*
X134516666Y-112268633D02*
X134583333Y-112235300D01*
X134583333Y-112235300D02*
X134750000Y-112235300D01*
X134750000Y-112235300D02*
X134816666Y-112268633D01*
X134816666Y-112268633D02*
X134850000Y-112301966D01*
X134850000Y-112301966D02*
X134883333Y-112368633D01*
X134883333Y-112368633D02*
X134883333Y-112535300D01*
X134883333Y-112535300D02*
X134850000Y-112601966D01*
X134850000Y-112601966D02*
X134816666Y-112635300D01*
X134816666Y-112635300D02*
X134750000Y-112668633D01*
X134750000Y-112668633D02*
X134583333Y-112668633D01*
X134583333Y-112668633D02*
X134516666Y-112635300D01*
X134516666Y-112635300D02*
X134483333Y-112601966D01*
D10*
X146463333Y-126094819D02*
X146130000Y-125618628D01*
X145891905Y-126094819D02*
X145891905Y-125094819D01*
X145891905Y-125094819D02*
X146272857Y-125094819D01*
X146272857Y-125094819D02*
X146368095Y-125142438D01*
X146368095Y-125142438D02*
X146415714Y-125190057D01*
X146415714Y-125190057D02*
X146463333Y-125285295D01*
X146463333Y-125285295D02*
X146463333Y-125428152D01*
X146463333Y-125428152D02*
X146415714Y-125523390D01*
X146415714Y-125523390D02*
X146368095Y-125571009D01*
X146368095Y-125571009D02*
X146272857Y-125618628D01*
X146272857Y-125618628D02*
X145891905Y-125618628D01*
X146939524Y-126094819D02*
X147130000Y-126094819D01*
X147130000Y-126094819D02*
X147225238Y-126047200D01*
X147225238Y-126047200D02*
X147272857Y-125999580D01*
X147272857Y-125999580D02*
X147368095Y-125856723D01*
X147368095Y-125856723D02*
X147415714Y-125666247D01*
X147415714Y-125666247D02*
X147415714Y-125285295D01*
X147415714Y-125285295D02*
X147368095Y-125190057D01*
X147368095Y-125190057D02*
X147320476Y-125142438D01*
X147320476Y-125142438D02*
X147225238Y-125094819D01*
X147225238Y-125094819D02*
X147034762Y-125094819D01*
X147034762Y-125094819D02*
X146939524Y-125142438D01*
X146939524Y-125142438D02*
X146891905Y-125190057D01*
X146891905Y-125190057D02*
X146844286Y-125285295D01*
X146844286Y-125285295D02*
X146844286Y-125523390D01*
X146844286Y-125523390D02*
X146891905Y-125618628D01*
X146891905Y-125618628D02*
X146939524Y-125666247D01*
X146939524Y-125666247D02*
X147034762Y-125713866D01*
X147034762Y-125713866D02*
X147225238Y-125713866D01*
X147225238Y-125713866D02*
X147320476Y-125666247D01*
X147320476Y-125666247D02*
X147368095Y-125618628D01*
X147368095Y-125618628D02*
X147415714Y-125523390D01*
X151139580Y-99395357D02*
X151187200Y-99442976D01*
X151187200Y-99442976D02*
X151234819Y-99585833D01*
X151234819Y-99585833D02*
X151234819Y-99681071D01*
X151234819Y-99681071D02*
X151187200Y-99823928D01*
X151187200Y-99823928D02*
X151091961Y-99919166D01*
X151091961Y-99919166D02*
X150996723Y-99966785D01*
X150996723Y-99966785D02*
X150806247Y-100014404D01*
X150806247Y-100014404D02*
X150663390Y-100014404D01*
X150663390Y-100014404D02*
X150472914Y-99966785D01*
X150472914Y-99966785D02*
X150377676Y-99919166D01*
X150377676Y-99919166D02*
X150282438Y-99823928D01*
X150282438Y-99823928D02*
X150234819Y-99681071D01*
X150234819Y-99681071D02*
X150234819Y-99585833D01*
X150234819Y-99585833D02*
X150282438Y-99442976D01*
X150282438Y-99442976D02*
X150330057Y-99395357D01*
X150234819Y-98490595D02*
X150234819Y-98966785D01*
X150234819Y-98966785D02*
X150711009Y-99014404D01*
X150711009Y-99014404D02*
X150663390Y-98966785D01*
X150663390Y-98966785D02*
X150615771Y-98871547D01*
X150615771Y-98871547D02*
X150615771Y-98633452D01*
X150615771Y-98633452D02*
X150663390Y-98538214D01*
X150663390Y-98538214D02*
X150711009Y-98490595D01*
X150711009Y-98490595D02*
X150806247Y-98442976D01*
X150806247Y-98442976D02*
X151044342Y-98442976D01*
X151044342Y-98442976D02*
X151139580Y-98490595D01*
X151139580Y-98490595D02*
X151187200Y-98538214D01*
X151187200Y-98538214D02*
X151234819Y-98633452D01*
X151234819Y-98633452D02*
X151234819Y-98871547D01*
X151234819Y-98871547D02*
X151187200Y-98966785D01*
X151187200Y-98966785D02*
X151139580Y-99014404D01*
X150234819Y-97585833D02*
X150234819Y-97776309D01*
X150234819Y-97776309D02*
X150282438Y-97871547D01*
X150282438Y-97871547D02*
X150330057Y-97919166D01*
X150330057Y-97919166D02*
X150472914Y-98014404D01*
X150472914Y-98014404D02*
X150663390Y-98062023D01*
X150663390Y-98062023D02*
X151044342Y-98062023D01*
X151044342Y-98062023D02*
X151139580Y-98014404D01*
X151139580Y-98014404D02*
X151187200Y-97966785D01*
X151187200Y-97966785D02*
X151234819Y-97871547D01*
X151234819Y-97871547D02*
X151234819Y-97681071D01*
X151234819Y-97681071D02*
X151187200Y-97585833D01*
X151187200Y-97585833D02*
X151139580Y-97538214D01*
X151139580Y-97538214D02*
X151044342Y-97490595D01*
X151044342Y-97490595D02*
X150806247Y-97490595D01*
X150806247Y-97490595D02*
X150711009Y-97538214D01*
X150711009Y-97538214D02*
X150663390Y-97585833D01*
X150663390Y-97585833D02*
X150615771Y-97681071D01*
X150615771Y-97681071D02*
X150615771Y-97871547D01*
X150615771Y-97871547D02*
X150663390Y-97966785D01*
X150663390Y-97966785D02*
X150711009Y-98014404D01*
X150711009Y-98014404D02*
X150806247Y-98062023D01*
X133568095Y-82054819D02*
X133568095Y-82864342D01*
X133568095Y-82864342D02*
X133615714Y-82959580D01*
X133615714Y-82959580D02*
X133663333Y-83007200D01*
X133663333Y-83007200D02*
X133758571Y-83054819D01*
X133758571Y-83054819D02*
X133949047Y-83054819D01*
X133949047Y-83054819D02*
X134044285Y-83007200D01*
X134044285Y-83007200D02*
X134091904Y-82959580D01*
X134091904Y-82959580D02*
X134139523Y-82864342D01*
X134139523Y-82864342D02*
X134139523Y-82054819D01*
X134568095Y-82150057D02*
X134615714Y-82102438D01*
X134615714Y-82102438D02*
X134710952Y-82054819D01*
X134710952Y-82054819D02*
X134949047Y-82054819D01*
X134949047Y-82054819D02*
X135044285Y-82102438D01*
X135044285Y-82102438D02*
X135091904Y-82150057D01*
X135091904Y-82150057D02*
X135139523Y-82245295D01*
X135139523Y-82245295D02*
X135139523Y-82340533D01*
X135139523Y-82340533D02*
X135091904Y-82483390D01*
X135091904Y-82483390D02*
X134520476Y-83054819D01*
X134520476Y-83054819D02*
X135139523Y-83054819D01*
X145854642Y-127574819D02*
X145521309Y-127098628D01*
X145283214Y-127574819D02*
X145283214Y-126574819D01*
X145283214Y-126574819D02*
X145664166Y-126574819D01*
X145664166Y-126574819D02*
X145759404Y-126622438D01*
X145759404Y-126622438D02*
X145807023Y-126670057D01*
X145807023Y-126670057D02*
X145854642Y-126765295D01*
X145854642Y-126765295D02*
X145854642Y-126908152D01*
X145854642Y-126908152D02*
X145807023Y-127003390D01*
X145807023Y-127003390D02*
X145759404Y-127051009D01*
X145759404Y-127051009D02*
X145664166Y-127098628D01*
X145664166Y-127098628D02*
X145283214Y-127098628D01*
X146235595Y-126670057D02*
X146283214Y-126622438D01*
X146283214Y-126622438D02*
X146378452Y-126574819D01*
X146378452Y-126574819D02*
X146616547Y-126574819D01*
X146616547Y-126574819D02*
X146711785Y-126622438D01*
X146711785Y-126622438D02*
X146759404Y-126670057D01*
X146759404Y-126670057D02*
X146807023Y-126765295D01*
X146807023Y-126765295D02*
X146807023Y-126860533D01*
X146807023Y-126860533D02*
X146759404Y-127003390D01*
X146759404Y-127003390D02*
X146187976Y-127574819D01*
X146187976Y-127574819D02*
X146807023Y-127574819D01*
X147759404Y-127574819D02*
X147187976Y-127574819D01*
X147473690Y-127574819D02*
X147473690Y-126574819D01*
X147473690Y-126574819D02*
X147378452Y-126717676D01*
X147378452Y-126717676D02*
X147283214Y-126812914D01*
X147283214Y-126812914D02*
X147187976Y-126860533D01*
X133714819Y-77663333D02*
X134429104Y-77663333D01*
X134429104Y-77663333D02*
X134571961Y-77710952D01*
X134571961Y-77710952D02*
X134667200Y-77806190D01*
X134667200Y-77806190D02*
X134714819Y-77949047D01*
X134714819Y-77949047D02*
X134714819Y-78044285D01*
X134714819Y-76663333D02*
X134714819Y-77234761D01*
X134714819Y-76949047D02*
X133714819Y-76949047D01*
X133714819Y-76949047D02*
X133857676Y-77044285D01*
X133857676Y-77044285D02*
X133952914Y-77139523D01*
X133952914Y-77139523D02*
X134000533Y-77234761D01*
X139111905Y-112019819D02*
X139683333Y-112019819D01*
X139397619Y-113019819D02*
X139397619Y-112019819D01*
X140016667Y-113019819D02*
X140016667Y-112019819D01*
X140016667Y-112019819D02*
X140397619Y-112019819D01*
X140397619Y-112019819D02*
X140492857Y-112067438D01*
X140492857Y-112067438D02*
X140540476Y-112115057D01*
X140540476Y-112115057D02*
X140588095Y-112210295D01*
X140588095Y-112210295D02*
X140588095Y-112353152D01*
X140588095Y-112353152D02*
X140540476Y-112448390D01*
X140540476Y-112448390D02*
X140492857Y-112496009D01*
X140492857Y-112496009D02*
X140397619Y-112543628D01*
X140397619Y-112543628D02*
X140016667Y-112543628D01*
X141540476Y-113019819D02*
X140969048Y-113019819D01*
X141254762Y-113019819D02*
X141254762Y-112019819D01*
X141254762Y-112019819D02*
X141159524Y-112162676D01*
X141159524Y-112162676D02*
X141064286Y-112257914D01*
X141064286Y-112257914D02*
X140969048Y-112305533D01*
X142159524Y-112019819D02*
X142254762Y-112019819D01*
X142254762Y-112019819D02*
X142350000Y-112067438D01*
X142350000Y-112067438D02*
X142397619Y-112115057D01*
X142397619Y-112115057D02*
X142445238Y-112210295D01*
X142445238Y-112210295D02*
X142492857Y-112400771D01*
X142492857Y-112400771D02*
X142492857Y-112638866D01*
X142492857Y-112638866D02*
X142445238Y-112829342D01*
X142445238Y-112829342D02*
X142397619Y-112924580D01*
X142397619Y-112924580D02*
X142350000Y-112972200D01*
X142350000Y-112972200D02*
X142254762Y-113019819D01*
X142254762Y-113019819D02*
X142159524Y-113019819D01*
X142159524Y-113019819D02*
X142064286Y-112972200D01*
X142064286Y-112972200D02*
X142016667Y-112924580D01*
X142016667Y-112924580D02*
X141969048Y-112829342D01*
X141969048Y-112829342D02*
X141921429Y-112638866D01*
X141921429Y-112638866D02*
X141921429Y-112400771D01*
X141921429Y-112400771D02*
X141969048Y-112210295D01*
X141969048Y-112210295D02*
X142016667Y-112115057D01*
X142016667Y-112115057D02*
X142064286Y-112067438D01*
X142064286Y-112067438D02*
X142159524Y-112019819D01*
D11*
X130651966Y-129290000D02*
X130685300Y-129323333D01*
X130685300Y-129323333D02*
X130718633Y-129423333D01*
X130718633Y-129423333D02*
X130718633Y-129490000D01*
X130718633Y-129490000D02*
X130685300Y-129590000D01*
X130685300Y-129590000D02*
X130618633Y-129656667D01*
X130618633Y-129656667D02*
X130551966Y-129690000D01*
X130551966Y-129690000D02*
X130418633Y-129723333D01*
X130418633Y-129723333D02*
X130318633Y-129723333D01*
X130318633Y-129723333D02*
X130185300Y-129690000D01*
X130185300Y-129690000D02*
X130118633Y-129656667D01*
X130118633Y-129656667D02*
X130051966Y-129590000D01*
X130051966Y-129590000D02*
X130018633Y-129490000D01*
X130018633Y-129490000D02*
X130018633Y-129423333D01*
X130018633Y-129423333D02*
X130051966Y-129323333D01*
X130051966Y-129323333D02*
X130085300Y-129290000D01*
X130718633Y-128623333D02*
X130718633Y-129023333D01*
X130718633Y-128823333D02*
X130018633Y-128823333D01*
X130018633Y-128823333D02*
X130118633Y-128890000D01*
X130118633Y-128890000D02*
X130185300Y-128956667D01*
X130185300Y-128956667D02*
X130218633Y-129023333D01*
X130718633Y-128290000D02*
X130718633Y-128156666D01*
X130718633Y-128156666D02*
X130685300Y-128090000D01*
X130685300Y-128090000D02*
X130651966Y-128056666D01*
X130651966Y-128056666D02*
X130551966Y-127990000D01*
X130551966Y-127990000D02*
X130418633Y-127956666D01*
X130418633Y-127956666D02*
X130151966Y-127956666D01*
X130151966Y-127956666D02*
X130085300Y-127990000D01*
X130085300Y-127990000D02*
X130051966Y-128023333D01*
X130051966Y-128023333D02*
X130018633Y-128090000D01*
X130018633Y-128090000D02*
X130018633Y-128223333D01*
X130018633Y-128223333D02*
X130051966Y-128290000D01*
X130051966Y-128290000D02*
X130085300Y-128323333D01*
X130085300Y-128323333D02*
X130151966Y-128356666D01*
X130151966Y-128356666D02*
X130318633Y-128356666D01*
X130318633Y-128356666D02*
X130385300Y-128323333D01*
X130385300Y-128323333D02*
X130418633Y-128290000D01*
X130418633Y-128290000D02*
X130451966Y-128223333D01*
X130451966Y-128223333D02*
X130451966Y-128090000D01*
X130451966Y-128090000D02*
X130418633Y-128023333D01*
X130418633Y-128023333D02*
X130385300Y-127990000D01*
X130385300Y-127990000D02*
X130318633Y-127956666D01*
D10*
X149828095Y-111324819D02*
X150399523Y-111324819D01*
X150113809Y-112324819D02*
X150113809Y-111324819D01*
X150732857Y-112324819D02*
X150732857Y-111324819D01*
X150732857Y-111324819D02*
X151113809Y-111324819D01*
X151113809Y-111324819D02*
X151209047Y-111372438D01*
X151209047Y-111372438D02*
X151256666Y-111420057D01*
X151256666Y-111420057D02*
X151304285Y-111515295D01*
X151304285Y-111515295D02*
X151304285Y-111658152D01*
X151304285Y-111658152D02*
X151256666Y-111753390D01*
X151256666Y-111753390D02*
X151209047Y-111801009D01*
X151209047Y-111801009D02*
X151113809Y-111848628D01*
X151113809Y-111848628D02*
X150732857Y-111848628D01*
X152209047Y-111324819D02*
X151732857Y-111324819D01*
X151732857Y-111324819D02*
X151685238Y-111801009D01*
X151685238Y-111801009D02*
X151732857Y-111753390D01*
X151732857Y-111753390D02*
X151828095Y-111705771D01*
X151828095Y-111705771D02*
X152066190Y-111705771D01*
X152066190Y-111705771D02*
X152161428Y-111753390D01*
X152161428Y-111753390D02*
X152209047Y-111801009D01*
X152209047Y-111801009D02*
X152256666Y-111896247D01*
X152256666Y-111896247D02*
X152256666Y-112134342D01*
X152256666Y-112134342D02*
X152209047Y-112229580D01*
X152209047Y-112229580D02*
X152161428Y-112277200D01*
X152161428Y-112277200D02*
X152066190Y-112324819D01*
X152066190Y-112324819D02*
X151828095Y-112324819D01*
X151828095Y-112324819D02*
X151732857Y-112277200D01*
X151732857Y-112277200D02*
X151685238Y-112229580D01*
X144187142Y-118399580D02*
X144139523Y-118447200D01*
X144139523Y-118447200D02*
X143996666Y-118494819D01*
X143996666Y-118494819D02*
X143901428Y-118494819D01*
X143901428Y-118494819D02*
X143758571Y-118447200D01*
X143758571Y-118447200D02*
X143663333Y-118351961D01*
X143663333Y-118351961D02*
X143615714Y-118256723D01*
X143615714Y-118256723D02*
X143568095Y-118066247D01*
X143568095Y-118066247D02*
X143568095Y-117923390D01*
X143568095Y-117923390D02*
X143615714Y-117732914D01*
X143615714Y-117732914D02*
X143663333Y-117637676D01*
X143663333Y-117637676D02*
X143758571Y-117542438D01*
X143758571Y-117542438D02*
X143901428Y-117494819D01*
X143901428Y-117494819D02*
X143996666Y-117494819D01*
X143996666Y-117494819D02*
X144139523Y-117542438D01*
X144139523Y-117542438D02*
X144187142Y-117590057D01*
X144568095Y-117590057D02*
X144615714Y-117542438D01*
X144615714Y-117542438D02*
X144710952Y-117494819D01*
X144710952Y-117494819D02*
X144949047Y-117494819D01*
X144949047Y-117494819D02*
X145044285Y-117542438D01*
X145044285Y-117542438D02*
X145091904Y-117590057D01*
X145091904Y-117590057D02*
X145139523Y-117685295D01*
X145139523Y-117685295D02*
X145139523Y-117780533D01*
X145139523Y-117780533D02*
X145091904Y-117923390D01*
X145091904Y-117923390D02*
X144520476Y-118494819D01*
X144520476Y-118494819D02*
X145139523Y-118494819D01*
X146091904Y-118494819D02*
X145520476Y-118494819D01*
X145806190Y-118494819D02*
X145806190Y-117494819D01*
X145806190Y-117494819D02*
X145710952Y-117637676D01*
X145710952Y-117637676D02*
X145615714Y-117732914D01*
X145615714Y-117732914D02*
X145520476Y-117780533D01*
X130748095Y-98394819D02*
X131319523Y-98394819D01*
X131033809Y-99394819D02*
X131033809Y-98394819D01*
X131652857Y-99394819D02*
X131652857Y-98394819D01*
X131652857Y-98394819D02*
X132033809Y-98394819D01*
X132033809Y-98394819D02*
X132129047Y-98442438D01*
X132129047Y-98442438D02*
X132176666Y-98490057D01*
X132176666Y-98490057D02*
X132224285Y-98585295D01*
X132224285Y-98585295D02*
X132224285Y-98728152D01*
X132224285Y-98728152D02*
X132176666Y-98823390D01*
X132176666Y-98823390D02*
X132129047Y-98871009D01*
X132129047Y-98871009D02*
X132033809Y-98918628D01*
X132033809Y-98918628D02*
X131652857Y-98918628D01*
X133081428Y-98728152D02*
X133081428Y-99394819D01*
X132843333Y-98347200D02*
X132605238Y-99061485D01*
X132605238Y-99061485D02*
X133224285Y-99061485D01*
X143019580Y-115472857D02*
X143067200Y-115520476D01*
X143067200Y-115520476D02*
X143114819Y-115663333D01*
X143114819Y-115663333D02*
X143114819Y-115758571D01*
X143114819Y-115758571D02*
X143067200Y-115901428D01*
X143067200Y-115901428D02*
X142971961Y-115996666D01*
X142971961Y-115996666D02*
X142876723Y-116044285D01*
X142876723Y-116044285D02*
X142686247Y-116091904D01*
X142686247Y-116091904D02*
X142543390Y-116091904D01*
X142543390Y-116091904D02*
X142352914Y-116044285D01*
X142352914Y-116044285D02*
X142257676Y-115996666D01*
X142257676Y-115996666D02*
X142162438Y-115901428D01*
X142162438Y-115901428D02*
X142114819Y-115758571D01*
X142114819Y-115758571D02*
X142114819Y-115663333D01*
X142114819Y-115663333D02*
X142162438Y-115520476D01*
X142162438Y-115520476D02*
X142210057Y-115472857D01*
X142114819Y-115139523D02*
X142114819Y-114520476D01*
X142114819Y-114520476D02*
X142495771Y-114853809D01*
X142495771Y-114853809D02*
X142495771Y-114710952D01*
X142495771Y-114710952D02*
X142543390Y-114615714D01*
X142543390Y-114615714D02*
X142591009Y-114568095D01*
X142591009Y-114568095D02*
X142686247Y-114520476D01*
X142686247Y-114520476D02*
X142924342Y-114520476D01*
X142924342Y-114520476D02*
X143019580Y-114568095D01*
X143019580Y-114568095D02*
X143067200Y-114615714D01*
X143067200Y-114615714D02*
X143114819Y-114710952D01*
X143114819Y-114710952D02*
X143114819Y-114996666D01*
X143114819Y-114996666D02*
X143067200Y-115091904D01*
X143067200Y-115091904D02*
X143019580Y-115139523D01*
X142210057Y-114139523D02*
X142162438Y-114091904D01*
X142162438Y-114091904D02*
X142114819Y-113996666D01*
X142114819Y-113996666D02*
X142114819Y-113758571D01*
X142114819Y-113758571D02*
X142162438Y-113663333D01*
X142162438Y-113663333D02*
X142210057Y-113615714D01*
X142210057Y-113615714D02*
X142305295Y-113568095D01*
X142305295Y-113568095D02*
X142400533Y-113568095D01*
X142400533Y-113568095D02*
X142543390Y-113615714D01*
X142543390Y-113615714D02*
X143114819Y-114187142D01*
X143114819Y-114187142D02*
X143114819Y-113568095D01*
D11*
X129031966Y-121010000D02*
X129065300Y-121043333D01*
X129065300Y-121043333D02*
X129098633Y-121143333D01*
X129098633Y-121143333D02*
X129098633Y-121210000D01*
X129098633Y-121210000D02*
X129065300Y-121310000D01*
X129065300Y-121310000D02*
X128998633Y-121376667D01*
X128998633Y-121376667D02*
X128931966Y-121410000D01*
X128931966Y-121410000D02*
X128798633Y-121443333D01*
X128798633Y-121443333D02*
X128698633Y-121443333D01*
X128698633Y-121443333D02*
X128565300Y-121410000D01*
X128565300Y-121410000D02*
X128498633Y-121376667D01*
X128498633Y-121376667D02*
X128431966Y-121310000D01*
X128431966Y-121310000D02*
X128398633Y-121210000D01*
X128398633Y-121210000D02*
X128398633Y-121143333D01*
X128398633Y-121143333D02*
X128431966Y-121043333D01*
X128431966Y-121043333D02*
X128465300Y-121010000D01*
X128398633Y-120776667D02*
X128398633Y-120343333D01*
X128398633Y-120343333D02*
X128665300Y-120576667D01*
X128665300Y-120576667D02*
X128665300Y-120476667D01*
X128665300Y-120476667D02*
X128698633Y-120410000D01*
X128698633Y-120410000D02*
X128731966Y-120376667D01*
X128731966Y-120376667D02*
X128798633Y-120343333D01*
X128798633Y-120343333D02*
X128965300Y-120343333D01*
X128965300Y-120343333D02*
X129031966Y-120376667D01*
X129031966Y-120376667D02*
X129065300Y-120410000D01*
X129065300Y-120410000D02*
X129098633Y-120476667D01*
X129098633Y-120476667D02*
X129098633Y-120676667D01*
X129098633Y-120676667D02*
X129065300Y-120743333D01*
X129065300Y-120743333D02*
X129031966Y-120776667D01*
X128398633Y-120110000D02*
X128398633Y-119643333D01*
X128398633Y-119643333D02*
X129098633Y-119943333D01*
D10*
X136389642Y-133209580D02*
X136342023Y-133257200D01*
X136342023Y-133257200D02*
X136199166Y-133304819D01*
X136199166Y-133304819D02*
X136103928Y-133304819D01*
X136103928Y-133304819D02*
X135961071Y-133257200D01*
X135961071Y-133257200D02*
X135865833Y-133161961D01*
X135865833Y-133161961D02*
X135818214Y-133066723D01*
X135818214Y-133066723D02*
X135770595Y-132876247D01*
X135770595Y-132876247D02*
X135770595Y-132733390D01*
X135770595Y-132733390D02*
X135818214Y-132542914D01*
X135818214Y-132542914D02*
X135865833Y-132447676D01*
X135865833Y-132447676D02*
X135961071Y-132352438D01*
X135961071Y-132352438D02*
X136103928Y-132304819D01*
X136103928Y-132304819D02*
X136199166Y-132304819D01*
X136199166Y-132304819D02*
X136342023Y-132352438D01*
X136342023Y-132352438D02*
X136389642Y-132400057D01*
X136722976Y-132304819D02*
X137342023Y-132304819D01*
X137342023Y-132304819D02*
X137008690Y-132685771D01*
X137008690Y-132685771D02*
X137151547Y-132685771D01*
X137151547Y-132685771D02*
X137246785Y-132733390D01*
X137246785Y-132733390D02*
X137294404Y-132781009D01*
X137294404Y-132781009D02*
X137342023Y-132876247D01*
X137342023Y-132876247D02*
X137342023Y-133114342D01*
X137342023Y-133114342D02*
X137294404Y-133209580D01*
X137294404Y-133209580D02*
X137246785Y-133257200D01*
X137246785Y-133257200D02*
X137151547Y-133304819D01*
X137151547Y-133304819D02*
X136865833Y-133304819D01*
X136865833Y-133304819D02*
X136770595Y-133257200D01*
X136770595Y-133257200D02*
X136722976Y-133209580D01*
X137818214Y-133304819D02*
X138008690Y-133304819D01*
X138008690Y-133304819D02*
X138103928Y-133257200D01*
X138103928Y-133257200D02*
X138151547Y-133209580D01*
X138151547Y-133209580D02*
X138246785Y-133066723D01*
X138246785Y-133066723D02*
X138294404Y-132876247D01*
X138294404Y-132876247D02*
X138294404Y-132495295D01*
X138294404Y-132495295D02*
X138246785Y-132400057D01*
X138246785Y-132400057D02*
X138199166Y-132352438D01*
X138199166Y-132352438D02*
X138103928Y-132304819D01*
X138103928Y-132304819D02*
X137913452Y-132304819D01*
X137913452Y-132304819D02*
X137818214Y-132352438D01*
X137818214Y-132352438D02*
X137770595Y-132400057D01*
X137770595Y-132400057D02*
X137722976Y-132495295D01*
X137722976Y-132495295D02*
X137722976Y-132733390D01*
X137722976Y-132733390D02*
X137770595Y-132828628D01*
X137770595Y-132828628D02*
X137818214Y-132876247D01*
X137818214Y-132876247D02*
X137913452Y-132923866D01*
X137913452Y-132923866D02*
X138103928Y-132923866D01*
X138103928Y-132923866D02*
X138199166Y-132876247D01*
X138199166Y-132876247D02*
X138246785Y-132828628D01*
X138246785Y-132828628D02*
X138294404Y-132733390D01*
X129844819Y-115618094D02*
X128844819Y-115618094D01*
X128844819Y-115618094D02*
X128844819Y-115379999D01*
X128844819Y-115379999D02*
X128892438Y-115237142D01*
X128892438Y-115237142D02*
X128987676Y-115141904D01*
X128987676Y-115141904D02*
X129082914Y-115094285D01*
X129082914Y-115094285D02*
X129273390Y-115046666D01*
X129273390Y-115046666D02*
X129416247Y-115046666D01*
X129416247Y-115046666D02*
X129606723Y-115094285D01*
X129606723Y-115094285D02*
X129701961Y-115141904D01*
X129701961Y-115141904D02*
X129797200Y-115237142D01*
X129797200Y-115237142D02*
X129844819Y-115379999D01*
X129844819Y-115379999D02*
X129844819Y-115618094D01*
X129178152Y-114189523D02*
X129844819Y-114189523D01*
X128797200Y-114427618D02*
X129511485Y-114665713D01*
X129511485Y-114665713D02*
X129511485Y-114046666D01*
X128491666Y-112319819D02*
X128491666Y-113034104D01*
X128491666Y-113034104D02*
X128444047Y-113176961D01*
X128444047Y-113176961D02*
X128348809Y-113272200D01*
X128348809Y-113272200D02*
X128205952Y-113319819D01*
X128205952Y-113319819D02*
X128110714Y-113319819D01*
X128872619Y-112319819D02*
X129491666Y-112319819D01*
X129491666Y-112319819D02*
X129158333Y-112700771D01*
X129158333Y-112700771D02*
X129301190Y-112700771D01*
X129301190Y-112700771D02*
X129396428Y-112748390D01*
X129396428Y-112748390D02*
X129444047Y-112796009D01*
X129444047Y-112796009D02*
X129491666Y-112891247D01*
X129491666Y-112891247D02*
X129491666Y-113129342D01*
X129491666Y-113129342D02*
X129444047Y-113224580D01*
X129444047Y-113224580D02*
X129396428Y-113272200D01*
X129396428Y-113272200D02*
X129301190Y-113319819D01*
X129301190Y-113319819D02*
X129015476Y-113319819D01*
X129015476Y-113319819D02*
X128920238Y-113272200D01*
X128920238Y-113272200D02*
X128872619Y-113224580D01*
X139774819Y-109431904D02*
X140584342Y-109431904D01*
X140584342Y-109431904D02*
X140679580Y-109384285D01*
X140679580Y-109384285D02*
X140727200Y-109336666D01*
X140727200Y-109336666D02*
X140774819Y-109241428D01*
X140774819Y-109241428D02*
X140774819Y-109050952D01*
X140774819Y-109050952D02*
X140727200Y-108955714D01*
X140727200Y-108955714D02*
X140679580Y-108908095D01*
X140679580Y-108908095D02*
X140584342Y-108860476D01*
X140584342Y-108860476D02*
X139774819Y-108860476D01*
X140108152Y-107955714D02*
X140774819Y-107955714D01*
X139727200Y-108193809D02*
X140441485Y-108431904D01*
X140441485Y-108431904D02*
X140441485Y-107812857D01*
X150486905Y-126444819D02*
X150486905Y-125444819D01*
X150486905Y-125444819D02*
X150725000Y-125444819D01*
X150725000Y-125444819D02*
X150867857Y-125492438D01*
X150867857Y-125492438D02*
X150963095Y-125587676D01*
X150963095Y-125587676D02*
X151010714Y-125682914D01*
X151010714Y-125682914D02*
X151058333Y-125873390D01*
X151058333Y-125873390D02*
X151058333Y-126016247D01*
X151058333Y-126016247D02*
X151010714Y-126206723D01*
X151010714Y-126206723D02*
X150963095Y-126301961D01*
X150963095Y-126301961D02*
X150867857Y-126397200D01*
X150867857Y-126397200D02*
X150725000Y-126444819D01*
X150725000Y-126444819D02*
X150486905Y-126444819D01*
X151391667Y-125444819D02*
X152010714Y-125444819D01*
X152010714Y-125444819D02*
X151677381Y-125825771D01*
X151677381Y-125825771D02*
X151820238Y-125825771D01*
X151820238Y-125825771D02*
X151915476Y-125873390D01*
X151915476Y-125873390D02*
X151963095Y-125921009D01*
X151963095Y-125921009D02*
X152010714Y-126016247D01*
X152010714Y-126016247D02*
X152010714Y-126254342D01*
X152010714Y-126254342D02*
X151963095Y-126349580D01*
X151963095Y-126349580D02*
X151915476Y-126397200D01*
X151915476Y-126397200D02*
X151820238Y-126444819D01*
X151820238Y-126444819D02*
X151534524Y-126444819D01*
X151534524Y-126444819D02*
X151439286Y-126397200D01*
X151439286Y-126397200D02*
X151391667Y-126349580D01*
X145732142Y-114344819D02*
X145398809Y-113868628D01*
X145160714Y-114344819D02*
X145160714Y-113344819D01*
X145160714Y-113344819D02*
X145541666Y-113344819D01*
X145541666Y-113344819D02*
X145636904Y-113392438D01*
X145636904Y-113392438D02*
X145684523Y-113440057D01*
X145684523Y-113440057D02*
X145732142Y-113535295D01*
X145732142Y-113535295D02*
X145732142Y-113678152D01*
X145732142Y-113678152D02*
X145684523Y-113773390D01*
X145684523Y-113773390D02*
X145636904Y-113821009D01*
X145636904Y-113821009D02*
X145541666Y-113868628D01*
X145541666Y-113868628D02*
X145160714Y-113868628D01*
X146113095Y-113440057D02*
X146160714Y-113392438D01*
X146160714Y-113392438D02*
X146255952Y-113344819D01*
X146255952Y-113344819D02*
X146494047Y-113344819D01*
X146494047Y-113344819D02*
X146589285Y-113392438D01*
X146589285Y-113392438D02*
X146636904Y-113440057D01*
X146636904Y-113440057D02*
X146684523Y-113535295D01*
X146684523Y-113535295D02*
X146684523Y-113630533D01*
X146684523Y-113630533D02*
X146636904Y-113773390D01*
X146636904Y-113773390D02*
X146065476Y-114344819D01*
X146065476Y-114344819D02*
X146684523Y-114344819D01*
X147589285Y-113344819D02*
X147113095Y-113344819D01*
X147113095Y-113344819D02*
X147065476Y-113821009D01*
X147065476Y-113821009D02*
X147113095Y-113773390D01*
X147113095Y-113773390D02*
X147208333Y-113725771D01*
X147208333Y-113725771D02*
X147446428Y-113725771D01*
X147446428Y-113725771D02*
X147541666Y-113773390D01*
X147541666Y-113773390D02*
X147589285Y-113821009D01*
X147589285Y-113821009D02*
X147636904Y-113916247D01*
X147636904Y-113916247D02*
X147636904Y-114154342D01*
X147636904Y-114154342D02*
X147589285Y-114249580D01*
X147589285Y-114249580D02*
X147541666Y-114297200D01*
X147541666Y-114297200D02*
X147446428Y-114344819D01*
X147446428Y-114344819D02*
X147208333Y-114344819D01*
X147208333Y-114344819D02*
X147113095Y-114297200D01*
X147113095Y-114297200D02*
X147065476Y-114249580D01*
X142443333Y-131214819D02*
X141967143Y-131214819D01*
X141967143Y-131214819D02*
X141967143Y-130214819D01*
X143252857Y-130214819D02*
X142776667Y-130214819D01*
X142776667Y-130214819D02*
X142729048Y-130691009D01*
X142729048Y-130691009D02*
X142776667Y-130643390D01*
X142776667Y-130643390D02*
X142871905Y-130595771D01*
X142871905Y-130595771D02*
X143110000Y-130595771D01*
X143110000Y-130595771D02*
X143205238Y-130643390D01*
X143205238Y-130643390D02*
X143252857Y-130691009D01*
X143252857Y-130691009D02*
X143300476Y-130786247D01*
X143300476Y-130786247D02*
X143300476Y-131024342D01*
X143300476Y-131024342D02*
X143252857Y-131119580D01*
X143252857Y-131119580D02*
X143205238Y-131167200D01*
X143205238Y-131167200D02*
X143110000Y-131214819D01*
X143110000Y-131214819D02*
X142871905Y-131214819D01*
X142871905Y-131214819D02*
X142776667Y-131167200D01*
X142776667Y-131167200D02*
X142729048Y-131119580D01*
X146984819Y-82022857D02*
X146508628Y-82356190D01*
X146984819Y-82594285D02*
X145984819Y-82594285D01*
X145984819Y-82594285D02*
X145984819Y-82213333D01*
X145984819Y-82213333D02*
X146032438Y-82118095D01*
X146032438Y-82118095D02*
X146080057Y-82070476D01*
X146080057Y-82070476D02*
X146175295Y-82022857D01*
X146175295Y-82022857D02*
X146318152Y-82022857D01*
X146318152Y-82022857D02*
X146413390Y-82070476D01*
X146413390Y-82070476D02*
X146461009Y-82118095D01*
X146461009Y-82118095D02*
X146508628Y-82213333D01*
X146508628Y-82213333D02*
X146508628Y-82594285D01*
X146984819Y-81070476D02*
X146984819Y-81641904D01*
X146984819Y-81356190D02*
X145984819Y-81356190D01*
X145984819Y-81356190D02*
X146127676Y-81451428D01*
X146127676Y-81451428D02*
X146222914Y-81546666D01*
X146222914Y-81546666D02*
X146270533Y-81641904D01*
X145984819Y-80213333D02*
X145984819Y-80403809D01*
X145984819Y-80403809D02*
X146032438Y-80499047D01*
X146032438Y-80499047D02*
X146080057Y-80546666D01*
X146080057Y-80546666D02*
X146222914Y-80641904D01*
X146222914Y-80641904D02*
X146413390Y-80689523D01*
X146413390Y-80689523D02*
X146794342Y-80689523D01*
X146794342Y-80689523D02*
X146889580Y-80641904D01*
X146889580Y-80641904D02*
X146937200Y-80594285D01*
X146937200Y-80594285D02*
X146984819Y-80499047D01*
X146984819Y-80499047D02*
X146984819Y-80308571D01*
X146984819Y-80308571D02*
X146937200Y-80213333D01*
X146937200Y-80213333D02*
X146889580Y-80165714D01*
X146889580Y-80165714D02*
X146794342Y-80118095D01*
X146794342Y-80118095D02*
X146556247Y-80118095D01*
X146556247Y-80118095D02*
X146461009Y-80165714D01*
X146461009Y-80165714D02*
X146413390Y-80213333D01*
X146413390Y-80213333D02*
X146365771Y-80308571D01*
X146365771Y-80308571D02*
X146365771Y-80499047D01*
X146365771Y-80499047D02*
X146413390Y-80594285D01*
X146413390Y-80594285D02*
X146461009Y-80641904D01*
X146461009Y-80641904D02*
X146556247Y-80689523D01*
X144389580Y-115492857D02*
X144437200Y-115540476D01*
X144437200Y-115540476D02*
X144484819Y-115683333D01*
X144484819Y-115683333D02*
X144484819Y-115778571D01*
X144484819Y-115778571D02*
X144437200Y-115921428D01*
X144437200Y-115921428D02*
X144341961Y-116016666D01*
X144341961Y-116016666D02*
X144246723Y-116064285D01*
X144246723Y-116064285D02*
X144056247Y-116111904D01*
X144056247Y-116111904D02*
X143913390Y-116111904D01*
X143913390Y-116111904D02*
X143722914Y-116064285D01*
X143722914Y-116064285D02*
X143627676Y-116016666D01*
X143627676Y-116016666D02*
X143532438Y-115921428D01*
X143532438Y-115921428D02*
X143484819Y-115778571D01*
X143484819Y-115778571D02*
X143484819Y-115683333D01*
X143484819Y-115683333D02*
X143532438Y-115540476D01*
X143532438Y-115540476D02*
X143580057Y-115492857D01*
X143580057Y-115111904D02*
X143532438Y-115064285D01*
X143532438Y-115064285D02*
X143484819Y-114969047D01*
X143484819Y-114969047D02*
X143484819Y-114730952D01*
X143484819Y-114730952D02*
X143532438Y-114635714D01*
X143532438Y-114635714D02*
X143580057Y-114588095D01*
X143580057Y-114588095D02*
X143675295Y-114540476D01*
X143675295Y-114540476D02*
X143770533Y-114540476D01*
X143770533Y-114540476D02*
X143913390Y-114588095D01*
X143913390Y-114588095D02*
X144484819Y-115159523D01*
X144484819Y-115159523D02*
X144484819Y-114540476D01*
X143580057Y-114159523D02*
X143532438Y-114111904D01*
X143532438Y-114111904D02*
X143484819Y-114016666D01*
X143484819Y-114016666D02*
X143484819Y-113778571D01*
X143484819Y-113778571D02*
X143532438Y-113683333D01*
X143532438Y-113683333D02*
X143580057Y-113635714D01*
X143580057Y-113635714D02*
X143675295Y-113588095D01*
X143675295Y-113588095D02*
X143770533Y-113588095D01*
X143770533Y-113588095D02*
X143913390Y-113635714D01*
X143913390Y-113635714D02*
X144484819Y-114207142D01*
X144484819Y-114207142D02*
X144484819Y-113588095D01*
D11*
X131451966Y-129320000D02*
X131485300Y-129353333D01*
X131485300Y-129353333D02*
X131518633Y-129453333D01*
X131518633Y-129453333D02*
X131518633Y-129520000D01*
X131518633Y-129520000D02*
X131485300Y-129620000D01*
X131485300Y-129620000D02*
X131418633Y-129686667D01*
X131418633Y-129686667D02*
X131351966Y-129720000D01*
X131351966Y-129720000D02*
X131218633Y-129753333D01*
X131218633Y-129753333D02*
X131118633Y-129753333D01*
X131118633Y-129753333D02*
X130985300Y-129720000D01*
X130985300Y-129720000D02*
X130918633Y-129686667D01*
X130918633Y-129686667D02*
X130851966Y-129620000D01*
X130851966Y-129620000D02*
X130818633Y-129520000D01*
X130818633Y-129520000D02*
X130818633Y-129453333D01*
X130818633Y-129453333D02*
X130851966Y-129353333D01*
X130851966Y-129353333D02*
X130885300Y-129320000D01*
X131518633Y-128653333D02*
X131518633Y-129053333D01*
X131518633Y-128853333D02*
X130818633Y-128853333D01*
X130818633Y-128853333D02*
X130918633Y-128920000D01*
X130918633Y-128920000D02*
X130985300Y-128986667D01*
X130985300Y-128986667D02*
X131018633Y-129053333D01*
X130818633Y-128420000D02*
X130818633Y-127953333D01*
X130818633Y-127953333D02*
X131518633Y-128253333D01*
X154228633Y-66740000D02*
X153895300Y-66973333D01*
X154228633Y-67140000D02*
X153528633Y-67140000D01*
X153528633Y-67140000D02*
X153528633Y-66873333D01*
X153528633Y-66873333D02*
X153561966Y-66806667D01*
X153561966Y-66806667D02*
X153595300Y-66773333D01*
X153595300Y-66773333D02*
X153661966Y-66740000D01*
X153661966Y-66740000D02*
X153761966Y-66740000D01*
X153761966Y-66740000D02*
X153828633Y-66773333D01*
X153828633Y-66773333D02*
X153861966Y-66806667D01*
X153861966Y-66806667D02*
X153895300Y-66873333D01*
X153895300Y-66873333D02*
X153895300Y-67140000D01*
X154228633Y-66073333D02*
X154228633Y-66473333D01*
X154228633Y-66273333D02*
X153528633Y-66273333D01*
X153528633Y-66273333D02*
X153628633Y-66340000D01*
X153628633Y-66340000D02*
X153695300Y-66406667D01*
X153695300Y-66406667D02*
X153728633Y-66473333D01*
X153528633Y-65840000D02*
X153528633Y-65406666D01*
X153528633Y-65406666D02*
X153795300Y-65640000D01*
X153795300Y-65640000D02*
X153795300Y-65540000D01*
X153795300Y-65540000D02*
X153828633Y-65473333D01*
X153828633Y-65473333D02*
X153861966Y-65440000D01*
X153861966Y-65440000D02*
X153928633Y-65406666D01*
X153928633Y-65406666D02*
X154095300Y-65406666D01*
X154095300Y-65406666D02*
X154161966Y-65440000D01*
X154161966Y-65440000D02*
X154195300Y-65473333D01*
X154195300Y-65473333D02*
X154228633Y-65540000D01*
X154228633Y-65540000D02*
X154228633Y-65740000D01*
X154228633Y-65740000D02*
X154195300Y-65806666D01*
X154195300Y-65806666D02*
X154161966Y-65840000D01*
D10*
X151224819Y-105032857D02*
X150748628Y-105366190D01*
X151224819Y-105604285D02*
X150224819Y-105604285D01*
X150224819Y-105604285D02*
X150224819Y-105223333D01*
X150224819Y-105223333D02*
X150272438Y-105128095D01*
X150272438Y-105128095D02*
X150320057Y-105080476D01*
X150320057Y-105080476D02*
X150415295Y-105032857D01*
X150415295Y-105032857D02*
X150558152Y-105032857D01*
X150558152Y-105032857D02*
X150653390Y-105080476D01*
X150653390Y-105080476D02*
X150701009Y-105128095D01*
X150701009Y-105128095D02*
X150748628Y-105223333D01*
X150748628Y-105223333D02*
X150748628Y-105604285D01*
X150320057Y-104651904D02*
X150272438Y-104604285D01*
X150272438Y-104604285D02*
X150224819Y-104509047D01*
X150224819Y-104509047D02*
X150224819Y-104270952D01*
X150224819Y-104270952D02*
X150272438Y-104175714D01*
X150272438Y-104175714D02*
X150320057Y-104128095D01*
X150320057Y-104128095D02*
X150415295Y-104080476D01*
X150415295Y-104080476D02*
X150510533Y-104080476D01*
X150510533Y-104080476D02*
X150653390Y-104128095D01*
X150653390Y-104128095D02*
X151224819Y-104699523D01*
X151224819Y-104699523D02*
X151224819Y-104080476D01*
X150224819Y-103461428D02*
X150224819Y-103366190D01*
X150224819Y-103366190D02*
X150272438Y-103270952D01*
X150272438Y-103270952D02*
X150320057Y-103223333D01*
X150320057Y-103223333D02*
X150415295Y-103175714D01*
X150415295Y-103175714D02*
X150605771Y-103128095D01*
X150605771Y-103128095D02*
X150843866Y-103128095D01*
X150843866Y-103128095D02*
X151034342Y-103175714D01*
X151034342Y-103175714D02*
X151129580Y-103223333D01*
X151129580Y-103223333D02*
X151177200Y-103270952D01*
X151177200Y-103270952D02*
X151224819Y-103366190D01*
X151224819Y-103366190D02*
X151224819Y-103461428D01*
X151224819Y-103461428D02*
X151177200Y-103556666D01*
X151177200Y-103556666D02*
X151129580Y-103604285D01*
X151129580Y-103604285D02*
X151034342Y-103651904D01*
X151034342Y-103651904D02*
X150843866Y-103699523D01*
X150843866Y-103699523D02*
X150605771Y-103699523D01*
X150605771Y-103699523D02*
X150415295Y-103651904D01*
X150415295Y-103651904D02*
X150320057Y-103604285D01*
X150320057Y-103604285D02*
X150272438Y-103556666D01*
X150272438Y-103556666D02*
X150224819Y-103461428D01*
D11*
X136339999Y-114291966D02*
X136306666Y-114325300D01*
X136306666Y-114325300D02*
X136206666Y-114358633D01*
X136206666Y-114358633D02*
X136139999Y-114358633D01*
X136139999Y-114358633D02*
X136039999Y-114325300D01*
X136039999Y-114325300D02*
X135973333Y-114258633D01*
X135973333Y-114258633D02*
X135939999Y-114191966D01*
X135939999Y-114191966D02*
X135906666Y-114058633D01*
X135906666Y-114058633D02*
X135906666Y-113958633D01*
X135906666Y-113958633D02*
X135939999Y-113825300D01*
X135939999Y-113825300D02*
X135973333Y-113758633D01*
X135973333Y-113758633D02*
X136039999Y-113691966D01*
X136039999Y-113691966D02*
X136139999Y-113658633D01*
X136139999Y-113658633D02*
X136206666Y-113658633D01*
X136206666Y-113658633D02*
X136306666Y-113691966D01*
X136306666Y-113691966D02*
X136339999Y-113725300D01*
X136573333Y-113658633D02*
X137006666Y-113658633D01*
X137006666Y-113658633D02*
X136773333Y-113925300D01*
X136773333Y-113925300D02*
X136873333Y-113925300D01*
X136873333Y-113925300D02*
X136939999Y-113958633D01*
X136939999Y-113958633D02*
X136973333Y-113991966D01*
X136973333Y-113991966D02*
X137006666Y-114058633D01*
X137006666Y-114058633D02*
X137006666Y-114225300D01*
X137006666Y-114225300D02*
X136973333Y-114291966D01*
X136973333Y-114291966D02*
X136939999Y-114325300D01*
X136939999Y-114325300D02*
X136873333Y-114358633D01*
X136873333Y-114358633D02*
X136673333Y-114358633D01*
X136673333Y-114358633D02*
X136606666Y-114325300D01*
X136606666Y-114325300D02*
X136573333Y-114291966D01*
X137606666Y-113658633D02*
X137473333Y-113658633D01*
X137473333Y-113658633D02*
X137406666Y-113691966D01*
X137406666Y-113691966D02*
X137373333Y-113725300D01*
X137373333Y-113725300D02*
X137306666Y-113825300D01*
X137306666Y-113825300D02*
X137273333Y-113958633D01*
X137273333Y-113958633D02*
X137273333Y-114225300D01*
X137273333Y-114225300D02*
X137306666Y-114291966D01*
X137306666Y-114291966D02*
X137340000Y-114325300D01*
X137340000Y-114325300D02*
X137406666Y-114358633D01*
X137406666Y-114358633D02*
X137540000Y-114358633D01*
X137540000Y-114358633D02*
X137606666Y-114325300D01*
X137606666Y-114325300D02*
X137640000Y-114291966D01*
X137640000Y-114291966D02*
X137673333Y-114225300D01*
X137673333Y-114225300D02*
X137673333Y-114058633D01*
X137673333Y-114058633D02*
X137640000Y-113991966D01*
X137640000Y-113991966D02*
X137606666Y-113958633D01*
X137606666Y-113958633D02*
X137540000Y-113925300D01*
X137540000Y-113925300D02*
X137406666Y-113925300D01*
X137406666Y-113925300D02*
X137340000Y-113958633D01*
X137340000Y-113958633D02*
X137306666Y-113991966D01*
X137306666Y-113991966D02*
X137273333Y-114058633D01*
X130111966Y-121030000D02*
X130145300Y-121063333D01*
X130145300Y-121063333D02*
X130178633Y-121163333D01*
X130178633Y-121163333D02*
X130178633Y-121230000D01*
X130178633Y-121230000D02*
X130145300Y-121330000D01*
X130145300Y-121330000D02*
X130078633Y-121396667D01*
X130078633Y-121396667D02*
X130011966Y-121430000D01*
X130011966Y-121430000D02*
X129878633Y-121463333D01*
X129878633Y-121463333D02*
X129778633Y-121463333D01*
X129778633Y-121463333D02*
X129645300Y-121430000D01*
X129645300Y-121430000D02*
X129578633Y-121396667D01*
X129578633Y-121396667D02*
X129511966Y-121330000D01*
X129511966Y-121330000D02*
X129478633Y-121230000D01*
X129478633Y-121230000D02*
X129478633Y-121163333D01*
X129478633Y-121163333D02*
X129511966Y-121063333D01*
X129511966Y-121063333D02*
X129545300Y-121030000D01*
X129478633Y-120796667D02*
X129478633Y-120363333D01*
X129478633Y-120363333D02*
X129745300Y-120596667D01*
X129745300Y-120596667D02*
X129745300Y-120496667D01*
X129745300Y-120496667D02*
X129778633Y-120430000D01*
X129778633Y-120430000D02*
X129811966Y-120396667D01*
X129811966Y-120396667D02*
X129878633Y-120363333D01*
X129878633Y-120363333D02*
X130045300Y-120363333D01*
X130045300Y-120363333D02*
X130111966Y-120396667D01*
X130111966Y-120396667D02*
X130145300Y-120430000D01*
X130145300Y-120430000D02*
X130178633Y-120496667D01*
X130178633Y-120496667D02*
X130178633Y-120696667D01*
X130178633Y-120696667D02*
X130145300Y-120763333D01*
X130145300Y-120763333D02*
X130111966Y-120796667D01*
X129478633Y-119930000D02*
X129478633Y-119863333D01*
X129478633Y-119863333D02*
X129511966Y-119796666D01*
X129511966Y-119796666D02*
X129545300Y-119763333D01*
X129545300Y-119763333D02*
X129611966Y-119730000D01*
X129611966Y-119730000D02*
X129745300Y-119696666D01*
X129745300Y-119696666D02*
X129911966Y-119696666D01*
X129911966Y-119696666D02*
X130045300Y-119730000D01*
X130045300Y-119730000D02*
X130111966Y-119763333D01*
X130111966Y-119763333D02*
X130145300Y-119796666D01*
X130145300Y-119796666D02*
X130178633Y-119863333D01*
X130178633Y-119863333D02*
X130178633Y-119930000D01*
X130178633Y-119930000D02*
X130145300Y-119996666D01*
X130145300Y-119996666D02*
X130111966Y-120030000D01*
X130111966Y-120030000D02*
X130045300Y-120063333D01*
X130045300Y-120063333D02*
X129911966Y-120096666D01*
X129911966Y-120096666D02*
X129745300Y-120096666D01*
X129745300Y-120096666D02*
X129611966Y-120063333D01*
X129611966Y-120063333D02*
X129545300Y-120030000D01*
X129545300Y-120030000D02*
X129511966Y-119996666D01*
X129511966Y-119996666D02*
X129478633Y-119930000D01*
D10*
X149488095Y-119514819D02*
X150059523Y-119514819D01*
X149773809Y-120514819D02*
X149773809Y-119514819D01*
X150392857Y-120514819D02*
X150392857Y-119514819D01*
X150392857Y-119514819D02*
X150773809Y-119514819D01*
X150773809Y-119514819D02*
X150869047Y-119562438D01*
X150869047Y-119562438D02*
X150916666Y-119610057D01*
X150916666Y-119610057D02*
X150964285Y-119705295D01*
X150964285Y-119705295D02*
X150964285Y-119848152D01*
X150964285Y-119848152D02*
X150916666Y-119943390D01*
X150916666Y-119943390D02*
X150869047Y-119991009D01*
X150869047Y-119991009D02*
X150773809Y-120038628D01*
X150773809Y-120038628D02*
X150392857Y-120038628D01*
X151440476Y-120514819D02*
X151630952Y-120514819D01*
X151630952Y-120514819D02*
X151726190Y-120467200D01*
X151726190Y-120467200D02*
X151773809Y-120419580D01*
X151773809Y-120419580D02*
X151869047Y-120276723D01*
X151869047Y-120276723D02*
X151916666Y-120086247D01*
X151916666Y-120086247D02*
X151916666Y-119705295D01*
X151916666Y-119705295D02*
X151869047Y-119610057D01*
X151869047Y-119610057D02*
X151821428Y-119562438D01*
X151821428Y-119562438D02*
X151726190Y-119514819D01*
X151726190Y-119514819D02*
X151535714Y-119514819D01*
X151535714Y-119514819D02*
X151440476Y-119562438D01*
X151440476Y-119562438D02*
X151392857Y-119610057D01*
X151392857Y-119610057D02*
X151345238Y-119705295D01*
X151345238Y-119705295D02*
X151345238Y-119943390D01*
X151345238Y-119943390D02*
X151392857Y-120038628D01*
X151392857Y-120038628D02*
X151440476Y-120086247D01*
X151440476Y-120086247D02*
X151535714Y-120133866D01*
X151535714Y-120133866D02*
X151726190Y-120133866D01*
X151726190Y-120133866D02*
X151821428Y-120086247D01*
X151821428Y-120086247D02*
X151869047Y-120038628D01*
X151869047Y-120038628D02*
X151916666Y-119943390D01*
X140359580Y-115492857D02*
X140407200Y-115540476D01*
X140407200Y-115540476D02*
X140454819Y-115683333D01*
X140454819Y-115683333D02*
X140454819Y-115778571D01*
X140454819Y-115778571D02*
X140407200Y-115921428D01*
X140407200Y-115921428D02*
X140311961Y-116016666D01*
X140311961Y-116016666D02*
X140216723Y-116064285D01*
X140216723Y-116064285D02*
X140026247Y-116111904D01*
X140026247Y-116111904D02*
X139883390Y-116111904D01*
X139883390Y-116111904D02*
X139692914Y-116064285D01*
X139692914Y-116064285D02*
X139597676Y-116016666D01*
X139597676Y-116016666D02*
X139502438Y-115921428D01*
X139502438Y-115921428D02*
X139454819Y-115778571D01*
X139454819Y-115778571D02*
X139454819Y-115683333D01*
X139454819Y-115683333D02*
X139502438Y-115540476D01*
X139502438Y-115540476D02*
X139550057Y-115492857D01*
X139550057Y-115111904D02*
X139502438Y-115064285D01*
X139502438Y-115064285D02*
X139454819Y-114969047D01*
X139454819Y-114969047D02*
X139454819Y-114730952D01*
X139454819Y-114730952D02*
X139502438Y-114635714D01*
X139502438Y-114635714D02*
X139550057Y-114588095D01*
X139550057Y-114588095D02*
X139645295Y-114540476D01*
X139645295Y-114540476D02*
X139740533Y-114540476D01*
X139740533Y-114540476D02*
X139883390Y-114588095D01*
X139883390Y-114588095D02*
X140454819Y-115159523D01*
X140454819Y-115159523D02*
X140454819Y-114540476D01*
X139454819Y-114207142D02*
X139454819Y-113588095D01*
X139454819Y-113588095D02*
X139835771Y-113921428D01*
X139835771Y-113921428D02*
X139835771Y-113778571D01*
X139835771Y-113778571D02*
X139883390Y-113683333D01*
X139883390Y-113683333D02*
X139931009Y-113635714D01*
X139931009Y-113635714D02*
X140026247Y-113588095D01*
X140026247Y-113588095D02*
X140264342Y-113588095D01*
X140264342Y-113588095D02*
X140359580Y-113635714D01*
X140359580Y-113635714D02*
X140407200Y-113683333D01*
X140407200Y-113683333D02*
X140454819Y-113778571D01*
X140454819Y-113778571D02*
X140454819Y-114064285D01*
X140454819Y-114064285D02*
X140407200Y-114159523D01*
X140407200Y-114159523D02*
X140359580Y-114207142D01*
D12*
X152190000Y-100116665D02*
X152190000Y-100348335D01*
X151470000Y-100116665D02*
X151470000Y-100348335D01*
X142300000Y-125543335D02*
X142300000Y-125311665D01*
X143020000Y-125543335D02*
X143020000Y-125311665D01*
X146650000Y-119150000D02*
G75*
G03*
X146650000Y-119150000I-700000J0D01*
G01*
X135230000Y-118705000D02*
X135230000Y-115685000D01*
X137750000Y-118705000D02*
X137750000Y-115685000D01*
X136855835Y-128260000D02*
X136624165Y-128260000D01*
X136855835Y-127540000D02*
X136624165Y-127540000D01*
X152100000Y-115800000D02*
G75*
G03*
X152100000Y-115800000I-700000J0D01*
G01*
X153970000Y-76130000D02*
G75*
G03*
X153970000Y-76130000I-700000J0D01*
G01*
X153190000Y-68741665D02*
X153190000Y-68973335D01*
X152470000Y-68741665D02*
X152470000Y-68973335D01*
X148310000Y-81444879D02*
X148310000Y-81780121D01*
X147550000Y-81444879D02*
X147550000Y-81780121D01*
X140530000Y-106110000D02*
G75*
G03*
X140530000Y-106110000I-700000J0D01*
G01*
X148020000Y-104480000D02*
G75*
G03*
X148020000Y-104480000I-700000J0D01*
G01*
X136680000Y-109395121D02*
X136680000Y-109059879D01*
X137440000Y-109395121D02*
X137440000Y-109059879D01*
D11*
X152090000Y-83365000D02*
X140090000Y-83365000D01*
X140090000Y-83365000D02*
X140090000Y-97365000D01*
X140090000Y-97365000D02*
X152090000Y-97365000D01*
X152090000Y-97365000D02*
X152090000Y-83365000D01*
X152450000Y-82985000D02*
G75*
G03*
X152450000Y-82985000I0J0D01*
G01*
X152492426Y-82985000D02*
G75*
G03*
X152492426Y-82985000I-42426J0D01*
G01*
X152577279Y-82985000D02*
G75*
G03*
X152577279Y-82985000I-127279J0D01*
G01*
D12*
X137410000Y-104929879D02*
X137410000Y-105265121D01*
X136650000Y-104929879D02*
X136650000Y-105265121D01*
X132330000Y-118795000D02*
X132330000Y-115775000D01*
X134850000Y-118795000D02*
X134850000Y-115775000D01*
X151445000Y-83195000D02*
X152915000Y-83195000D01*
X152915000Y-83195000D02*
X152915000Y-80735000D01*
X151445000Y-80735000D02*
X151445000Y-83195000D01*
X132850000Y-131790000D02*
G75*
G03*
X132850000Y-131790000I-700000J0D01*
G01*
X144620000Y-132050000D02*
X144620000Y-133850000D01*
X144620000Y-137560000D02*
X144620000Y-136100000D01*
X153560000Y-132050000D02*
X153560000Y-133850000D01*
X153560000Y-137560000D02*
X144620000Y-137560000D01*
X153560000Y-137560000D02*
X153560000Y-136100000D01*
X152480000Y-71415121D02*
X152480000Y-71079879D01*
X153240000Y-71415121D02*
X153240000Y-71079879D01*
X147860000Y-117340000D02*
G75*
G03*
X147860000Y-117340000I-700000J0D01*
G01*
X133981665Y-114590000D02*
X134213335Y-114590000D01*
X133981665Y-115310000D02*
X134213335Y-115310000D01*
X146490000Y-121580121D02*
X146490000Y-121244879D01*
X147250000Y-121580121D02*
X147250000Y-121244879D01*
X145320000Y-121610121D02*
X145320000Y-121274879D01*
X146080000Y-121610121D02*
X146080000Y-121274879D01*
X135515000Y-128620000D02*
X138535000Y-128620000D01*
X135515000Y-131140000D02*
X138535000Y-131140000D01*
X142080000Y-128858335D02*
X142080000Y-128626665D01*
X142800000Y-128858335D02*
X142800000Y-128626665D01*
X152155121Y-128640000D02*
X151819879Y-128640000D01*
X152155121Y-127880000D02*
X151819879Y-127880000D01*
X138970000Y-131563335D02*
X138970000Y-131331665D01*
X139690000Y-131563335D02*
X139690000Y-131331665D01*
X148605000Y-83175000D02*
X150075000Y-83175000D01*
X150075000Y-83175000D02*
X150075000Y-80715000D01*
X148605000Y-80715000D02*
X148605000Y-83175000D01*
X153240000Y-84519879D02*
X153240000Y-84855121D01*
X152480000Y-84519879D02*
X152480000Y-84855121D01*
X154200000Y-74000000D02*
G75*
G03*
X154200000Y-74000000I-700000J0D01*
G01*
X143413335Y-123970000D02*
X143181665Y-123970000D01*
X143413335Y-123250000D02*
X143181665Y-123250000D01*
X131790000Y-128753335D02*
X131790000Y-128521665D01*
X132510000Y-128753335D02*
X132510000Y-128521665D01*
X133020000Y-125421665D02*
X133020000Y-125653335D01*
X132300000Y-125421665D02*
X132300000Y-125653335D01*
X133598752Y-134875000D02*
X132176248Y-134875000D01*
X133598752Y-133055000D02*
X132176248Y-133055000D01*
X138180000Y-117678335D02*
X138180000Y-117446665D01*
X138900000Y-117678335D02*
X138900000Y-117446665D01*
X147410000Y-109805835D02*
X147410000Y-109574165D01*
X148130000Y-109805835D02*
X148130000Y-109574165D01*
X141150000Y-117416665D02*
X141150000Y-117648335D01*
X140430000Y-117416665D02*
X140430000Y-117648335D01*
X141440000Y-126560000D02*
X140790000Y-126560000D01*
X134220000Y-125910000D02*
X134220000Y-126560000D01*
X141440000Y-125910000D02*
X141440000Y-126560000D01*
X134220000Y-119990000D02*
X134220000Y-119340000D01*
X141440000Y-119990000D02*
X141440000Y-119340000D01*
X134220000Y-119340000D02*
X134870000Y-119340000D01*
X141440000Y-119340000D02*
X140790000Y-119340000D01*
X143555835Y-120660000D02*
X143324165Y-120660000D01*
X143555835Y-119940000D02*
X143324165Y-119940000D01*
X133345000Y-124340000D02*
X130325000Y-124340000D01*
X133345000Y-121820000D02*
X130325000Y-121820000D01*
X153990000Y-78270000D02*
G75*
G03*
X153990000Y-78270000I-700000J0D01*
G01*
X133891665Y-112905000D02*
X134123335Y-112905000D01*
X133891665Y-113625000D02*
X134123335Y-113625000D01*
X145115121Y-127330000D02*
X144779879Y-127330000D01*
X145115121Y-126570000D02*
X144779879Y-126570000D01*
X149980000Y-98636665D02*
X149980000Y-98868335D01*
X149260000Y-98636665D02*
X149260000Y-98868335D01*
X129530000Y-83200000D02*
X129530000Y-83900000D01*
X129730000Y-83400000D02*
X129730000Y-96600000D01*
X129730000Y-96600000D02*
X138930000Y-96600000D01*
X130230000Y-83200000D02*
X129530000Y-83200000D01*
X138930000Y-83400000D02*
X129730000Y-83400000D01*
X138930000Y-96600000D02*
X138930000Y-83400000D01*
X146329879Y-127910000D02*
X146665121Y-127910000D01*
X146329879Y-128670000D02*
X146665121Y-128670000D01*
X151235000Y-65805000D02*
X147625000Y-65805000D01*
X145925000Y-65805000D02*
X141225000Y-65805000D01*
X139925000Y-65805000D02*
X138125000Y-65805000D01*
X151235000Y-66255000D02*
X151235000Y-65805000D01*
X134965000Y-66835000D02*
X135165000Y-66635000D01*
X134965000Y-66835000D02*
X134965000Y-68695000D01*
X134965000Y-68695000D02*
X135165000Y-68905000D01*
X135315000Y-68905000D02*
X135165000Y-68905000D01*
X135315000Y-68905000D02*
X135315000Y-75275000D01*
X134965000Y-75785000D02*
X135315000Y-75275000D01*
X151235000Y-77855000D02*
X151235000Y-79775000D01*
X134965000Y-78095000D02*
X134965000Y-75785000D01*
X134965000Y-78095000D02*
X135165000Y-78295000D01*
X135165000Y-78295000D02*
X135165000Y-78555000D01*
X151235000Y-79775000D02*
X137225000Y-79775000D01*
X140490000Y-110960000D02*
G75*
G03*
X140490000Y-110960000I-700000J0D01*
G01*
X132950000Y-128785835D02*
X132950000Y-128554165D01*
X133670000Y-128785835D02*
X133670000Y-128554165D01*
X152150000Y-113510000D02*
G75*
G03*
X152150000Y-113510000I-700000J0D01*
G01*
X143548335Y-121870000D02*
X143316665Y-121870000D01*
X143548335Y-121150000D02*
X143316665Y-121150000D01*
X130300000Y-100630000D02*
G75*
G03*
X130300000Y-100630000I-700000J0D01*
G01*
X141480000Y-117668335D02*
X141480000Y-117436665D01*
X142200000Y-117668335D02*
X142200000Y-117436665D01*
X130700000Y-120758335D02*
X130700000Y-120526665D01*
X131420000Y-120758335D02*
X131420000Y-120526665D01*
X137148335Y-132050000D02*
X136916665Y-132050000D01*
X137148335Y-131330000D02*
X136916665Y-131330000D01*
X131850000Y-112830000D02*
X130150000Y-112830000D01*
X131850000Y-112830000D02*
X131850000Y-116090000D01*
X130150000Y-112830000D02*
X130150000Y-116090000D01*
X132920000Y-102440000D02*
X131120000Y-102440000D01*
X127410000Y-102440000D02*
X128870000Y-102440000D01*
X132920000Y-111380000D02*
X131120000Y-111380000D01*
X127410000Y-111380000D02*
X127410000Y-102440000D01*
X127410000Y-111380000D02*
X128870000Y-111380000D01*
X146730000Y-111280000D02*
X146005000Y-111280000D01*
X141510000Y-110555000D02*
X141510000Y-111280000D01*
X146730000Y-110555000D02*
X146730000Y-111280000D01*
X141510000Y-106785000D02*
X141510000Y-106060000D01*
X146730000Y-106785000D02*
X146730000Y-106060000D01*
X141510000Y-106060000D02*
X142235000Y-106060000D01*
X146730000Y-106060000D02*
X146005000Y-106060000D01*
X150167500Y-123110000D02*
X148492500Y-123110000D01*
X150167500Y-123110000D02*
X150817500Y-123110000D01*
X150167500Y-126230000D02*
X149517500Y-126230000D01*
X150167500Y-126230000D02*
X150817500Y-126230000D01*
X145544879Y-112210000D02*
X145880121Y-112210000D01*
X145544879Y-112970000D02*
X145880121Y-112970000D01*
X141725000Y-130220000D02*
X138705000Y-130220000D01*
X141725000Y-127700000D02*
X138705000Y-127700000D01*
X151130000Y-81484879D02*
X151130000Y-81820121D01*
X150370000Y-81484879D02*
X150370000Y-81820121D01*
X143320000Y-117436665D02*
X143320000Y-117668335D01*
X142600000Y-117436665D02*
X142600000Y-117668335D01*
X134120000Y-128775835D02*
X134120000Y-128544165D01*
X134840000Y-128775835D02*
X134840000Y-128544165D01*
X153270000Y-66042379D02*
X153270000Y-66377621D01*
X152510000Y-66042379D02*
X152510000Y-66377621D01*
X151460000Y-104190121D02*
X151460000Y-103854879D01*
X152220000Y-104190121D02*
X152220000Y-103854879D01*
X136908335Y-115280000D02*
X136676665Y-115280000D01*
X136908335Y-114560000D02*
X136676665Y-114560000D01*
X132340000Y-120703335D02*
X132340000Y-120471665D01*
X133060000Y-120703335D02*
X133060000Y-120471665D01*
X151060000Y-121450000D02*
G75*
G03*
X151060000Y-121450000I-700000J0D01*
G01*
X139970000Y-117416665D02*
X139970000Y-117648335D01*
X139250000Y-117416665D02*
X139250000Y-117648335D01*
M02*
