G04 #@! TF.GenerationSoftware,KiCad,Pcbnew,7.0.8-7.0.8~ubuntu22.04.1*
G04 #@! TF.CreationDate,2023-10-22T15:09:54+03:00*
G04 #@! TF.ProjectId,H616_devboard,48363136-5f64-4657-9662-6f6172642e6b,rev?*
G04 #@! TF.SameCoordinates,Original*
G04 #@! TF.FileFunction,Soldermask,Top*
G04 #@! TF.FilePolarity,Negative*
%FSLAX46Y46*%
G04 Gerber Fmt 4.6, Leading zero omitted, Abs format (unit mm)*
G04 Created by KiCad (PCBNEW 7.0.8-7.0.8~ubuntu22.04.1) date 2023-10-22 15:09:54*
%MOMM*%
%LPD*%
G01*
G04 APERTURE LIST*
%ADD10C,1.000000*%
%ADD11R,2.000000X0.850000*%
%ADD12C,0.350000*%
%ADD13C,0.600000*%
%ADD14R,0.600000X1.160000*%
%ADD15R,0.300000X1.160000*%
%ADD16O,0.900000X2.000000*%
%ADD17O,0.900000X1.700000*%
%ADD18R,0.850000X2.000000*%
%ADD19R,4.000000X4.000000*%
%ADD20C,0.400000*%
%ADD21R,1.200000X0.700000*%
%ADD22R,0.800000X1.000000*%
%ADD23R,1.200000X1.000000*%
%ADD24R,2.800000X1.000000*%
%ADD25R,1.900000X1.300000*%
%ADD26R,1.160000X0.600000*%
%ADD27R,1.160000X0.300000*%
%ADD28O,2.000000X0.900000*%
%ADD29O,1.700000X0.900000*%
%ADD30R,3.350000X3.350000*%
G04 APERTURE END LIST*
G36*
G01*
X151675000Y-99297500D02*
X151985000Y-99297500D01*
G75*
G02*
X152140000Y-99452500I0J-155000D01*
G01*
X152140000Y-99877500D01*
G75*
G02*
X151985000Y-100032500I-155000J0D01*
G01*
X151675000Y-100032500D01*
G75*
G02*
X151520000Y-99877500I0J155000D01*
G01*
X151520000Y-99452500D01*
G75*
G02*
X151675000Y-99297500I155000J0D01*
G01*
G37*
G36*
G01*
X151675000Y-100432500D02*
X151985000Y-100432500D01*
G75*
G02*
X152140000Y-100587500I0J-155000D01*
G01*
X152140000Y-101012500D01*
G75*
G02*
X151985000Y-101167500I-155000J0D01*
G01*
X151675000Y-101167500D01*
G75*
G02*
X151520000Y-101012500I0J155000D01*
G01*
X151520000Y-100587500D01*
G75*
G02*
X151675000Y-100432500I155000J0D01*
G01*
G37*
G36*
G01*
X142815000Y-126362500D02*
X142505000Y-126362500D01*
G75*
G02*
X142350000Y-126207500I0J155000D01*
G01*
X142350000Y-125782500D01*
G75*
G02*
X142505000Y-125627500I155000J0D01*
G01*
X142815000Y-125627500D01*
G75*
G02*
X142970000Y-125782500I0J-155000D01*
G01*
X142970000Y-126207500D01*
G75*
G02*
X142815000Y-126362500I-155000J0D01*
G01*
G37*
G36*
G01*
X142815000Y-125227500D02*
X142505000Y-125227500D01*
G75*
G02*
X142350000Y-125072500I0J155000D01*
G01*
X142350000Y-124647500D01*
G75*
G02*
X142505000Y-124492500I155000J0D01*
G01*
X142815000Y-124492500D01*
G75*
G02*
X142970000Y-124647500I0J-155000D01*
G01*
X142970000Y-125072500D01*
G75*
G02*
X142815000Y-125227500I-155000J0D01*
G01*
G37*
D10*
X145950000Y-119150000D03*
D11*
X136490000Y-118020000D03*
X136490000Y-116370000D03*
G36*
G01*
X137675000Y-127745000D02*
X137675000Y-128055000D01*
G75*
G02*
X137520000Y-128210000I-155000J0D01*
G01*
X137095000Y-128210000D01*
G75*
G02*
X136940000Y-128055000I0J155000D01*
G01*
X136940000Y-127745000D01*
G75*
G02*
X137095000Y-127590000I155000J0D01*
G01*
X137520000Y-127590000D01*
G75*
G02*
X137675000Y-127745000I0J-155000D01*
G01*
G37*
G36*
G01*
X136540000Y-127745000D02*
X136540000Y-128055000D01*
G75*
G02*
X136385000Y-128210000I-155000J0D01*
G01*
X135960000Y-128210000D01*
G75*
G02*
X135805000Y-128055000I0J155000D01*
G01*
X135805000Y-127745000D01*
G75*
G02*
X135960000Y-127590000I155000J0D01*
G01*
X136385000Y-127590000D01*
G75*
G02*
X136540000Y-127745000I0J-155000D01*
G01*
G37*
D10*
X151400000Y-115800000D03*
X153270000Y-76130000D03*
G36*
G01*
X152675000Y-67922500D02*
X152985000Y-67922500D01*
G75*
G02*
X153140000Y-68077500I0J-155000D01*
G01*
X153140000Y-68502500D01*
G75*
G02*
X152985000Y-68657500I-155000J0D01*
G01*
X152675000Y-68657500D01*
G75*
G02*
X152520000Y-68502500I0J155000D01*
G01*
X152520000Y-68077500D01*
G75*
G02*
X152675000Y-67922500I155000J0D01*
G01*
G37*
G36*
G01*
X152675000Y-69057500D02*
X152985000Y-69057500D01*
G75*
G02*
X153140000Y-69212500I0J-155000D01*
G01*
X153140000Y-69637500D01*
G75*
G02*
X152985000Y-69792500I-155000J0D01*
G01*
X152675000Y-69792500D01*
G75*
G02*
X152520000Y-69637500I0J155000D01*
G01*
X152520000Y-69212500D01*
G75*
G02*
X152675000Y-69057500I155000J0D01*
G01*
G37*
G36*
G01*
X147770000Y-80657500D02*
X148090000Y-80657500D01*
G75*
G02*
X148250000Y-80817500I0J-160000D01*
G01*
X148250000Y-81212500D01*
G75*
G02*
X148090000Y-81372500I-160000J0D01*
G01*
X147770000Y-81372500D01*
G75*
G02*
X147610000Y-81212500I0J160000D01*
G01*
X147610000Y-80817500D01*
G75*
G02*
X147770000Y-80657500I160000J0D01*
G01*
G37*
G36*
G01*
X147770000Y-81852500D02*
X148090000Y-81852500D01*
G75*
G02*
X148250000Y-82012500I0J-160000D01*
G01*
X148250000Y-82407500D01*
G75*
G02*
X148090000Y-82567500I-160000J0D01*
G01*
X147770000Y-82567500D01*
G75*
G02*
X147610000Y-82407500I0J160000D01*
G01*
X147610000Y-82012500D01*
G75*
G02*
X147770000Y-81852500I160000J0D01*
G01*
G37*
X139830000Y-106110000D03*
X147320000Y-104480000D03*
G36*
G01*
X137220000Y-110182500D02*
X136900000Y-110182500D01*
G75*
G02*
X136740000Y-110022500I0J160000D01*
G01*
X136740000Y-109627500D01*
G75*
G02*
X136900000Y-109467500I160000J0D01*
G01*
X137220000Y-109467500D01*
G75*
G02*
X137380000Y-109627500I0J-160000D01*
G01*
X137380000Y-110022500D01*
G75*
G02*
X137220000Y-110182500I-160000J0D01*
G01*
G37*
G36*
G01*
X137220000Y-108987500D02*
X136900000Y-108987500D01*
G75*
G02*
X136740000Y-108827500I0J160000D01*
G01*
X136740000Y-108432500D01*
G75*
G02*
X136900000Y-108272500I160000J0D01*
G01*
X137220000Y-108272500D01*
G75*
G02*
X137380000Y-108432500I0J-160000D01*
G01*
X137380000Y-108827500D01*
G75*
G02*
X137220000Y-108987500I-160000J0D01*
G01*
G37*
D12*
X151590000Y-83840000D03*
X151590000Y-84490000D03*
X151590000Y-85790000D03*
X151590000Y-87090000D03*
X151590000Y-88390000D03*
X151590000Y-89690000D03*
X151590000Y-90990000D03*
X151590000Y-92290000D03*
X151590000Y-93590000D03*
X151590000Y-94890000D03*
X151590000Y-95540000D03*
X151590000Y-96190000D03*
X151590000Y-96840000D03*
X150940000Y-83840000D03*
X150940000Y-84490000D03*
X150940000Y-85140000D03*
X150940000Y-85790000D03*
X150940000Y-86440000D03*
X150940000Y-87090000D03*
X150940000Y-87740000D03*
X150940000Y-88390000D03*
X150940000Y-89040000D03*
X150940000Y-89690000D03*
X150940000Y-90340000D03*
X150940000Y-90990000D03*
X150940000Y-91640000D03*
X150940000Y-92290000D03*
X150940000Y-92940000D03*
X150940000Y-93590000D03*
X150940000Y-94240000D03*
X150940000Y-94890000D03*
X150940000Y-95540000D03*
X150940000Y-96190000D03*
X150940000Y-96840000D03*
X150290000Y-83840000D03*
X150290000Y-84490000D03*
X150290000Y-85140000D03*
X150290000Y-85790000D03*
X150290000Y-86440000D03*
X150290000Y-87090000D03*
X150290000Y-87740000D03*
X150290000Y-88390000D03*
X150290000Y-89040000D03*
X150290000Y-89690000D03*
X150290000Y-90340000D03*
X150290000Y-90990000D03*
X150290000Y-91640000D03*
X150290000Y-92290000D03*
X150290000Y-92940000D03*
X150290000Y-93590000D03*
X150290000Y-94240000D03*
X150290000Y-94890000D03*
X150290000Y-95540000D03*
X150290000Y-96190000D03*
X149640000Y-83840000D03*
X149640000Y-84490000D03*
X149640000Y-85140000D03*
X149640000Y-85790000D03*
X149640000Y-86440000D03*
X149640000Y-87740000D03*
X149640000Y-89690000D03*
X149640000Y-90340000D03*
X149640000Y-90990000D03*
X149640000Y-91640000D03*
X149640000Y-92290000D03*
X149640000Y-92940000D03*
X149640000Y-93590000D03*
X149640000Y-94890000D03*
X149640000Y-95540000D03*
X149640000Y-96190000D03*
X149640000Y-96840000D03*
X148990000Y-84490000D03*
X148990000Y-85140000D03*
X148990000Y-85790000D03*
X148990000Y-86440000D03*
X148990000Y-87090000D03*
X148990000Y-94890000D03*
X148990000Y-95540000D03*
X148990000Y-96190000D03*
X148340000Y-83840000D03*
X148340000Y-84490000D03*
X148340000Y-85140000D03*
X148340000Y-85790000D03*
X148340000Y-86440000D03*
X148340000Y-88390000D03*
X148340000Y-89040000D03*
X148340000Y-89690000D03*
X148340000Y-90340000D03*
X148340000Y-90990000D03*
X148340000Y-91640000D03*
X148340000Y-92290000D03*
X148340000Y-92940000D03*
X148340000Y-94890000D03*
X148340000Y-95540000D03*
X148340000Y-96190000D03*
X148340000Y-96840000D03*
X147690000Y-84490000D03*
X147690000Y-85140000D03*
X147690000Y-85790000D03*
X147690000Y-86440000D03*
X147690000Y-87090000D03*
X147690000Y-88390000D03*
X147690000Y-89040000D03*
X147690000Y-89690000D03*
X147690000Y-90340000D03*
X147690000Y-90990000D03*
X147690000Y-91640000D03*
X147690000Y-92290000D03*
X147690000Y-92940000D03*
X147690000Y-94240000D03*
X147690000Y-94890000D03*
X147690000Y-95540000D03*
X147690000Y-96190000D03*
X147690000Y-96840000D03*
X147040000Y-83840000D03*
X147040000Y-84490000D03*
X147040000Y-85140000D03*
X147040000Y-85790000D03*
X147040000Y-86440000D03*
X147040000Y-87090000D03*
X147040000Y-88390000D03*
X147040000Y-89040000D03*
X147040000Y-89690000D03*
X147040000Y-90340000D03*
X147040000Y-90990000D03*
X147040000Y-91640000D03*
X147040000Y-92290000D03*
X147040000Y-92940000D03*
X147040000Y-94240000D03*
X147040000Y-94890000D03*
X147040000Y-95540000D03*
X147040000Y-96190000D03*
X146390000Y-84490000D03*
X146390000Y-85140000D03*
X146390000Y-87090000D03*
X146390000Y-88390000D03*
X146390000Y-89040000D03*
X146390000Y-89690000D03*
X146390000Y-90340000D03*
X146390000Y-90990000D03*
X146390000Y-91640000D03*
X146390000Y-92290000D03*
X146390000Y-92940000D03*
X146390000Y-94240000D03*
X146390000Y-94890000D03*
X146390000Y-95540000D03*
X146390000Y-96190000D03*
X146390000Y-96840000D03*
X145740000Y-83840000D03*
X145740000Y-84490000D03*
X145740000Y-85140000D03*
X145740000Y-85790000D03*
X145740000Y-86440000D03*
X145740000Y-87090000D03*
X145740000Y-88390000D03*
X145740000Y-89040000D03*
X145740000Y-89690000D03*
X145740000Y-90340000D03*
X145740000Y-90990000D03*
X145740000Y-91640000D03*
X145740000Y-92290000D03*
X145740000Y-92940000D03*
X145740000Y-94890000D03*
X145740000Y-95540000D03*
X145740000Y-96190000D03*
X145090000Y-84490000D03*
X145090000Y-85140000D03*
X145090000Y-85790000D03*
X145090000Y-86440000D03*
X145090000Y-87090000D03*
X145090000Y-88390000D03*
X145090000Y-89040000D03*
X145090000Y-89690000D03*
X145090000Y-90340000D03*
X145090000Y-90990000D03*
X145090000Y-91640000D03*
X145090000Y-92290000D03*
X145090000Y-92940000D03*
X145090000Y-94890000D03*
X145090000Y-95540000D03*
X145090000Y-96190000D03*
X145090000Y-96840000D03*
X144440000Y-83840000D03*
X144440000Y-84490000D03*
X144440000Y-85140000D03*
X144440000Y-94890000D03*
X144440000Y-95540000D03*
X144440000Y-96190000D03*
X143790000Y-84490000D03*
X143790000Y-85140000D03*
X143790000Y-85790000D03*
X143790000Y-86440000D03*
X143790000Y-87090000D03*
X143790000Y-87740000D03*
X143790000Y-89040000D03*
X143790000Y-89690000D03*
X143790000Y-90990000D03*
X143790000Y-91640000D03*
X143790000Y-92940000D03*
X143790000Y-93590000D03*
X143790000Y-94890000D03*
X143790000Y-95540000D03*
X143790000Y-96190000D03*
X143790000Y-96840000D03*
X143140000Y-83840000D03*
X143140000Y-84490000D03*
X143140000Y-85140000D03*
X143140000Y-85790000D03*
X143140000Y-86440000D03*
X143140000Y-87090000D03*
X143140000Y-87740000D03*
X143140000Y-89040000D03*
X143140000Y-89690000D03*
X143140000Y-90990000D03*
X143140000Y-91640000D03*
X143140000Y-92940000D03*
X143140000Y-93590000D03*
X143140000Y-94890000D03*
X143140000Y-96190000D03*
X143140000Y-96840000D03*
X142490000Y-83840000D03*
X142490000Y-84490000D03*
X142490000Y-85140000D03*
X142490000Y-85790000D03*
X142490000Y-86440000D03*
X142490000Y-87090000D03*
X142490000Y-89040000D03*
X142490000Y-90990000D03*
X142490000Y-92940000D03*
X142490000Y-94890000D03*
X142490000Y-95540000D03*
X142490000Y-96190000D03*
X142490000Y-96840000D03*
X141840000Y-83840000D03*
X141840000Y-84490000D03*
X141840000Y-85140000D03*
X141840000Y-85790000D03*
X141840000Y-86440000D03*
X141840000Y-87090000D03*
X141840000Y-87740000D03*
X141840000Y-88390000D03*
X141840000Y-89040000D03*
X141840000Y-89690000D03*
X141840000Y-90340000D03*
X141840000Y-90990000D03*
X141840000Y-92290000D03*
X141840000Y-92940000D03*
X141840000Y-93590000D03*
X141840000Y-94240000D03*
X141840000Y-94890000D03*
X141840000Y-96190000D03*
X141840000Y-96840000D03*
X141190000Y-83840000D03*
X141190000Y-84490000D03*
X141190000Y-85140000D03*
X141190000Y-85790000D03*
X141190000Y-86440000D03*
X141190000Y-87090000D03*
X141190000Y-88390000D03*
X141190000Y-89040000D03*
X141190000Y-89690000D03*
X141190000Y-90340000D03*
X141190000Y-90990000D03*
X141190000Y-91640000D03*
X141190000Y-92290000D03*
X141190000Y-92940000D03*
X141190000Y-93590000D03*
X141190000Y-94240000D03*
X141190000Y-94890000D03*
X141190000Y-95540000D03*
X141190000Y-96190000D03*
X141190000Y-96840000D03*
X140540000Y-83840000D03*
X140540000Y-84490000D03*
X140540000Y-85140000D03*
X140540000Y-86440000D03*
X140540000Y-88390000D03*
X140540000Y-89690000D03*
X140540000Y-90990000D03*
X140540000Y-92940000D03*
X140540000Y-94240000D03*
X140540000Y-95540000D03*
X140540000Y-96190000D03*
X140540000Y-96840000D03*
G36*
G01*
X136870000Y-104142500D02*
X137190000Y-104142500D01*
G75*
G02*
X137350000Y-104302500I0J-160000D01*
G01*
X137350000Y-104697500D01*
G75*
G02*
X137190000Y-104857500I-160000J0D01*
G01*
X136870000Y-104857500D01*
G75*
G02*
X136710000Y-104697500I0J160000D01*
G01*
X136710000Y-104302500D01*
G75*
G02*
X136870000Y-104142500I160000J0D01*
G01*
G37*
G36*
G01*
X136870000Y-105337500D02*
X137190000Y-105337500D01*
G75*
G02*
X137350000Y-105497500I0J-160000D01*
G01*
X137350000Y-105892500D01*
G75*
G02*
X137190000Y-106052500I-160000J0D01*
G01*
X136870000Y-106052500D01*
G75*
G02*
X136710000Y-105892500I0J160000D01*
G01*
X136710000Y-105497500D01*
G75*
G02*
X136870000Y-105337500I160000J0D01*
G01*
G37*
D11*
X133590000Y-118110000D03*
X133590000Y-116460000D03*
G36*
G01*
X152417500Y-82935000D02*
X151942500Y-82935000D01*
G75*
G02*
X151705000Y-82697500I0J237500D01*
G01*
X151705000Y-82122500D01*
G75*
G02*
X151942500Y-81885000I237500J0D01*
G01*
X152417500Y-81885000D01*
G75*
G02*
X152655000Y-82122500I0J-237500D01*
G01*
X152655000Y-82697500D01*
G75*
G02*
X152417500Y-82935000I-237500J0D01*
G01*
G37*
G36*
G01*
X152417500Y-81185000D02*
X151942500Y-81185000D01*
G75*
G02*
X151705000Y-80947500I0J237500D01*
G01*
X151705000Y-80372500D01*
G75*
G02*
X151942500Y-80135000I237500J0D01*
G01*
X152417500Y-80135000D01*
G75*
G02*
X152655000Y-80372500I0J-237500D01*
G01*
X152655000Y-80947500D01*
G75*
G02*
X152417500Y-81185000I-237500J0D01*
G01*
G37*
D10*
X132150000Y-131790000D03*
D13*
X146200000Y-131270000D03*
X151980000Y-131270000D03*
D14*
X145890000Y-130210000D03*
X146690000Y-130210000D03*
D15*
X147840000Y-130210000D03*
X148840000Y-130210000D03*
X149340000Y-130210000D03*
X150340000Y-130210000D03*
D14*
X151490000Y-130210000D03*
X152290000Y-130210000D03*
X152290000Y-130210000D03*
X151490000Y-130210000D03*
D15*
X150840000Y-130210000D03*
X149840000Y-130210000D03*
X148340000Y-130210000D03*
X147340000Y-130210000D03*
D14*
X146690000Y-130210000D03*
X145890000Y-130210000D03*
D16*
X144770000Y-130790000D03*
D17*
X144770000Y-134960000D03*
D16*
X153410000Y-130790000D03*
D17*
X153410000Y-134960000D03*
G36*
G01*
X153020000Y-72202500D02*
X152700000Y-72202500D01*
G75*
G02*
X152540000Y-72042500I0J160000D01*
G01*
X152540000Y-71647500D01*
G75*
G02*
X152700000Y-71487500I160000J0D01*
G01*
X153020000Y-71487500D01*
G75*
G02*
X153180000Y-71647500I0J-160000D01*
G01*
X153180000Y-72042500D01*
G75*
G02*
X153020000Y-72202500I-160000J0D01*
G01*
G37*
G36*
G01*
X153020000Y-71007500D02*
X152700000Y-71007500D01*
G75*
G02*
X152540000Y-70847500I0J160000D01*
G01*
X152540000Y-70452500D01*
G75*
G02*
X152700000Y-70292500I160000J0D01*
G01*
X153020000Y-70292500D01*
G75*
G02*
X153180000Y-70452500I0J-160000D01*
G01*
X153180000Y-70847500D01*
G75*
G02*
X153020000Y-71007500I-160000J0D01*
G01*
G37*
D10*
X147160000Y-117340000D03*
G36*
G01*
X133162500Y-115105000D02*
X133162500Y-114795000D01*
G75*
G02*
X133317500Y-114640000I155000J0D01*
G01*
X133742500Y-114640000D01*
G75*
G02*
X133897500Y-114795000I0J-155000D01*
G01*
X133897500Y-115105000D01*
G75*
G02*
X133742500Y-115260000I-155000J0D01*
G01*
X133317500Y-115260000D01*
G75*
G02*
X133162500Y-115105000I0J155000D01*
G01*
G37*
G36*
G01*
X134297500Y-115105000D02*
X134297500Y-114795000D01*
G75*
G02*
X134452500Y-114640000I155000J0D01*
G01*
X134877500Y-114640000D01*
G75*
G02*
X135032500Y-114795000I0J-155000D01*
G01*
X135032500Y-115105000D01*
G75*
G02*
X134877500Y-115260000I-155000J0D01*
G01*
X134452500Y-115260000D01*
G75*
G02*
X134297500Y-115105000I0J155000D01*
G01*
G37*
G36*
G01*
X147030000Y-122367500D02*
X146710000Y-122367500D01*
G75*
G02*
X146550000Y-122207500I0J160000D01*
G01*
X146550000Y-121812500D01*
G75*
G02*
X146710000Y-121652500I160000J0D01*
G01*
X147030000Y-121652500D01*
G75*
G02*
X147190000Y-121812500I0J-160000D01*
G01*
X147190000Y-122207500D01*
G75*
G02*
X147030000Y-122367500I-160000J0D01*
G01*
G37*
G36*
G01*
X147030000Y-121172500D02*
X146710000Y-121172500D01*
G75*
G02*
X146550000Y-121012500I0J160000D01*
G01*
X146550000Y-120617500D01*
G75*
G02*
X146710000Y-120457500I160000J0D01*
G01*
X147030000Y-120457500D01*
G75*
G02*
X147190000Y-120617500I0J-160000D01*
G01*
X147190000Y-121012500D01*
G75*
G02*
X147030000Y-121172500I-160000J0D01*
G01*
G37*
G36*
G01*
X145860000Y-122397500D02*
X145540000Y-122397500D01*
G75*
G02*
X145380000Y-122237500I0J160000D01*
G01*
X145380000Y-121842500D01*
G75*
G02*
X145540000Y-121682500I160000J0D01*
G01*
X145860000Y-121682500D01*
G75*
G02*
X146020000Y-121842500I0J-160000D01*
G01*
X146020000Y-122237500D01*
G75*
G02*
X145860000Y-122397500I-160000J0D01*
G01*
G37*
G36*
G01*
X145860000Y-121202500D02*
X145540000Y-121202500D01*
G75*
G02*
X145380000Y-121042500I0J160000D01*
G01*
X145380000Y-120647500D01*
G75*
G02*
X145540000Y-120487500I160000J0D01*
G01*
X145860000Y-120487500D01*
G75*
G02*
X146020000Y-120647500I0J-160000D01*
G01*
X146020000Y-121042500D01*
G75*
G02*
X145860000Y-121202500I-160000J0D01*
G01*
G37*
D18*
X136200000Y-129880000D03*
X137850000Y-129880000D03*
G36*
G01*
X142595000Y-129677500D02*
X142285000Y-129677500D01*
G75*
G02*
X142130000Y-129522500I0J155000D01*
G01*
X142130000Y-129097500D01*
G75*
G02*
X142285000Y-128942500I155000J0D01*
G01*
X142595000Y-128942500D01*
G75*
G02*
X142750000Y-129097500I0J-155000D01*
G01*
X142750000Y-129522500D01*
G75*
G02*
X142595000Y-129677500I-155000J0D01*
G01*
G37*
G36*
G01*
X142595000Y-128542500D02*
X142285000Y-128542500D01*
G75*
G02*
X142130000Y-128387500I0J155000D01*
G01*
X142130000Y-127962500D01*
G75*
G02*
X142285000Y-127807500I155000J0D01*
G01*
X142595000Y-127807500D01*
G75*
G02*
X142750000Y-127962500I0J-155000D01*
G01*
X142750000Y-128387500D01*
G75*
G02*
X142595000Y-128542500I-155000J0D01*
G01*
G37*
G36*
G01*
X152942500Y-128100000D02*
X152942500Y-128420000D01*
G75*
G02*
X152782500Y-128580000I-160000J0D01*
G01*
X152387500Y-128580000D01*
G75*
G02*
X152227500Y-128420000I0J160000D01*
G01*
X152227500Y-128100000D01*
G75*
G02*
X152387500Y-127940000I160000J0D01*
G01*
X152782500Y-127940000D01*
G75*
G02*
X152942500Y-128100000I0J-160000D01*
G01*
G37*
G36*
G01*
X151747500Y-128100000D02*
X151747500Y-128420000D01*
G75*
G02*
X151587500Y-128580000I-160000J0D01*
G01*
X151192500Y-128580000D01*
G75*
G02*
X151032500Y-128420000I0J160000D01*
G01*
X151032500Y-128100000D01*
G75*
G02*
X151192500Y-127940000I160000J0D01*
G01*
X151587500Y-127940000D01*
G75*
G02*
X151747500Y-128100000I0J-160000D01*
G01*
G37*
G36*
G01*
X139485000Y-132382500D02*
X139175000Y-132382500D01*
G75*
G02*
X139020000Y-132227500I0J155000D01*
G01*
X139020000Y-131802500D01*
G75*
G02*
X139175000Y-131647500I155000J0D01*
G01*
X139485000Y-131647500D01*
G75*
G02*
X139640000Y-131802500I0J-155000D01*
G01*
X139640000Y-132227500D01*
G75*
G02*
X139485000Y-132382500I-155000J0D01*
G01*
G37*
G36*
G01*
X139485000Y-131247500D02*
X139175000Y-131247500D01*
G75*
G02*
X139020000Y-131092500I0J155000D01*
G01*
X139020000Y-130667500D01*
G75*
G02*
X139175000Y-130512500I155000J0D01*
G01*
X139485000Y-130512500D01*
G75*
G02*
X139640000Y-130667500I0J-155000D01*
G01*
X139640000Y-131092500D01*
G75*
G02*
X139485000Y-131247500I-155000J0D01*
G01*
G37*
G36*
G01*
X149577500Y-82915000D02*
X149102500Y-82915000D01*
G75*
G02*
X148865000Y-82677500I0J237500D01*
G01*
X148865000Y-82102500D01*
G75*
G02*
X149102500Y-81865000I237500J0D01*
G01*
X149577500Y-81865000D01*
G75*
G02*
X149815000Y-82102500I0J-237500D01*
G01*
X149815000Y-82677500D01*
G75*
G02*
X149577500Y-82915000I-237500J0D01*
G01*
G37*
G36*
G01*
X149577500Y-81165000D02*
X149102500Y-81165000D01*
G75*
G02*
X148865000Y-80927500I0J237500D01*
G01*
X148865000Y-80352500D01*
G75*
G02*
X149102500Y-80115000I237500J0D01*
G01*
X149577500Y-80115000D01*
G75*
G02*
X149815000Y-80352500I0J-237500D01*
G01*
X149815000Y-80927500D01*
G75*
G02*
X149577500Y-81165000I-237500J0D01*
G01*
G37*
G36*
G01*
X152700000Y-83732500D02*
X153020000Y-83732500D01*
G75*
G02*
X153180000Y-83892500I0J-160000D01*
G01*
X153180000Y-84287500D01*
G75*
G02*
X153020000Y-84447500I-160000J0D01*
G01*
X152700000Y-84447500D01*
G75*
G02*
X152540000Y-84287500I0J160000D01*
G01*
X152540000Y-83892500D01*
G75*
G02*
X152700000Y-83732500I160000J0D01*
G01*
G37*
G36*
G01*
X152700000Y-84927500D02*
X153020000Y-84927500D01*
G75*
G02*
X153180000Y-85087500I0J-160000D01*
G01*
X153180000Y-85482500D01*
G75*
G02*
X153020000Y-85642500I-160000J0D01*
G01*
X152700000Y-85642500D01*
G75*
G02*
X152540000Y-85482500I0J160000D01*
G01*
X152540000Y-85087500D01*
G75*
G02*
X152700000Y-84927500I160000J0D01*
G01*
G37*
D10*
X153500000Y-74000000D03*
G36*
G01*
X144232500Y-123455000D02*
X144232500Y-123765000D01*
G75*
G02*
X144077500Y-123920000I-155000J0D01*
G01*
X143652500Y-123920000D01*
G75*
G02*
X143497500Y-123765000I0J155000D01*
G01*
X143497500Y-123455000D01*
G75*
G02*
X143652500Y-123300000I155000J0D01*
G01*
X144077500Y-123300000D01*
G75*
G02*
X144232500Y-123455000I0J-155000D01*
G01*
G37*
G36*
G01*
X143097500Y-123455000D02*
X143097500Y-123765000D01*
G75*
G02*
X142942500Y-123920000I-155000J0D01*
G01*
X142517500Y-123920000D01*
G75*
G02*
X142362500Y-123765000I0J155000D01*
G01*
X142362500Y-123455000D01*
G75*
G02*
X142517500Y-123300000I155000J0D01*
G01*
X142942500Y-123300000D01*
G75*
G02*
X143097500Y-123455000I0J-155000D01*
G01*
G37*
G36*
G01*
X132305000Y-129572500D02*
X131995000Y-129572500D01*
G75*
G02*
X131840000Y-129417500I0J155000D01*
G01*
X131840000Y-128992500D01*
G75*
G02*
X131995000Y-128837500I155000J0D01*
G01*
X132305000Y-128837500D01*
G75*
G02*
X132460000Y-128992500I0J-155000D01*
G01*
X132460000Y-129417500D01*
G75*
G02*
X132305000Y-129572500I-155000J0D01*
G01*
G37*
G36*
G01*
X132305000Y-128437500D02*
X131995000Y-128437500D01*
G75*
G02*
X131840000Y-128282500I0J155000D01*
G01*
X131840000Y-127857500D01*
G75*
G02*
X131995000Y-127702500I155000J0D01*
G01*
X132305000Y-127702500D01*
G75*
G02*
X132460000Y-127857500I0J-155000D01*
G01*
X132460000Y-128282500D01*
G75*
G02*
X132305000Y-128437500I-155000J0D01*
G01*
G37*
G36*
G01*
X132505000Y-124602500D02*
X132815000Y-124602500D01*
G75*
G02*
X132970000Y-124757500I0J-155000D01*
G01*
X132970000Y-125182500D01*
G75*
G02*
X132815000Y-125337500I-155000J0D01*
G01*
X132505000Y-125337500D01*
G75*
G02*
X132350000Y-125182500I0J155000D01*
G01*
X132350000Y-124757500D01*
G75*
G02*
X132505000Y-124602500I155000J0D01*
G01*
G37*
G36*
G01*
X132505000Y-125737500D02*
X132815000Y-125737500D01*
G75*
G02*
X132970000Y-125892500I0J-155000D01*
G01*
X132970000Y-126317500D01*
G75*
G02*
X132815000Y-126472500I-155000J0D01*
G01*
X132505000Y-126472500D01*
G75*
G02*
X132350000Y-126317500I0J155000D01*
G01*
X132350000Y-125892500D01*
G75*
G02*
X132505000Y-125737500I155000J0D01*
G01*
G37*
G36*
G01*
X135112500Y-133315000D02*
X135112500Y-134615000D01*
G75*
G02*
X134862500Y-134865000I-250000J0D01*
G01*
X134037500Y-134865000D01*
G75*
G02*
X133787500Y-134615000I0J250000D01*
G01*
X133787500Y-133315000D01*
G75*
G02*
X134037500Y-133065000I250000J0D01*
G01*
X134862500Y-133065000D01*
G75*
G02*
X135112500Y-133315000I0J-250000D01*
G01*
G37*
G36*
G01*
X131987500Y-133315000D02*
X131987500Y-134615000D01*
G75*
G02*
X131737500Y-134865000I-250000J0D01*
G01*
X130912500Y-134865000D01*
G75*
G02*
X130662500Y-134615000I0J250000D01*
G01*
X130662500Y-133315000D01*
G75*
G02*
X130912500Y-133065000I250000J0D01*
G01*
X131737500Y-133065000D01*
G75*
G02*
X131987500Y-133315000I0J-250000D01*
G01*
G37*
G36*
G01*
X138695000Y-118497500D02*
X138385000Y-118497500D01*
G75*
G02*
X138230000Y-118342500I0J155000D01*
G01*
X138230000Y-117917500D01*
G75*
G02*
X138385000Y-117762500I155000J0D01*
G01*
X138695000Y-117762500D01*
G75*
G02*
X138850000Y-117917500I0J-155000D01*
G01*
X138850000Y-118342500D01*
G75*
G02*
X138695000Y-118497500I-155000J0D01*
G01*
G37*
G36*
G01*
X138695000Y-117362500D02*
X138385000Y-117362500D01*
G75*
G02*
X138230000Y-117207500I0J155000D01*
G01*
X138230000Y-116782500D01*
G75*
G02*
X138385000Y-116627500I155000J0D01*
G01*
X138695000Y-116627500D01*
G75*
G02*
X138850000Y-116782500I0J-155000D01*
G01*
X138850000Y-117207500D01*
G75*
G02*
X138695000Y-117362500I-155000J0D01*
G01*
G37*
G36*
G01*
X147925000Y-110625000D02*
X147615000Y-110625000D01*
G75*
G02*
X147460000Y-110470000I0J155000D01*
G01*
X147460000Y-110045000D01*
G75*
G02*
X147615000Y-109890000I155000J0D01*
G01*
X147925000Y-109890000D01*
G75*
G02*
X148080000Y-110045000I0J-155000D01*
G01*
X148080000Y-110470000D01*
G75*
G02*
X147925000Y-110625000I-155000J0D01*
G01*
G37*
G36*
G01*
X147925000Y-109490000D02*
X147615000Y-109490000D01*
G75*
G02*
X147460000Y-109335000I0J155000D01*
G01*
X147460000Y-108910000D01*
G75*
G02*
X147615000Y-108755000I155000J0D01*
G01*
X147925000Y-108755000D01*
G75*
G02*
X148080000Y-108910000I0J-155000D01*
G01*
X148080000Y-109335000D01*
G75*
G02*
X147925000Y-109490000I-155000J0D01*
G01*
G37*
G36*
G01*
X140635000Y-116597500D02*
X140945000Y-116597500D01*
G75*
G02*
X141100000Y-116752500I0J-155000D01*
G01*
X141100000Y-117177500D01*
G75*
G02*
X140945000Y-117332500I-155000J0D01*
G01*
X140635000Y-117332500D01*
G75*
G02*
X140480000Y-117177500I0J155000D01*
G01*
X140480000Y-116752500D01*
G75*
G02*
X140635000Y-116597500I155000J0D01*
G01*
G37*
G36*
G01*
X140635000Y-117732500D02*
X140945000Y-117732500D01*
G75*
G02*
X141100000Y-117887500I0J-155000D01*
G01*
X141100000Y-118312500D01*
G75*
G02*
X140945000Y-118467500I-155000J0D01*
G01*
X140635000Y-118467500D01*
G75*
G02*
X140480000Y-118312500I0J155000D01*
G01*
X140480000Y-117887500D01*
G75*
G02*
X140635000Y-117732500I155000J0D01*
G01*
G37*
G36*
G01*
X135280000Y-126800000D02*
X135180000Y-126800000D01*
G75*
G02*
X135130000Y-126750000I0J50000D01*
G01*
X135130000Y-126050000D01*
G75*
G02*
X135180000Y-126000000I50000J0D01*
G01*
X135280000Y-126000000D01*
G75*
G02*
X135330000Y-126050000I0J-50000D01*
G01*
X135330000Y-126750000D01*
G75*
G02*
X135280000Y-126800000I-50000J0D01*
G01*
G37*
G36*
G01*
X135680000Y-126800000D02*
X135580000Y-126800000D01*
G75*
G02*
X135530000Y-126750000I0J50000D01*
G01*
X135530000Y-126050000D01*
G75*
G02*
X135580000Y-126000000I50000J0D01*
G01*
X135680000Y-126000000D01*
G75*
G02*
X135730000Y-126050000I0J-50000D01*
G01*
X135730000Y-126750000D01*
G75*
G02*
X135680000Y-126800000I-50000J0D01*
G01*
G37*
G36*
G01*
X136080000Y-126800000D02*
X135980000Y-126800000D01*
G75*
G02*
X135930000Y-126750000I0J50000D01*
G01*
X135930000Y-126050000D01*
G75*
G02*
X135980000Y-126000000I50000J0D01*
G01*
X136080000Y-126000000D01*
G75*
G02*
X136130000Y-126050000I0J-50000D01*
G01*
X136130000Y-126750000D01*
G75*
G02*
X136080000Y-126800000I-50000J0D01*
G01*
G37*
G36*
G01*
X136480000Y-126800000D02*
X136380000Y-126800000D01*
G75*
G02*
X136330000Y-126750000I0J50000D01*
G01*
X136330000Y-126050000D01*
G75*
G02*
X136380000Y-126000000I50000J0D01*
G01*
X136480000Y-126000000D01*
G75*
G02*
X136530000Y-126050000I0J-50000D01*
G01*
X136530000Y-126750000D01*
G75*
G02*
X136480000Y-126800000I-50000J0D01*
G01*
G37*
G36*
G01*
X136880000Y-126800000D02*
X136780000Y-126800000D01*
G75*
G02*
X136730000Y-126750000I0J50000D01*
G01*
X136730000Y-126050000D01*
G75*
G02*
X136780000Y-126000000I50000J0D01*
G01*
X136880000Y-126000000D01*
G75*
G02*
X136930000Y-126050000I0J-50000D01*
G01*
X136930000Y-126750000D01*
G75*
G02*
X136880000Y-126800000I-50000J0D01*
G01*
G37*
G36*
G01*
X137280000Y-126800000D02*
X137180000Y-126800000D01*
G75*
G02*
X137130000Y-126750000I0J50000D01*
G01*
X137130000Y-126050000D01*
G75*
G02*
X137180000Y-126000000I50000J0D01*
G01*
X137280000Y-126000000D01*
G75*
G02*
X137330000Y-126050000I0J-50000D01*
G01*
X137330000Y-126750000D01*
G75*
G02*
X137280000Y-126800000I-50000J0D01*
G01*
G37*
G36*
G01*
X137680000Y-126800000D02*
X137580000Y-126800000D01*
G75*
G02*
X137530000Y-126750000I0J50000D01*
G01*
X137530000Y-126050000D01*
G75*
G02*
X137580000Y-126000000I50000J0D01*
G01*
X137680000Y-126000000D01*
G75*
G02*
X137730000Y-126050000I0J-50000D01*
G01*
X137730000Y-126750000D01*
G75*
G02*
X137680000Y-126800000I-50000J0D01*
G01*
G37*
G36*
G01*
X138080000Y-126800000D02*
X137980000Y-126800000D01*
G75*
G02*
X137930000Y-126750000I0J50000D01*
G01*
X137930000Y-126050000D01*
G75*
G02*
X137980000Y-126000000I50000J0D01*
G01*
X138080000Y-126000000D01*
G75*
G02*
X138130000Y-126050000I0J-50000D01*
G01*
X138130000Y-126750000D01*
G75*
G02*
X138080000Y-126800000I-50000J0D01*
G01*
G37*
G36*
G01*
X138480000Y-126800000D02*
X138380000Y-126800000D01*
G75*
G02*
X138330000Y-126750000I0J50000D01*
G01*
X138330000Y-126050000D01*
G75*
G02*
X138380000Y-126000000I50000J0D01*
G01*
X138480000Y-126000000D01*
G75*
G02*
X138530000Y-126050000I0J-50000D01*
G01*
X138530000Y-126750000D01*
G75*
G02*
X138480000Y-126800000I-50000J0D01*
G01*
G37*
G36*
G01*
X138880000Y-126800000D02*
X138780000Y-126800000D01*
G75*
G02*
X138730000Y-126750000I0J50000D01*
G01*
X138730000Y-126050000D01*
G75*
G02*
X138780000Y-126000000I50000J0D01*
G01*
X138880000Y-126000000D01*
G75*
G02*
X138930000Y-126050000I0J-50000D01*
G01*
X138930000Y-126750000D01*
G75*
G02*
X138880000Y-126800000I-50000J0D01*
G01*
G37*
G36*
G01*
X139280000Y-126800000D02*
X139180000Y-126800000D01*
G75*
G02*
X139130000Y-126750000I0J50000D01*
G01*
X139130000Y-126050000D01*
G75*
G02*
X139180000Y-126000000I50000J0D01*
G01*
X139280000Y-126000000D01*
G75*
G02*
X139330000Y-126050000I0J-50000D01*
G01*
X139330000Y-126750000D01*
G75*
G02*
X139280000Y-126800000I-50000J0D01*
G01*
G37*
G36*
G01*
X139680000Y-126800000D02*
X139580000Y-126800000D01*
G75*
G02*
X139530000Y-126750000I0J50000D01*
G01*
X139530000Y-126050000D01*
G75*
G02*
X139580000Y-126000000I50000J0D01*
G01*
X139680000Y-126000000D01*
G75*
G02*
X139730000Y-126050000I0J-50000D01*
G01*
X139730000Y-126750000D01*
G75*
G02*
X139680000Y-126800000I-50000J0D01*
G01*
G37*
G36*
G01*
X140080000Y-126800000D02*
X139980000Y-126800000D01*
G75*
G02*
X139930000Y-126750000I0J50000D01*
G01*
X139930000Y-126050000D01*
G75*
G02*
X139980000Y-126000000I50000J0D01*
G01*
X140080000Y-126000000D01*
G75*
G02*
X140130000Y-126050000I0J-50000D01*
G01*
X140130000Y-126750000D01*
G75*
G02*
X140080000Y-126800000I-50000J0D01*
G01*
G37*
G36*
G01*
X140480000Y-126800000D02*
X140380000Y-126800000D01*
G75*
G02*
X140330000Y-126750000I0J50000D01*
G01*
X140330000Y-126050000D01*
G75*
G02*
X140380000Y-126000000I50000J0D01*
G01*
X140480000Y-126000000D01*
G75*
G02*
X140530000Y-126050000I0J-50000D01*
G01*
X140530000Y-126750000D01*
G75*
G02*
X140480000Y-126800000I-50000J0D01*
G01*
G37*
G36*
G01*
X141630000Y-125650000D02*
X140930000Y-125650000D01*
G75*
G02*
X140880000Y-125600000I0J50000D01*
G01*
X140880000Y-125500000D01*
G75*
G02*
X140930000Y-125450000I50000J0D01*
G01*
X141630000Y-125450000D01*
G75*
G02*
X141680000Y-125500000I0J-50000D01*
G01*
X141680000Y-125600000D01*
G75*
G02*
X141630000Y-125650000I-50000J0D01*
G01*
G37*
G36*
G01*
X141630000Y-125250000D02*
X140930000Y-125250000D01*
G75*
G02*
X140880000Y-125200000I0J50000D01*
G01*
X140880000Y-125100000D01*
G75*
G02*
X140930000Y-125050000I50000J0D01*
G01*
X141630000Y-125050000D01*
G75*
G02*
X141680000Y-125100000I0J-50000D01*
G01*
X141680000Y-125200000D01*
G75*
G02*
X141630000Y-125250000I-50000J0D01*
G01*
G37*
G36*
G01*
X141630000Y-124850000D02*
X140930000Y-124850000D01*
G75*
G02*
X140880000Y-124800000I0J50000D01*
G01*
X140880000Y-124700000D01*
G75*
G02*
X140930000Y-124650000I50000J0D01*
G01*
X141630000Y-124650000D01*
G75*
G02*
X141680000Y-124700000I0J-50000D01*
G01*
X141680000Y-124800000D01*
G75*
G02*
X141630000Y-124850000I-50000J0D01*
G01*
G37*
G36*
G01*
X141630000Y-124450000D02*
X140930000Y-124450000D01*
G75*
G02*
X140880000Y-124400000I0J50000D01*
G01*
X140880000Y-124300000D01*
G75*
G02*
X140930000Y-124250000I50000J0D01*
G01*
X141630000Y-124250000D01*
G75*
G02*
X141680000Y-124300000I0J-50000D01*
G01*
X141680000Y-124400000D01*
G75*
G02*
X141630000Y-124450000I-50000J0D01*
G01*
G37*
G36*
G01*
X141630000Y-124050000D02*
X140930000Y-124050000D01*
G75*
G02*
X140880000Y-124000000I0J50000D01*
G01*
X140880000Y-123900000D01*
G75*
G02*
X140930000Y-123850000I50000J0D01*
G01*
X141630000Y-123850000D01*
G75*
G02*
X141680000Y-123900000I0J-50000D01*
G01*
X141680000Y-124000000D01*
G75*
G02*
X141630000Y-124050000I-50000J0D01*
G01*
G37*
G36*
G01*
X141630000Y-123650000D02*
X140930000Y-123650000D01*
G75*
G02*
X140880000Y-123600000I0J50000D01*
G01*
X140880000Y-123500000D01*
G75*
G02*
X140930000Y-123450000I50000J0D01*
G01*
X141630000Y-123450000D01*
G75*
G02*
X141680000Y-123500000I0J-50000D01*
G01*
X141680000Y-123600000D01*
G75*
G02*
X141630000Y-123650000I-50000J0D01*
G01*
G37*
G36*
G01*
X141630000Y-123250000D02*
X140930000Y-123250000D01*
G75*
G02*
X140880000Y-123200000I0J50000D01*
G01*
X140880000Y-123100000D01*
G75*
G02*
X140930000Y-123050000I50000J0D01*
G01*
X141630000Y-123050000D01*
G75*
G02*
X141680000Y-123100000I0J-50000D01*
G01*
X141680000Y-123200000D01*
G75*
G02*
X141630000Y-123250000I-50000J0D01*
G01*
G37*
G36*
G01*
X141630000Y-122850000D02*
X140930000Y-122850000D01*
G75*
G02*
X140880000Y-122800000I0J50000D01*
G01*
X140880000Y-122700000D01*
G75*
G02*
X140930000Y-122650000I50000J0D01*
G01*
X141630000Y-122650000D01*
G75*
G02*
X141680000Y-122700000I0J-50000D01*
G01*
X141680000Y-122800000D01*
G75*
G02*
X141630000Y-122850000I-50000J0D01*
G01*
G37*
G36*
G01*
X141630000Y-122450000D02*
X140930000Y-122450000D01*
G75*
G02*
X140880000Y-122400000I0J50000D01*
G01*
X140880000Y-122300000D01*
G75*
G02*
X140930000Y-122250000I50000J0D01*
G01*
X141630000Y-122250000D01*
G75*
G02*
X141680000Y-122300000I0J-50000D01*
G01*
X141680000Y-122400000D01*
G75*
G02*
X141630000Y-122450000I-50000J0D01*
G01*
G37*
G36*
G01*
X141630000Y-122050000D02*
X140930000Y-122050000D01*
G75*
G02*
X140880000Y-122000000I0J50000D01*
G01*
X140880000Y-121900000D01*
G75*
G02*
X140930000Y-121850000I50000J0D01*
G01*
X141630000Y-121850000D01*
G75*
G02*
X141680000Y-121900000I0J-50000D01*
G01*
X141680000Y-122000000D01*
G75*
G02*
X141630000Y-122050000I-50000J0D01*
G01*
G37*
G36*
G01*
X141630000Y-121650000D02*
X140930000Y-121650000D01*
G75*
G02*
X140880000Y-121600000I0J50000D01*
G01*
X140880000Y-121500000D01*
G75*
G02*
X140930000Y-121450000I50000J0D01*
G01*
X141630000Y-121450000D01*
G75*
G02*
X141680000Y-121500000I0J-50000D01*
G01*
X141680000Y-121600000D01*
G75*
G02*
X141630000Y-121650000I-50000J0D01*
G01*
G37*
G36*
G01*
X141630000Y-121250000D02*
X140930000Y-121250000D01*
G75*
G02*
X140880000Y-121200000I0J50000D01*
G01*
X140880000Y-121100000D01*
G75*
G02*
X140930000Y-121050000I50000J0D01*
G01*
X141630000Y-121050000D01*
G75*
G02*
X141680000Y-121100000I0J-50000D01*
G01*
X141680000Y-121200000D01*
G75*
G02*
X141630000Y-121250000I-50000J0D01*
G01*
G37*
G36*
G01*
X141630000Y-120850000D02*
X140930000Y-120850000D01*
G75*
G02*
X140880000Y-120800000I0J50000D01*
G01*
X140880000Y-120700000D01*
G75*
G02*
X140930000Y-120650000I50000J0D01*
G01*
X141630000Y-120650000D01*
G75*
G02*
X141680000Y-120700000I0J-50000D01*
G01*
X141680000Y-120800000D01*
G75*
G02*
X141630000Y-120850000I-50000J0D01*
G01*
G37*
G36*
G01*
X141630000Y-120450000D02*
X140930000Y-120450000D01*
G75*
G02*
X140880000Y-120400000I0J50000D01*
G01*
X140880000Y-120300000D01*
G75*
G02*
X140930000Y-120250000I50000J0D01*
G01*
X141630000Y-120250000D01*
G75*
G02*
X141680000Y-120300000I0J-50000D01*
G01*
X141680000Y-120400000D01*
G75*
G02*
X141630000Y-120450000I-50000J0D01*
G01*
G37*
G36*
G01*
X140480000Y-119900000D02*
X140380000Y-119900000D01*
G75*
G02*
X140330000Y-119850000I0J50000D01*
G01*
X140330000Y-119150000D01*
G75*
G02*
X140380000Y-119100000I50000J0D01*
G01*
X140480000Y-119100000D01*
G75*
G02*
X140530000Y-119150000I0J-50000D01*
G01*
X140530000Y-119850000D01*
G75*
G02*
X140480000Y-119900000I-50000J0D01*
G01*
G37*
G36*
G01*
X140080000Y-119900000D02*
X139980000Y-119900000D01*
G75*
G02*
X139930000Y-119850000I0J50000D01*
G01*
X139930000Y-119150000D01*
G75*
G02*
X139980000Y-119100000I50000J0D01*
G01*
X140080000Y-119100000D01*
G75*
G02*
X140130000Y-119150000I0J-50000D01*
G01*
X140130000Y-119850000D01*
G75*
G02*
X140080000Y-119900000I-50000J0D01*
G01*
G37*
G36*
G01*
X139680000Y-119900000D02*
X139580000Y-119900000D01*
G75*
G02*
X139530000Y-119850000I0J50000D01*
G01*
X139530000Y-119150000D01*
G75*
G02*
X139580000Y-119100000I50000J0D01*
G01*
X139680000Y-119100000D01*
G75*
G02*
X139730000Y-119150000I0J-50000D01*
G01*
X139730000Y-119850000D01*
G75*
G02*
X139680000Y-119900000I-50000J0D01*
G01*
G37*
G36*
G01*
X139280000Y-119900000D02*
X139180000Y-119900000D01*
G75*
G02*
X139130000Y-119850000I0J50000D01*
G01*
X139130000Y-119150000D01*
G75*
G02*
X139180000Y-119100000I50000J0D01*
G01*
X139280000Y-119100000D01*
G75*
G02*
X139330000Y-119150000I0J-50000D01*
G01*
X139330000Y-119850000D01*
G75*
G02*
X139280000Y-119900000I-50000J0D01*
G01*
G37*
G36*
G01*
X138880000Y-119900000D02*
X138780000Y-119900000D01*
G75*
G02*
X138730000Y-119850000I0J50000D01*
G01*
X138730000Y-119150000D01*
G75*
G02*
X138780000Y-119100000I50000J0D01*
G01*
X138880000Y-119100000D01*
G75*
G02*
X138930000Y-119150000I0J-50000D01*
G01*
X138930000Y-119850000D01*
G75*
G02*
X138880000Y-119900000I-50000J0D01*
G01*
G37*
G36*
G01*
X138480000Y-119900000D02*
X138380000Y-119900000D01*
G75*
G02*
X138330000Y-119850000I0J50000D01*
G01*
X138330000Y-119150000D01*
G75*
G02*
X138380000Y-119100000I50000J0D01*
G01*
X138480000Y-119100000D01*
G75*
G02*
X138530000Y-119150000I0J-50000D01*
G01*
X138530000Y-119850000D01*
G75*
G02*
X138480000Y-119900000I-50000J0D01*
G01*
G37*
G36*
G01*
X138080000Y-119900000D02*
X137980000Y-119900000D01*
G75*
G02*
X137930000Y-119850000I0J50000D01*
G01*
X137930000Y-119150000D01*
G75*
G02*
X137980000Y-119100000I50000J0D01*
G01*
X138080000Y-119100000D01*
G75*
G02*
X138130000Y-119150000I0J-50000D01*
G01*
X138130000Y-119850000D01*
G75*
G02*
X138080000Y-119900000I-50000J0D01*
G01*
G37*
G36*
G01*
X137680000Y-119900000D02*
X137580000Y-119900000D01*
G75*
G02*
X137530000Y-119850000I0J50000D01*
G01*
X137530000Y-119150000D01*
G75*
G02*
X137580000Y-119100000I50000J0D01*
G01*
X137680000Y-119100000D01*
G75*
G02*
X137730000Y-119150000I0J-50000D01*
G01*
X137730000Y-119850000D01*
G75*
G02*
X137680000Y-119900000I-50000J0D01*
G01*
G37*
G36*
G01*
X137280000Y-119900000D02*
X137180000Y-119900000D01*
G75*
G02*
X137130000Y-119850000I0J50000D01*
G01*
X137130000Y-119150000D01*
G75*
G02*
X137180000Y-119100000I50000J0D01*
G01*
X137280000Y-119100000D01*
G75*
G02*
X137330000Y-119150000I0J-50000D01*
G01*
X137330000Y-119850000D01*
G75*
G02*
X137280000Y-119900000I-50000J0D01*
G01*
G37*
G36*
G01*
X136880000Y-119900000D02*
X136780000Y-119900000D01*
G75*
G02*
X136730000Y-119850000I0J50000D01*
G01*
X136730000Y-119150000D01*
G75*
G02*
X136780000Y-119100000I50000J0D01*
G01*
X136880000Y-119100000D01*
G75*
G02*
X136930000Y-119150000I0J-50000D01*
G01*
X136930000Y-119850000D01*
G75*
G02*
X136880000Y-119900000I-50000J0D01*
G01*
G37*
G36*
G01*
X136480000Y-119900000D02*
X136380000Y-119900000D01*
G75*
G02*
X136330000Y-119850000I0J50000D01*
G01*
X136330000Y-119150000D01*
G75*
G02*
X136380000Y-119100000I50000J0D01*
G01*
X136480000Y-119100000D01*
G75*
G02*
X136530000Y-119150000I0J-50000D01*
G01*
X136530000Y-119850000D01*
G75*
G02*
X136480000Y-119900000I-50000J0D01*
G01*
G37*
G36*
G01*
X136080000Y-119900000D02*
X135980000Y-119900000D01*
G75*
G02*
X135930000Y-119850000I0J50000D01*
G01*
X135930000Y-119150000D01*
G75*
G02*
X135980000Y-119100000I50000J0D01*
G01*
X136080000Y-119100000D01*
G75*
G02*
X136130000Y-119150000I0J-50000D01*
G01*
X136130000Y-119850000D01*
G75*
G02*
X136080000Y-119900000I-50000J0D01*
G01*
G37*
G36*
G01*
X135680000Y-119900000D02*
X135580000Y-119900000D01*
G75*
G02*
X135530000Y-119850000I0J50000D01*
G01*
X135530000Y-119150000D01*
G75*
G02*
X135580000Y-119100000I50000J0D01*
G01*
X135680000Y-119100000D01*
G75*
G02*
X135730000Y-119150000I0J-50000D01*
G01*
X135730000Y-119850000D01*
G75*
G02*
X135680000Y-119900000I-50000J0D01*
G01*
G37*
G36*
G01*
X135280000Y-119900000D02*
X135180000Y-119900000D01*
G75*
G02*
X135130000Y-119850000I0J50000D01*
G01*
X135130000Y-119150000D01*
G75*
G02*
X135180000Y-119100000I50000J0D01*
G01*
X135280000Y-119100000D01*
G75*
G02*
X135330000Y-119150000I0J-50000D01*
G01*
X135330000Y-119850000D01*
G75*
G02*
X135280000Y-119900000I-50000J0D01*
G01*
G37*
G36*
G01*
X134730000Y-120450000D02*
X134030000Y-120450000D01*
G75*
G02*
X133980000Y-120400000I0J50000D01*
G01*
X133980000Y-120300000D01*
G75*
G02*
X134030000Y-120250000I50000J0D01*
G01*
X134730000Y-120250000D01*
G75*
G02*
X134780000Y-120300000I0J-50000D01*
G01*
X134780000Y-120400000D01*
G75*
G02*
X134730000Y-120450000I-50000J0D01*
G01*
G37*
G36*
G01*
X134730000Y-120850000D02*
X134030000Y-120850000D01*
G75*
G02*
X133980000Y-120800000I0J50000D01*
G01*
X133980000Y-120700000D01*
G75*
G02*
X134030000Y-120650000I50000J0D01*
G01*
X134730000Y-120650000D01*
G75*
G02*
X134780000Y-120700000I0J-50000D01*
G01*
X134780000Y-120800000D01*
G75*
G02*
X134730000Y-120850000I-50000J0D01*
G01*
G37*
G36*
G01*
X134730000Y-121250000D02*
X134030000Y-121250000D01*
G75*
G02*
X133980000Y-121200000I0J50000D01*
G01*
X133980000Y-121100000D01*
G75*
G02*
X134030000Y-121050000I50000J0D01*
G01*
X134730000Y-121050000D01*
G75*
G02*
X134780000Y-121100000I0J-50000D01*
G01*
X134780000Y-121200000D01*
G75*
G02*
X134730000Y-121250000I-50000J0D01*
G01*
G37*
G36*
G01*
X134730000Y-121650000D02*
X134030000Y-121650000D01*
G75*
G02*
X133980000Y-121600000I0J50000D01*
G01*
X133980000Y-121500000D01*
G75*
G02*
X134030000Y-121450000I50000J0D01*
G01*
X134730000Y-121450000D01*
G75*
G02*
X134780000Y-121500000I0J-50000D01*
G01*
X134780000Y-121600000D01*
G75*
G02*
X134730000Y-121650000I-50000J0D01*
G01*
G37*
G36*
G01*
X134730000Y-122050000D02*
X134030000Y-122050000D01*
G75*
G02*
X133980000Y-122000000I0J50000D01*
G01*
X133980000Y-121900000D01*
G75*
G02*
X134030000Y-121850000I50000J0D01*
G01*
X134730000Y-121850000D01*
G75*
G02*
X134780000Y-121900000I0J-50000D01*
G01*
X134780000Y-122000000D01*
G75*
G02*
X134730000Y-122050000I-50000J0D01*
G01*
G37*
G36*
G01*
X134730000Y-122450000D02*
X134030000Y-122450000D01*
G75*
G02*
X133980000Y-122400000I0J50000D01*
G01*
X133980000Y-122300000D01*
G75*
G02*
X134030000Y-122250000I50000J0D01*
G01*
X134730000Y-122250000D01*
G75*
G02*
X134780000Y-122300000I0J-50000D01*
G01*
X134780000Y-122400000D01*
G75*
G02*
X134730000Y-122450000I-50000J0D01*
G01*
G37*
G36*
G01*
X134730000Y-122850000D02*
X134030000Y-122850000D01*
G75*
G02*
X133980000Y-122800000I0J50000D01*
G01*
X133980000Y-122700000D01*
G75*
G02*
X134030000Y-122650000I50000J0D01*
G01*
X134730000Y-122650000D01*
G75*
G02*
X134780000Y-122700000I0J-50000D01*
G01*
X134780000Y-122800000D01*
G75*
G02*
X134730000Y-122850000I-50000J0D01*
G01*
G37*
G36*
G01*
X134730000Y-123250000D02*
X134030000Y-123250000D01*
G75*
G02*
X133980000Y-123200000I0J50000D01*
G01*
X133980000Y-123100000D01*
G75*
G02*
X134030000Y-123050000I50000J0D01*
G01*
X134730000Y-123050000D01*
G75*
G02*
X134780000Y-123100000I0J-50000D01*
G01*
X134780000Y-123200000D01*
G75*
G02*
X134730000Y-123250000I-50000J0D01*
G01*
G37*
G36*
G01*
X134730000Y-123650000D02*
X134030000Y-123650000D01*
G75*
G02*
X133980000Y-123600000I0J50000D01*
G01*
X133980000Y-123500000D01*
G75*
G02*
X134030000Y-123450000I50000J0D01*
G01*
X134730000Y-123450000D01*
G75*
G02*
X134780000Y-123500000I0J-50000D01*
G01*
X134780000Y-123600000D01*
G75*
G02*
X134730000Y-123650000I-50000J0D01*
G01*
G37*
G36*
G01*
X134730000Y-124050000D02*
X134030000Y-124050000D01*
G75*
G02*
X133980000Y-124000000I0J50000D01*
G01*
X133980000Y-123900000D01*
G75*
G02*
X134030000Y-123850000I50000J0D01*
G01*
X134730000Y-123850000D01*
G75*
G02*
X134780000Y-123900000I0J-50000D01*
G01*
X134780000Y-124000000D01*
G75*
G02*
X134730000Y-124050000I-50000J0D01*
G01*
G37*
G36*
G01*
X134730000Y-124450000D02*
X134030000Y-124450000D01*
G75*
G02*
X133980000Y-124400000I0J50000D01*
G01*
X133980000Y-124300000D01*
G75*
G02*
X134030000Y-124250000I50000J0D01*
G01*
X134730000Y-124250000D01*
G75*
G02*
X134780000Y-124300000I0J-50000D01*
G01*
X134780000Y-124400000D01*
G75*
G02*
X134730000Y-124450000I-50000J0D01*
G01*
G37*
G36*
G01*
X134730000Y-124850000D02*
X134030000Y-124850000D01*
G75*
G02*
X133980000Y-124800000I0J50000D01*
G01*
X133980000Y-124700000D01*
G75*
G02*
X134030000Y-124650000I50000J0D01*
G01*
X134730000Y-124650000D01*
G75*
G02*
X134780000Y-124700000I0J-50000D01*
G01*
X134780000Y-124800000D01*
G75*
G02*
X134730000Y-124850000I-50000J0D01*
G01*
G37*
G36*
G01*
X134730000Y-125250000D02*
X134030000Y-125250000D01*
G75*
G02*
X133980000Y-125200000I0J50000D01*
G01*
X133980000Y-125100000D01*
G75*
G02*
X134030000Y-125050000I50000J0D01*
G01*
X134730000Y-125050000D01*
G75*
G02*
X134780000Y-125100000I0J-50000D01*
G01*
X134780000Y-125200000D01*
G75*
G02*
X134730000Y-125250000I-50000J0D01*
G01*
G37*
G36*
G01*
X134730000Y-125650000D02*
X134030000Y-125650000D01*
G75*
G02*
X133980000Y-125600000I0J50000D01*
G01*
X133980000Y-125500000D01*
G75*
G02*
X134030000Y-125450000I50000J0D01*
G01*
X134730000Y-125450000D01*
G75*
G02*
X134780000Y-125500000I0J-50000D01*
G01*
X134780000Y-125600000D01*
G75*
G02*
X134730000Y-125650000I-50000J0D01*
G01*
G37*
D19*
X137830000Y-122950000D03*
G36*
G01*
X144375000Y-120145000D02*
X144375000Y-120455000D01*
G75*
G02*
X144220000Y-120610000I-155000J0D01*
G01*
X143795000Y-120610000D01*
G75*
G02*
X143640000Y-120455000I0J155000D01*
G01*
X143640000Y-120145000D01*
G75*
G02*
X143795000Y-119990000I155000J0D01*
G01*
X144220000Y-119990000D01*
G75*
G02*
X144375000Y-120145000I0J-155000D01*
G01*
G37*
G36*
G01*
X143240000Y-120145000D02*
X143240000Y-120455000D01*
G75*
G02*
X143085000Y-120610000I-155000J0D01*
G01*
X142660000Y-120610000D01*
G75*
G02*
X142505000Y-120455000I0J155000D01*
G01*
X142505000Y-120145000D01*
G75*
G02*
X142660000Y-119990000I155000J0D01*
G01*
X143085000Y-119990000D01*
G75*
G02*
X143240000Y-120145000I0J-155000D01*
G01*
G37*
D18*
X132660000Y-123080000D03*
X131010000Y-123080000D03*
D10*
X153290000Y-78270000D03*
G36*
G01*
X133072500Y-113420000D02*
X133072500Y-113110000D01*
G75*
G02*
X133227500Y-112955000I155000J0D01*
G01*
X133652500Y-112955000D01*
G75*
G02*
X133807500Y-113110000I0J-155000D01*
G01*
X133807500Y-113420000D01*
G75*
G02*
X133652500Y-113575000I-155000J0D01*
G01*
X133227500Y-113575000D01*
G75*
G02*
X133072500Y-113420000I0J155000D01*
G01*
G37*
G36*
G01*
X134207500Y-113420000D02*
X134207500Y-113110000D01*
G75*
G02*
X134362500Y-112955000I155000J0D01*
G01*
X134787500Y-112955000D01*
G75*
G02*
X134942500Y-113110000I0J-155000D01*
G01*
X134942500Y-113420000D01*
G75*
G02*
X134787500Y-113575000I-155000J0D01*
G01*
X134362500Y-113575000D01*
G75*
G02*
X134207500Y-113420000I0J155000D01*
G01*
G37*
G36*
G01*
X145902500Y-126790000D02*
X145902500Y-127110000D01*
G75*
G02*
X145742500Y-127270000I-160000J0D01*
G01*
X145347500Y-127270000D01*
G75*
G02*
X145187500Y-127110000I0J160000D01*
G01*
X145187500Y-126790000D01*
G75*
G02*
X145347500Y-126630000I160000J0D01*
G01*
X145742500Y-126630000D01*
G75*
G02*
X145902500Y-126790000I0J-160000D01*
G01*
G37*
G36*
G01*
X144707500Y-126790000D02*
X144707500Y-127110000D01*
G75*
G02*
X144547500Y-127270000I-160000J0D01*
G01*
X144152500Y-127270000D01*
G75*
G02*
X143992500Y-127110000I0J160000D01*
G01*
X143992500Y-126790000D01*
G75*
G02*
X144152500Y-126630000I160000J0D01*
G01*
X144547500Y-126630000D01*
G75*
G02*
X144707500Y-126790000I0J-160000D01*
G01*
G37*
G36*
G01*
X149465000Y-97817500D02*
X149775000Y-97817500D01*
G75*
G02*
X149930000Y-97972500I0J-155000D01*
G01*
X149930000Y-98397500D01*
G75*
G02*
X149775000Y-98552500I-155000J0D01*
G01*
X149465000Y-98552500D01*
G75*
G02*
X149310000Y-98397500I0J155000D01*
G01*
X149310000Y-97972500D01*
G75*
G02*
X149465000Y-97817500I155000J0D01*
G01*
G37*
G36*
G01*
X149465000Y-98952500D02*
X149775000Y-98952500D01*
G75*
G02*
X149930000Y-99107500I0J-155000D01*
G01*
X149930000Y-99532500D01*
G75*
G02*
X149775000Y-99687500I-155000J0D01*
G01*
X149465000Y-99687500D01*
G75*
G02*
X149310000Y-99532500I0J155000D01*
G01*
X149310000Y-99107500D01*
G75*
G02*
X149465000Y-98952500I155000J0D01*
G01*
G37*
D20*
X131130000Y-84000000D03*
X131930000Y-84000000D03*
X132730000Y-84000000D03*
X135930000Y-84000000D03*
X136730000Y-84000000D03*
X137530000Y-84000000D03*
X131130000Y-84800000D03*
X131930000Y-84800000D03*
X132730000Y-84800000D03*
X135930000Y-84800000D03*
X136730000Y-84800000D03*
X137530000Y-84800000D03*
X131130000Y-85600000D03*
X131930000Y-85600000D03*
X132730000Y-85600000D03*
X135930000Y-85600000D03*
X136730000Y-85600000D03*
X137530000Y-85600000D03*
X131130000Y-86400000D03*
X131930000Y-86400000D03*
X132730000Y-86400000D03*
X135930000Y-86400000D03*
X136730000Y-86400000D03*
X137530000Y-86400000D03*
X131130000Y-87200000D03*
X131930000Y-87200000D03*
X132730000Y-87200000D03*
X135930000Y-87200000D03*
X136730000Y-87200000D03*
X137530000Y-87200000D03*
X131130000Y-88000000D03*
X131930000Y-88000000D03*
X132730000Y-88000000D03*
X135930000Y-88000000D03*
X136730000Y-88000000D03*
X137530000Y-88000000D03*
X131130000Y-88800000D03*
X131930000Y-88800000D03*
X132730000Y-88800000D03*
X135930000Y-88800000D03*
X136730000Y-88800000D03*
X137530000Y-88800000D03*
X131130000Y-89600000D03*
X131930000Y-89600000D03*
X132730000Y-89600000D03*
X135930000Y-89600000D03*
X136730000Y-89600000D03*
X137530000Y-89600000D03*
X131130000Y-90400000D03*
X131930000Y-90400000D03*
X132730000Y-90400000D03*
X135930000Y-90400000D03*
X136730000Y-90400000D03*
X137530000Y-90400000D03*
X131130000Y-91200000D03*
X131930000Y-91200000D03*
X132730000Y-91200000D03*
X135930000Y-91200000D03*
X136730000Y-91200000D03*
X137530000Y-91200000D03*
X131130000Y-92000000D03*
X131930000Y-92000000D03*
X132730000Y-92000000D03*
X135930000Y-92000000D03*
X136730000Y-92000000D03*
X137530000Y-92000000D03*
X131130000Y-92800000D03*
X131930000Y-92800000D03*
X132730000Y-92800000D03*
X135930000Y-92800000D03*
X136730000Y-92800000D03*
X137530000Y-92800000D03*
X131130000Y-93600000D03*
X131930000Y-93600000D03*
X132730000Y-93600000D03*
X135930000Y-93600000D03*
X136730000Y-93600000D03*
X137530000Y-93600000D03*
X131130000Y-94400000D03*
X131930000Y-94400000D03*
X132730000Y-94400000D03*
X135930000Y-94400000D03*
X136730000Y-94400000D03*
X137530000Y-94400000D03*
X131130000Y-95200000D03*
X131930000Y-95200000D03*
X132730000Y-95200000D03*
X135930000Y-95200000D03*
X136730000Y-95200000D03*
X137530000Y-95200000D03*
X131130000Y-96000000D03*
X131930000Y-96000000D03*
X132730000Y-96000000D03*
X135930000Y-96000000D03*
X136730000Y-96000000D03*
X137530000Y-96000000D03*
G36*
G01*
X145542500Y-128450000D02*
X145542500Y-128130000D01*
G75*
G02*
X145702500Y-127970000I160000J0D01*
G01*
X146097500Y-127970000D01*
G75*
G02*
X146257500Y-128130000I0J-160000D01*
G01*
X146257500Y-128450000D01*
G75*
G02*
X146097500Y-128610000I-160000J0D01*
G01*
X145702500Y-128610000D01*
G75*
G02*
X145542500Y-128450000I0J160000D01*
G01*
G37*
G36*
G01*
X146737500Y-128450000D02*
X146737500Y-128130000D01*
G75*
G02*
X146897500Y-127970000I160000J0D01*
G01*
X147292500Y-127970000D01*
G75*
G02*
X147452500Y-128130000I0J-160000D01*
G01*
X147452500Y-128450000D01*
G75*
G02*
X147292500Y-128610000I-160000J0D01*
G01*
X146897500Y-128610000D01*
G75*
G02*
X146737500Y-128450000I0J160000D01*
G01*
G37*
D21*
X151075000Y-75555000D03*
X151075000Y-74455000D03*
X151075000Y-73355000D03*
X151075000Y-72255000D03*
X151075000Y-71155000D03*
X151075000Y-70055000D03*
X151075000Y-68955000D03*
X151075000Y-67855000D03*
X151075000Y-66905000D03*
D22*
X140575000Y-65955000D03*
D23*
X146775000Y-65955000D03*
D24*
X136425000Y-65955000D03*
D23*
X151075000Y-77105000D03*
D25*
X135975000Y-79455000D03*
D10*
X139790000Y-110960000D03*
G36*
G01*
X133465000Y-129605000D02*
X133155000Y-129605000D01*
G75*
G02*
X133000000Y-129450000I0J155000D01*
G01*
X133000000Y-129025000D01*
G75*
G02*
X133155000Y-128870000I155000J0D01*
G01*
X133465000Y-128870000D01*
G75*
G02*
X133620000Y-129025000I0J-155000D01*
G01*
X133620000Y-129450000D01*
G75*
G02*
X133465000Y-129605000I-155000J0D01*
G01*
G37*
G36*
G01*
X133465000Y-128470000D02*
X133155000Y-128470000D01*
G75*
G02*
X133000000Y-128315000I0J155000D01*
G01*
X133000000Y-127890000D01*
G75*
G02*
X133155000Y-127735000I155000J0D01*
G01*
X133465000Y-127735000D01*
G75*
G02*
X133620000Y-127890000I0J-155000D01*
G01*
X133620000Y-128315000D01*
G75*
G02*
X133465000Y-128470000I-155000J0D01*
G01*
G37*
X151450000Y-113510000D03*
G36*
G01*
X144367500Y-121355000D02*
X144367500Y-121665000D01*
G75*
G02*
X144212500Y-121820000I-155000J0D01*
G01*
X143787500Y-121820000D01*
G75*
G02*
X143632500Y-121665000I0J155000D01*
G01*
X143632500Y-121355000D01*
G75*
G02*
X143787500Y-121200000I155000J0D01*
G01*
X144212500Y-121200000D01*
G75*
G02*
X144367500Y-121355000I0J-155000D01*
G01*
G37*
G36*
G01*
X143232500Y-121355000D02*
X143232500Y-121665000D01*
G75*
G02*
X143077500Y-121820000I-155000J0D01*
G01*
X142652500Y-121820000D01*
G75*
G02*
X142497500Y-121665000I0J155000D01*
G01*
X142497500Y-121355000D01*
G75*
G02*
X142652500Y-121200000I155000J0D01*
G01*
X143077500Y-121200000D01*
G75*
G02*
X143232500Y-121355000I0J-155000D01*
G01*
G37*
X129600000Y-100630000D03*
G36*
G01*
X141995000Y-118487500D02*
X141685000Y-118487500D01*
G75*
G02*
X141530000Y-118332500I0J155000D01*
G01*
X141530000Y-117907500D01*
G75*
G02*
X141685000Y-117752500I155000J0D01*
G01*
X141995000Y-117752500D01*
G75*
G02*
X142150000Y-117907500I0J-155000D01*
G01*
X142150000Y-118332500D01*
G75*
G02*
X141995000Y-118487500I-155000J0D01*
G01*
G37*
G36*
G01*
X141995000Y-117352500D02*
X141685000Y-117352500D01*
G75*
G02*
X141530000Y-117197500I0J155000D01*
G01*
X141530000Y-116772500D01*
G75*
G02*
X141685000Y-116617500I155000J0D01*
G01*
X141995000Y-116617500D01*
G75*
G02*
X142150000Y-116772500I0J-155000D01*
G01*
X142150000Y-117197500D01*
G75*
G02*
X141995000Y-117352500I-155000J0D01*
G01*
G37*
G36*
G01*
X131215000Y-121577500D02*
X130905000Y-121577500D01*
G75*
G02*
X130750000Y-121422500I0J155000D01*
G01*
X130750000Y-120997500D01*
G75*
G02*
X130905000Y-120842500I155000J0D01*
G01*
X131215000Y-120842500D01*
G75*
G02*
X131370000Y-120997500I0J-155000D01*
G01*
X131370000Y-121422500D01*
G75*
G02*
X131215000Y-121577500I-155000J0D01*
G01*
G37*
G36*
G01*
X131215000Y-120442500D02*
X130905000Y-120442500D01*
G75*
G02*
X130750000Y-120287500I0J155000D01*
G01*
X130750000Y-119862500D01*
G75*
G02*
X130905000Y-119707500I155000J0D01*
G01*
X131215000Y-119707500D01*
G75*
G02*
X131370000Y-119862500I0J-155000D01*
G01*
X131370000Y-120287500D01*
G75*
G02*
X131215000Y-120442500I-155000J0D01*
G01*
G37*
G36*
G01*
X137967500Y-131535000D02*
X137967500Y-131845000D01*
G75*
G02*
X137812500Y-132000000I-155000J0D01*
G01*
X137387500Y-132000000D01*
G75*
G02*
X137232500Y-131845000I0J155000D01*
G01*
X137232500Y-131535000D01*
G75*
G02*
X137387500Y-131380000I155000J0D01*
G01*
X137812500Y-131380000D01*
G75*
G02*
X137967500Y-131535000I0J-155000D01*
G01*
G37*
G36*
G01*
X136832500Y-131535000D02*
X136832500Y-131845000D01*
G75*
G02*
X136677500Y-132000000I-155000J0D01*
G01*
X136252500Y-132000000D01*
G75*
G02*
X136097500Y-131845000I0J155000D01*
G01*
X136097500Y-131535000D01*
G75*
G02*
X136252500Y-131380000I155000J0D01*
G01*
X136677500Y-131380000D01*
G75*
G02*
X136832500Y-131535000I0J-155000D01*
G01*
G37*
G36*
G01*
X130750000Y-113090000D02*
X131250000Y-113090000D01*
G75*
G02*
X131500000Y-113340000I0J-250000D01*
G01*
X131500000Y-113840000D01*
G75*
G02*
X131250000Y-114090000I-250000J0D01*
G01*
X130750000Y-114090000D01*
G75*
G02*
X130500000Y-113840000I0J250000D01*
G01*
X130500000Y-113340000D01*
G75*
G02*
X130750000Y-113090000I250000J0D01*
G01*
G37*
G36*
G01*
X130750000Y-115590000D02*
X131250000Y-115590000D01*
G75*
G02*
X131500000Y-115840000I0J-250000D01*
G01*
X131500000Y-116340000D01*
G75*
G02*
X131250000Y-116590000I-250000J0D01*
G01*
X130750000Y-116590000D01*
G75*
G02*
X130500000Y-116340000I0J250000D01*
G01*
X130500000Y-115840000D01*
G75*
G02*
X130750000Y-115590000I250000J0D01*
G01*
G37*
D13*
X133700000Y-104020000D03*
X133700000Y-109800000D03*
D26*
X134760000Y-103710000D03*
X134760000Y-104510000D03*
D27*
X134760000Y-105660000D03*
X134760000Y-106660000D03*
X134760000Y-107160000D03*
X134760000Y-108160000D03*
D26*
X134760000Y-109310000D03*
X134760000Y-110110000D03*
X134760000Y-110110000D03*
X134760000Y-109310000D03*
D27*
X134760000Y-108660000D03*
X134760000Y-107660000D03*
X134760000Y-106160000D03*
X134760000Y-105160000D03*
D26*
X134760000Y-104510000D03*
X134760000Y-103710000D03*
D28*
X134180000Y-102590000D03*
D29*
X130010000Y-102590000D03*
D28*
X134180000Y-111230000D03*
D29*
X130010000Y-111230000D03*
G36*
G01*
X142682500Y-111520000D02*
X142557500Y-111520000D01*
G75*
G02*
X142495000Y-111457500I0J62500D01*
G01*
X142495000Y-110782500D01*
G75*
G02*
X142557500Y-110720000I62500J0D01*
G01*
X142682500Y-110720000D01*
G75*
G02*
X142745000Y-110782500I0J-62500D01*
G01*
X142745000Y-111457500D01*
G75*
G02*
X142682500Y-111520000I-62500J0D01*
G01*
G37*
G36*
G01*
X143182500Y-111520000D02*
X143057500Y-111520000D01*
G75*
G02*
X142995000Y-111457500I0J62500D01*
G01*
X142995000Y-110782500D01*
G75*
G02*
X143057500Y-110720000I62500J0D01*
G01*
X143182500Y-110720000D01*
G75*
G02*
X143245000Y-110782500I0J-62500D01*
G01*
X143245000Y-111457500D01*
G75*
G02*
X143182500Y-111520000I-62500J0D01*
G01*
G37*
G36*
G01*
X143682500Y-111520000D02*
X143557500Y-111520000D01*
G75*
G02*
X143495000Y-111457500I0J62500D01*
G01*
X143495000Y-110782500D01*
G75*
G02*
X143557500Y-110720000I62500J0D01*
G01*
X143682500Y-110720000D01*
G75*
G02*
X143745000Y-110782500I0J-62500D01*
G01*
X143745000Y-111457500D01*
G75*
G02*
X143682500Y-111520000I-62500J0D01*
G01*
G37*
G36*
G01*
X144182500Y-111520000D02*
X144057500Y-111520000D01*
G75*
G02*
X143995000Y-111457500I0J62500D01*
G01*
X143995000Y-110782500D01*
G75*
G02*
X144057500Y-110720000I62500J0D01*
G01*
X144182500Y-110720000D01*
G75*
G02*
X144245000Y-110782500I0J-62500D01*
G01*
X144245000Y-111457500D01*
G75*
G02*
X144182500Y-111520000I-62500J0D01*
G01*
G37*
G36*
G01*
X144682500Y-111520000D02*
X144557500Y-111520000D01*
G75*
G02*
X144495000Y-111457500I0J62500D01*
G01*
X144495000Y-110782500D01*
G75*
G02*
X144557500Y-110720000I62500J0D01*
G01*
X144682500Y-110720000D01*
G75*
G02*
X144745000Y-110782500I0J-62500D01*
G01*
X144745000Y-111457500D01*
G75*
G02*
X144682500Y-111520000I-62500J0D01*
G01*
G37*
G36*
G01*
X145182500Y-111520000D02*
X145057500Y-111520000D01*
G75*
G02*
X144995000Y-111457500I0J62500D01*
G01*
X144995000Y-110782500D01*
G75*
G02*
X145057500Y-110720000I62500J0D01*
G01*
X145182500Y-110720000D01*
G75*
G02*
X145245000Y-110782500I0J-62500D01*
G01*
X145245000Y-111457500D01*
G75*
G02*
X145182500Y-111520000I-62500J0D01*
G01*
G37*
G36*
G01*
X145682500Y-111520000D02*
X145557500Y-111520000D01*
G75*
G02*
X145495000Y-111457500I0J62500D01*
G01*
X145495000Y-110782500D01*
G75*
G02*
X145557500Y-110720000I62500J0D01*
G01*
X145682500Y-110720000D01*
G75*
G02*
X145745000Y-110782500I0J-62500D01*
G01*
X145745000Y-111457500D01*
G75*
G02*
X145682500Y-111520000I-62500J0D01*
G01*
G37*
G36*
G01*
X146907500Y-110295000D02*
X146232500Y-110295000D01*
G75*
G02*
X146170000Y-110232500I0J62500D01*
G01*
X146170000Y-110107500D01*
G75*
G02*
X146232500Y-110045000I62500J0D01*
G01*
X146907500Y-110045000D01*
G75*
G02*
X146970000Y-110107500I0J-62500D01*
G01*
X146970000Y-110232500D01*
G75*
G02*
X146907500Y-110295000I-62500J0D01*
G01*
G37*
G36*
G01*
X146907500Y-109795000D02*
X146232500Y-109795000D01*
G75*
G02*
X146170000Y-109732500I0J62500D01*
G01*
X146170000Y-109607500D01*
G75*
G02*
X146232500Y-109545000I62500J0D01*
G01*
X146907500Y-109545000D01*
G75*
G02*
X146970000Y-109607500I0J-62500D01*
G01*
X146970000Y-109732500D01*
G75*
G02*
X146907500Y-109795000I-62500J0D01*
G01*
G37*
G36*
G01*
X146907500Y-109295000D02*
X146232500Y-109295000D01*
G75*
G02*
X146170000Y-109232500I0J62500D01*
G01*
X146170000Y-109107500D01*
G75*
G02*
X146232500Y-109045000I62500J0D01*
G01*
X146907500Y-109045000D01*
G75*
G02*
X146970000Y-109107500I0J-62500D01*
G01*
X146970000Y-109232500D01*
G75*
G02*
X146907500Y-109295000I-62500J0D01*
G01*
G37*
G36*
G01*
X146907500Y-108795000D02*
X146232500Y-108795000D01*
G75*
G02*
X146170000Y-108732500I0J62500D01*
G01*
X146170000Y-108607500D01*
G75*
G02*
X146232500Y-108545000I62500J0D01*
G01*
X146907500Y-108545000D01*
G75*
G02*
X146970000Y-108607500I0J-62500D01*
G01*
X146970000Y-108732500D01*
G75*
G02*
X146907500Y-108795000I-62500J0D01*
G01*
G37*
G36*
G01*
X146907500Y-108295000D02*
X146232500Y-108295000D01*
G75*
G02*
X146170000Y-108232500I0J62500D01*
G01*
X146170000Y-108107500D01*
G75*
G02*
X146232500Y-108045000I62500J0D01*
G01*
X146907500Y-108045000D01*
G75*
G02*
X146970000Y-108107500I0J-62500D01*
G01*
X146970000Y-108232500D01*
G75*
G02*
X146907500Y-108295000I-62500J0D01*
G01*
G37*
G36*
G01*
X146907500Y-107795000D02*
X146232500Y-107795000D01*
G75*
G02*
X146170000Y-107732500I0J62500D01*
G01*
X146170000Y-107607500D01*
G75*
G02*
X146232500Y-107545000I62500J0D01*
G01*
X146907500Y-107545000D01*
G75*
G02*
X146970000Y-107607500I0J-62500D01*
G01*
X146970000Y-107732500D01*
G75*
G02*
X146907500Y-107795000I-62500J0D01*
G01*
G37*
G36*
G01*
X146907500Y-107295000D02*
X146232500Y-107295000D01*
G75*
G02*
X146170000Y-107232500I0J62500D01*
G01*
X146170000Y-107107500D01*
G75*
G02*
X146232500Y-107045000I62500J0D01*
G01*
X146907500Y-107045000D01*
G75*
G02*
X146970000Y-107107500I0J-62500D01*
G01*
X146970000Y-107232500D01*
G75*
G02*
X146907500Y-107295000I-62500J0D01*
G01*
G37*
G36*
G01*
X145682500Y-106620000D02*
X145557500Y-106620000D01*
G75*
G02*
X145495000Y-106557500I0J62500D01*
G01*
X145495000Y-105882500D01*
G75*
G02*
X145557500Y-105820000I62500J0D01*
G01*
X145682500Y-105820000D01*
G75*
G02*
X145745000Y-105882500I0J-62500D01*
G01*
X145745000Y-106557500D01*
G75*
G02*
X145682500Y-106620000I-62500J0D01*
G01*
G37*
G36*
G01*
X145182500Y-106620000D02*
X145057500Y-106620000D01*
G75*
G02*
X144995000Y-106557500I0J62500D01*
G01*
X144995000Y-105882500D01*
G75*
G02*
X145057500Y-105820000I62500J0D01*
G01*
X145182500Y-105820000D01*
G75*
G02*
X145245000Y-105882500I0J-62500D01*
G01*
X145245000Y-106557500D01*
G75*
G02*
X145182500Y-106620000I-62500J0D01*
G01*
G37*
G36*
G01*
X144682500Y-106620000D02*
X144557500Y-106620000D01*
G75*
G02*
X144495000Y-106557500I0J62500D01*
G01*
X144495000Y-105882500D01*
G75*
G02*
X144557500Y-105820000I62500J0D01*
G01*
X144682500Y-105820000D01*
G75*
G02*
X144745000Y-105882500I0J-62500D01*
G01*
X144745000Y-106557500D01*
G75*
G02*
X144682500Y-106620000I-62500J0D01*
G01*
G37*
G36*
G01*
X144182500Y-106620000D02*
X144057500Y-106620000D01*
G75*
G02*
X143995000Y-106557500I0J62500D01*
G01*
X143995000Y-105882500D01*
G75*
G02*
X144057500Y-105820000I62500J0D01*
G01*
X144182500Y-105820000D01*
G75*
G02*
X144245000Y-105882500I0J-62500D01*
G01*
X144245000Y-106557500D01*
G75*
G02*
X144182500Y-106620000I-62500J0D01*
G01*
G37*
G36*
G01*
X143682500Y-106620000D02*
X143557500Y-106620000D01*
G75*
G02*
X143495000Y-106557500I0J62500D01*
G01*
X143495000Y-105882500D01*
G75*
G02*
X143557500Y-105820000I62500J0D01*
G01*
X143682500Y-105820000D01*
G75*
G02*
X143745000Y-105882500I0J-62500D01*
G01*
X143745000Y-106557500D01*
G75*
G02*
X143682500Y-106620000I-62500J0D01*
G01*
G37*
G36*
G01*
X143182500Y-106620000D02*
X143057500Y-106620000D01*
G75*
G02*
X142995000Y-106557500I0J62500D01*
G01*
X142995000Y-105882500D01*
G75*
G02*
X143057500Y-105820000I62500J0D01*
G01*
X143182500Y-105820000D01*
G75*
G02*
X143245000Y-105882500I0J-62500D01*
G01*
X143245000Y-106557500D01*
G75*
G02*
X143182500Y-106620000I-62500J0D01*
G01*
G37*
G36*
G01*
X142682500Y-106620000D02*
X142557500Y-106620000D01*
G75*
G02*
X142495000Y-106557500I0J62500D01*
G01*
X142495000Y-105882500D01*
G75*
G02*
X142557500Y-105820000I62500J0D01*
G01*
X142682500Y-105820000D01*
G75*
G02*
X142745000Y-105882500I0J-62500D01*
G01*
X142745000Y-106557500D01*
G75*
G02*
X142682500Y-106620000I-62500J0D01*
G01*
G37*
G36*
G01*
X142007500Y-107295000D02*
X141332500Y-107295000D01*
G75*
G02*
X141270000Y-107232500I0J62500D01*
G01*
X141270000Y-107107500D01*
G75*
G02*
X141332500Y-107045000I62500J0D01*
G01*
X142007500Y-107045000D01*
G75*
G02*
X142070000Y-107107500I0J-62500D01*
G01*
X142070000Y-107232500D01*
G75*
G02*
X142007500Y-107295000I-62500J0D01*
G01*
G37*
G36*
G01*
X142007500Y-107795000D02*
X141332500Y-107795000D01*
G75*
G02*
X141270000Y-107732500I0J62500D01*
G01*
X141270000Y-107607500D01*
G75*
G02*
X141332500Y-107545000I62500J0D01*
G01*
X142007500Y-107545000D01*
G75*
G02*
X142070000Y-107607500I0J-62500D01*
G01*
X142070000Y-107732500D01*
G75*
G02*
X142007500Y-107795000I-62500J0D01*
G01*
G37*
G36*
G01*
X142007500Y-108295000D02*
X141332500Y-108295000D01*
G75*
G02*
X141270000Y-108232500I0J62500D01*
G01*
X141270000Y-108107500D01*
G75*
G02*
X141332500Y-108045000I62500J0D01*
G01*
X142007500Y-108045000D01*
G75*
G02*
X142070000Y-108107500I0J-62500D01*
G01*
X142070000Y-108232500D01*
G75*
G02*
X142007500Y-108295000I-62500J0D01*
G01*
G37*
G36*
G01*
X142007500Y-108795000D02*
X141332500Y-108795000D01*
G75*
G02*
X141270000Y-108732500I0J62500D01*
G01*
X141270000Y-108607500D01*
G75*
G02*
X141332500Y-108545000I62500J0D01*
G01*
X142007500Y-108545000D01*
G75*
G02*
X142070000Y-108607500I0J-62500D01*
G01*
X142070000Y-108732500D01*
G75*
G02*
X142007500Y-108795000I-62500J0D01*
G01*
G37*
G36*
G01*
X142007500Y-109295000D02*
X141332500Y-109295000D01*
G75*
G02*
X141270000Y-109232500I0J62500D01*
G01*
X141270000Y-109107500D01*
G75*
G02*
X141332500Y-109045000I62500J0D01*
G01*
X142007500Y-109045000D01*
G75*
G02*
X142070000Y-109107500I0J-62500D01*
G01*
X142070000Y-109232500D01*
G75*
G02*
X142007500Y-109295000I-62500J0D01*
G01*
G37*
G36*
G01*
X142007500Y-109795000D02*
X141332500Y-109795000D01*
G75*
G02*
X141270000Y-109732500I0J62500D01*
G01*
X141270000Y-109607500D01*
G75*
G02*
X141332500Y-109545000I62500J0D01*
G01*
X142007500Y-109545000D01*
G75*
G02*
X142070000Y-109607500I0J-62500D01*
G01*
X142070000Y-109732500D01*
G75*
G02*
X142007500Y-109795000I-62500J0D01*
G01*
G37*
G36*
G01*
X142007500Y-110295000D02*
X141332500Y-110295000D01*
G75*
G02*
X141270000Y-110232500I0J62500D01*
G01*
X141270000Y-110107500D01*
G75*
G02*
X141332500Y-110045000I62500J0D01*
G01*
X142007500Y-110045000D01*
G75*
G02*
X142070000Y-110107500I0J-62500D01*
G01*
X142070000Y-110232500D01*
G75*
G02*
X142007500Y-110295000I-62500J0D01*
G01*
G37*
D30*
X144120000Y-108670000D03*
G36*
G01*
X148492500Y-123870000D02*
X148492500Y-123570000D01*
G75*
G02*
X148642500Y-123420000I150000J0D01*
G01*
X149817500Y-123420000D01*
G75*
G02*
X149967500Y-123570000I0J-150000D01*
G01*
X149967500Y-123870000D01*
G75*
G02*
X149817500Y-124020000I-150000J0D01*
G01*
X148642500Y-124020000D01*
G75*
G02*
X148492500Y-123870000I0J150000D01*
G01*
G37*
G36*
G01*
X148492500Y-125770000D02*
X148492500Y-125470000D01*
G75*
G02*
X148642500Y-125320000I150000J0D01*
G01*
X149817500Y-125320000D01*
G75*
G02*
X149967500Y-125470000I0J-150000D01*
G01*
X149967500Y-125770000D01*
G75*
G02*
X149817500Y-125920000I-150000J0D01*
G01*
X148642500Y-125920000D01*
G75*
G02*
X148492500Y-125770000I0J150000D01*
G01*
G37*
G36*
G01*
X150367500Y-124820000D02*
X150367500Y-124520000D01*
G75*
G02*
X150517500Y-124370000I150000J0D01*
G01*
X151692500Y-124370000D01*
G75*
G02*
X151842500Y-124520000I0J-150000D01*
G01*
X151842500Y-124820000D01*
G75*
G02*
X151692500Y-124970000I-150000J0D01*
G01*
X150517500Y-124970000D01*
G75*
G02*
X150367500Y-124820000I0J150000D01*
G01*
G37*
G36*
G01*
X144757500Y-112750000D02*
X144757500Y-112430000D01*
G75*
G02*
X144917500Y-112270000I160000J0D01*
G01*
X145312500Y-112270000D01*
G75*
G02*
X145472500Y-112430000I0J-160000D01*
G01*
X145472500Y-112750000D01*
G75*
G02*
X145312500Y-112910000I-160000J0D01*
G01*
X144917500Y-112910000D01*
G75*
G02*
X144757500Y-112750000I0J160000D01*
G01*
G37*
G36*
G01*
X145952500Y-112750000D02*
X145952500Y-112430000D01*
G75*
G02*
X146112500Y-112270000I160000J0D01*
G01*
X146507500Y-112270000D01*
G75*
G02*
X146667500Y-112430000I0J-160000D01*
G01*
X146667500Y-112750000D01*
G75*
G02*
X146507500Y-112910000I-160000J0D01*
G01*
X146112500Y-112910000D01*
G75*
G02*
X145952500Y-112750000I0J160000D01*
G01*
G37*
D18*
X141040000Y-128960000D03*
X139390000Y-128960000D03*
G36*
G01*
X150590000Y-80697500D02*
X150910000Y-80697500D01*
G75*
G02*
X151070000Y-80857500I0J-160000D01*
G01*
X151070000Y-81252500D01*
G75*
G02*
X150910000Y-81412500I-160000J0D01*
G01*
X150590000Y-81412500D01*
G75*
G02*
X150430000Y-81252500I0J160000D01*
G01*
X150430000Y-80857500D01*
G75*
G02*
X150590000Y-80697500I160000J0D01*
G01*
G37*
G36*
G01*
X150590000Y-81892500D02*
X150910000Y-81892500D01*
G75*
G02*
X151070000Y-82052500I0J-160000D01*
G01*
X151070000Y-82447500D01*
G75*
G02*
X150910000Y-82607500I-160000J0D01*
G01*
X150590000Y-82607500D01*
G75*
G02*
X150430000Y-82447500I0J160000D01*
G01*
X150430000Y-82052500D01*
G75*
G02*
X150590000Y-81892500I160000J0D01*
G01*
G37*
G36*
G01*
X142805000Y-116617500D02*
X143115000Y-116617500D01*
G75*
G02*
X143270000Y-116772500I0J-155000D01*
G01*
X143270000Y-117197500D01*
G75*
G02*
X143115000Y-117352500I-155000J0D01*
G01*
X142805000Y-117352500D01*
G75*
G02*
X142650000Y-117197500I0J155000D01*
G01*
X142650000Y-116772500D01*
G75*
G02*
X142805000Y-116617500I155000J0D01*
G01*
G37*
G36*
G01*
X142805000Y-117752500D02*
X143115000Y-117752500D01*
G75*
G02*
X143270000Y-117907500I0J-155000D01*
G01*
X143270000Y-118332500D01*
G75*
G02*
X143115000Y-118487500I-155000J0D01*
G01*
X142805000Y-118487500D01*
G75*
G02*
X142650000Y-118332500I0J155000D01*
G01*
X142650000Y-117907500D01*
G75*
G02*
X142805000Y-117752500I155000J0D01*
G01*
G37*
G36*
G01*
X134635000Y-129595000D02*
X134325000Y-129595000D01*
G75*
G02*
X134170000Y-129440000I0J155000D01*
G01*
X134170000Y-129015000D01*
G75*
G02*
X134325000Y-128860000I155000J0D01*
G01*
X134635000Y-128860000D01*
G75*
G02*
X134790000Y-129015000I0J-155000D01*
G01*
X134790000Y-129440000D01*
G75*
G02*
X134635000Y-129595000I-155000J0D01*
G01*
G37*
G36*
G01*
X134635000Y-128460000D02*
X134325000Y-128460000D01*
G75*
G02*
X134170000Y-128305000I0J155000D01*
G01*
X134170000Y-127880000D01*
G75*
G02*
X134325000Y-127725000I155000J0D01*
G01*
X134635000Y-127725000D01*
G75*
G02*
X134790000Y-127880000I0J-155000D01*
G01*
X134790000Y-128305000D01*
G75*
G02*
X134635000Y-128460000I-155000J0D01*
G01*
G37*
G36*
G01*
X152730000Y-65255000D02*
X153050000Y-65255000D01*
G75*
G02*
X153210000Y-65415000I0J-160000D01*
G01*
X153210000Y-65810000D01*
G75*
G02*
X153050000Y-65970000I-160000J0D01*
G01*
X152730000Y-65970000D01*
G75*
G02*
X152570000Y-65810000I0J160000D01*
G01*
X152570000Y-65415000D01*
G75*
G02*
X152730000Y-65255000I160000J0D01*
G01*
G37*
G36*
G01*
X152730000Y-66450000D02*
X153050000Y-66450000D01*
G75*
G02*
X153210000Y-66610000I0J-160000D01*
G01*
X153210000Y-67005000D01*
G75*
G02*
X153050000Y-67165000I-160000J0D01*
G01*
X152730000Y-67165000D01*
G75*
G02*
X152570000Y-67005000I0J160000D01*
G01*
X152570000Y-66610000D01*
G75*
G02*
X152730000Y-66450000I160000J0D01*
G01*
G37*
G36*
G01*
X152000000Y-104977500D02*
X151680000Y-104977500D01*
G75*
G02*
X151520000Y-104817500I0J160000D01*
G01*
X151520000Y-104422500D01*
G75*
G02*
X151680000Y-104262500I160000J0D01*
G01*
X152000000Y-104262500D01*
G75*
G02*
X152160000Y-104422500I0J-160000D01*
G01*
X152160000Y-104817500D01*
G75*
G02*
X152000000Y-104977500I-160000J0D01*
G01*
G37*
G36*
G01*
X152000000Y-103782500D02*
X151680000Y-103782500D01*
G75*
G02*
X151520000Y-103622500I0J160000D01*
G01*
X151520000Y-103227500D01*
G75*
G02*
X151680000Y-103067500I160000J0D01*
G01*
X152000000Y-103067500D01*
G75*
G02*
X152160000Y-103227500I0J-160000D01*
G01*
X152160000Y-103622500D01*
G75*
G02*
X152000000Y-103782500I-160000J0D01*
G01*
G37*
G36*
G01*
X137727500Y-114765000D02*
X137727500Y-115075000D01*
G75*
G02*
X137572500Y-115230000I-155000J0D01*
G01*
X137147500Y-115230000D01*
G75*
G02*
X136992500Y-115075000I0J155000D01*
G01*
X136992500Y-114765000D01*
G75*
G02*
X137147500Y-114610000I155000J0D01*
G01*
X137572500Y-114610000D01*
G75*
G02*
X137727500Y-114765000I0J-155000D01*
G01*
G37*
G36*
G01*
X136592500Y-114765000D02*
X136592500Y-115075000D01*
G75*
G02*
X136437500Y-115230000I-155000J0D01*
G01*
X136012500Y-115230000D01*
G75*
G02*
X135857500Y-115075000I0J155000D01*
G01*
X135857500Y-114765000D01*
G75*
G02*
X136012500Y-114610000I155000J0D01*
G01*
X136437500Y-114610000D01*
G75*
G02*
X136592500Y-114765000I0J-155000D01*
G01*
G37*
G36*
G01*
X132855000Y-121522500D02*
X132545000Y-121522500D01*
G75*
G02*
X132390000Y-121367500I0J155000D01*
G01*
X132390000Y-120942500D01*
G75*
G02*
X132545000Y-120787500I155000J0D01*
G01*
X132855000Y-120787500D01*
G75*
G02*
X133010000Y-120942500I0J-155000D01*
G01*
X133010000Y-121367500D01*
G75*
G02*
X132855000Y-121522500I-155000J0D01*
G01*
G37*
G36*
G01*
X132855000Y-120387500D02*
X132545000Y-120387500D01*
G75*
G02*
X132390000Y-120232500I0J155000D01*
G01*
X132390000Y-119807500D01*
G75*
G02*
X132545000Y-119652500I155000J0D01*
G01*
X132855000Y-119652500D01*
G75*
G02*
X133010000Y-119807500I0J-155000D01*
G01*
X133010000Y-120232500D01*
G75*
G02*
X132855000Y-120387500I-155000J0D01*
G01*
G37*
D10*
X150360000Y-121450000D03*
G36*
G01*
X139455000Y-116597500D02*
X139765000Y-116597500D01*
G75*
G02*
X139920000Y-116752500I0J-155000D01*
G01*
X139920000Y-117177500D01*
G75*
G02*
X139765000Y-117332500I-155000J0D01*
G01*
X139455000Y-117332500D01*
G75*
G02*
X139300000Y-117177500I0J155000D01*
G01*
X139300000Y-116752500D01*
G75*
G02*
X139455000Y-116597500I155000J0D01*
G01*
G37*
G36*
G01*
X139455000Y-117732500D02*
X139765000Y-117732500D01*
G75*
G02*
X139920000Y-117887500I0J-155000D01*
G01*
X139920000Y-118312500D01*
G75*
G02*
X139765000Y-118467500I-155000J0D01*
G01*
X139455000Y-118467500D01*
G75*
G02*
X139300000Y-118312500I0J155000D01*
G01*
X139300000Y-117887500D01*
G75*
G02*
X139455000Y-117732500I155000J0D01*
G01*
G37*
M02*
